<svg version="1.1" id="Layer_1" xmlns="http://www.w3.org/2000/svg" x="0" y="0" viewBox="0 0 162 137" xml:space="preserve"><style>.st0{fill:#33a995}</style><path class="st0" d="M156.9 79.5L144.6 60c-.5-.9-1.5-1.3-2.5-1.1L64.4 73.4 25.9 56.6c-.9-.4-2-.2-2.7.5L6 74.2c-.6.6-.8 1.4-.7 2.2.2.8.7 1.5 1.4 1.8L46 95.3c.3.1.7.2 1 .2.6 0 1.3-.2 1.7-.7l15-14.9 10.6 16.9c.5.7 1.2 1.1 2.1 1.1h.5l78.5-14.7c.8-.1 1.5-.7 1.8-1.4.2-.8.1-1.6-.3-2.3zM46.4 90.1L12 75.1l13.4-13.4 34.4 15-13.4 13.4zm31.1 2.6L68 77.6 141.4 64l9.5 15.1-73.4 13.6z"/><path class="st0" d="M142.5 90.6c-1.4 0-2.5 1.1-2.5 2.4v20l-73.5 13.7V90.6c0-1.3-1.1-2.4-2.5-2.4s-2.5 1.1-2.5 2.4v35.3l-34.3-15V93c0-1.3-1.1-2.4-2.5-2.4s-2.5 1.1-2.5 2.4v19.5c0 1 .6 1.8 1.5 2.2l39.2 17.1c.1.1.3.1.4.1.2 0 .3.1.5.1h.5l78.4-14.6c1.2-.2 2-1.2 2-2.4V93c.3-1.3-.8-2.4-2.2-2.4zm-31.8-56.2v8.4c-3.1 2.1-4.9 5.5-4.9 9.3v6.7c0 1.3 1.1 2.4 2.5 2.4s2.5-1.1 2.5-2.4v-6.7c0-2.3 1.2-4.3 3.1-5.5h13.4c1.9 1.2 3.1 3.2 3.1 5.5V54c0 1.3 1.1 2.4 2.5 2.4s2.5-1.1 2.5-2.4v-1.9c0-3.8-1.8-7.2-4.9-9.3v-8.4c0-1.3-1.1-2.4-2.5-2.4h-14.7c-1.5 0-2.6 1.1-2.6 2.4zm4.9 2.4h9.8v4.9h-9.8v-4.9zm-22.1-9.7c1.4 0 2.5-1.1 2.5-2.4 0-.6.3-1.1.8-1.4l2.2-1.1h13.6l2.2 1.1c.5.3.8.8.8 1.4 0 1.3 1.1 2.4 2.5 2.4s2.5-1.1 2.5-2.4c0-2.4-1.4-4.6-3.5-5.7l-1.4-.7V7.5c0-1.3-1.1-2.4-2.5-2.4H98.4c-1.4 0-2.5 1.1-2.5 2.4v10.7l-1.4.7C92.3 20 91 22.2 91 24.6c.1 1.4 1.2 2.5 2.5 2.5zm7.4-17.1h9.8v7.3h-9.8V10zM56.7 29.5c1.4 0 2.5-1.1 2.5-2.4v-2.5l22.1 16v23.2c0 1.3 1.1 2.4 2.5 2.4s2.5-1.1 2.5-2.4V41.3l7.4-1.5v21.4c0 1.3 1.1 2.4 2.5 2.4s2.5-1.1 2.5-2.4v-25c0-.1-.1-.2-.1-.3 0-.1-.1-.1-.1-.2s-.1-.2-.2-.3c0-.1-.1-.1-.1-.2L98 35l-.1-.1h-.2l-27-19.5c-.6-.4-1.3-.6-1.9-.4l-12.3 2.4c-.1 0-.1 0-.2.1h-.2c-.1 0-.2.1-.3.2h-.1c-.1.1-.2.2-.4.3l-.1.1c-.1.1-.1.2-.2.2 0 0 0 .1-.1.1-.1.1-.1.2-.1.3 0 .1-.1.1-.1.2s-.1.2-.1.3v8c-.3 1.2.8 2.3 2.1 2.3zm33.3 6l-5.7 1.1L62.7 21l5.7-1.1L90 35.5z"/><path class="st0" d="M34.7 49.1v3.5c-.4.2-.7.5-1 .8-1 .9-1.1 2.4-.2 3.4.5.6 1.2.8 1.8.8.6 0 1.1-.2 1.6-.6.4-.4.9-.7 1.3-.9.8-.4 1.4-1.3 1.4-2.2V49h19.6v4.9c0 .9.5 1.8 1.4 2.2 2.2 1.1 3.5 3.3 3.5 5.7v4.3c0 1.3 1.1 2.4 2.5 2.4s2.5-1.1 2.5-2.4v-4.3c0-3.8-1.8-7.2-4.9-9.3V49c1.4 0 2.5-1.1 2.5-2.4v-9.8c0-1.3-1.1-2.4-2.5-2.4H34.7c-1.4 0-2.5 1.1-2.5 2.4v9.8c0 1.4 1.1 2.5 2.5 2.5zm2.4-9.8h24.5v4.9H37.1v-4.9z"/></svg>