<svg width="20" height="20" fill="none" xmlns="http://www.w3.org/2000/svg"><path d="M5.4 3.4c-.36 0-.6.36-.6.6v3H3.6V4c0-.36-.24-.6-.6-.6s-.6.36-.6.6v3H1.2V4c0-.36-.24-.6-.6-.6S0 3.76 0 4v3.96C0 9.04.84 9.88 1.8 10v8.4c0 .72.48 1.2 1.2 1.2s1.2-.48 1.2-1.2V10C5.16 9.88 6 9.04 6 7.96V4c0-.24-.24-.6-.6-.6zm2.4.6v7.2H9v7.2c0 .72.48 1.2 1.2 1.2s1.2-.48 1.2-1.2V.4C9.36.4 7.8 1.96 7.8 4zm8.4-1.2c-1.68 0-3 1.8-3 3.96-.12 1.44.6 2.76 1.8 3.6v8.04c0 .72.48 1.2 1.2 1.2s1.2-.48 1.2-1.2v-8.04c1.2-.84 1.92-2.16 1.8-3.6 0-2.16-1.32-3.96-3-3.96z" fill="#fff"/></svg>