<svg width="47" height="48" fill="none" xmlns="http://www.w3.org/2000/svg"><path d="M13.3 8.05c-.87 0-1.45.87-1.45 1.45v7.25h-2.9V9.5c0-.87-.58-1.45-1.45-1.45s-1.45.87-1.45 1.45v7.25h-2.9V9.5c0-.87-.58-1.45-1.45-1.45S.25 8.92.25 9.5v9.57c0 2.61 2.03 4.64 4.35 4.93v20.3c0 1.74 1.16 2.9 2.9 2.9s2.9-1.16 2.9-2.9V24c2.32-.29 4.35-2.32 4.35-4.93V9.5c0-.58-.58-1.45-1.45-1.45zm5.8 1.45v17.4H22v17.4c0 1.74 1.16 2.9 2.9 2.9s2.9-1.16 2.9-2.9V.8c-4.93 0-8.7 3.77-8.7 8.7zm20.3-2.9c-4.06 0-7.25 4.35-7.25 9.57-.29 3.48 1.45 6.67 4.35 8.7V44.3c0 1.74 1.16 2.9 2.9 2.9s2.9-1.16 2.9-2.9V24.87c2.9-2.03 4.64-5.22 4.35-8.7 0-5.22-3.19-9.57-7.25-9.57z" fill="#fff"/></svg>