<svg width="524" height="264" fill="none" xmlns="http://www.w3.org/2000/svg"><rect y="16" width="524" height="232" rx="10" fill="#DFE8EB"/><path d="M345.397 81.21h30.47v-8.69h-15.895l6.6-4.62c5.72-4.124 8.91-7.314 8.91-13.474v-.11c0-7.26-5.775-12.265-14.19-12.265-7.425 0-11.55 2.915-15.675 8.25l7.205 5.995c3.025-3.465 5.06-5.005 7.645-5.005 2.64 0 4.345 1.485 4.345 3.96 0 2.31-1.43 4.125-5.005 6.93l-14.41 11v8.03zm35.647 0h11.77l16.995-30.47v-8.03h-29.645v8.966h17.82l-16.94 29.535zm-92.57 64.001h10.45v-22.055l9.79 15.015h.22l9.845-15.07v22.11h10.615v-38.5h-11.275l-9.185 14.905-9.185-14.905h-11.275v38.5zm47.199-32.45h10.835v-7.7h-10.835v7.7zm.22 32.45h10.395v-29.755h-10.395v29.755zm16.543 0h10.395v-40.15h-10.395v40.15zm16.543 0h10.395v-40.15h-10.395v40.15zm16.323-32.45h10.835v-7.7h-10.835v7.7zm.22 32.45h10.395v-29.755h-10.395v29.755zm31.448.715c9.57 0 16.5-7.095 16.5-15.565v-.11c0-8.47-6.875-15.455-16.39-15.455s-16.445 7.095-16.445 15.565v.11c0 8.47 6.875 15.455 16.335 15.455zm.11-8.855c-3.685 0-6.325-3.08-6.325-6.71v-.11c0-3.63 2.42-6.655 6.215-6.655 3.685 0 6.38 3.08 6.38 6.765v.11c0 3.575-2.475 6.6-6.27 6.6zm20.803 8.14h10.45v-16.115c0-3.3 1.87-5.06 4.4-5.06 2.53 0 4.235 1.76 4.235 5.06v16.115h10.395v-19.47c0-6.765-3.795-10.945-10.12-10.945-4.235 0-6.985 2.365-8.91 4.84v-4.18h-10.45v29.755z" fill="#34AA96"/><path d="M264.667 191.211h2.706v-4.466l2.398-2.464 5.258 6.93h3.3l-6.71-8.778 6.424-6.622h-3.344l-7.326 7.744v-7.744h-2.706v15.4zm20.511.264c3.586 0 6.226-2.75 6.226-6.05v-.044c0-3.322-2.618-6.028-6.182-6.028-3.564 0-6.204 2.75-6.204 6.072v.044c0 3.3 2.618 6.006 6.16 6.006zm.044-2.332c-2.068 0-3.542-1.694-3.542-3.718v-.044c0-2.024 1.364-3.696 3.498-3.696 2.09 0 3.564 1.694 3.564 3.74v.044c0 2.002-1.364 3.674-3.52 3.674zm12.875 2.288c2.42 0 4.312-1.21 4.312-3.652v-.044c0-2.09-1.914-2.86-3.608-3.388-1.364-.44-2.618-.792-2.618-1.65v-.044c0-.66.594-1.144 1.628-1.144.968 0 2.156.418 3.278 1.1l1.056-1.892c-1.232-.814-2.816-1.32-4.268-1.32-2.31 0-4.136 1.342-4.136 3.542v.044c0 2.222 1.914 2.926 3.63 3.41 1.364.418 2.596.726 2.596 1.628v.044c0 .77-.66 1.254-1.804 1.254-1.188 0-2.53-.484-3.806-1.43l-1.188 1.804c1.452 1.144 3.278 1.738 4.928 1.738zm7.04-.22h2.662v-6.556c0-1.804 1.078-2.882 2.618-2.882 1.584 0 2.486 1.034 2.486 2.838v6.6h2.662v-7.414c0-2.684-1.518-4.444-4.136-4.444-1.804 0-2.882.946-3.63 2.024v-6.226h-2.662v16.06zm18.966.264c2.134 0 3.652-.858 4.752-2.178l-1.562-1.386c-.924.902-1.848 1.386-3.146 1.386-1.716 0-3.058-1.056-3.344-2.948h8.536c.022-.264.044-.506.044-.748 0-3.344-1.87-6.248-5.566-6.248-3.322 0-5.676 2.728-5.676 6.05v.044c0 3.586 2.596 6.028 5.962 6.028zm-3.322-6.886c.242-1.804 1.386-3.058 3.014-3.058 1.76 0 2.772 1.342 2.948 3.058h-5.962zm11.276 6.622h2.662v-4.422c0-3.08 1.628-4.598 3.96-4.598h.154v-2.816c-2.046-.088-3.388 1.1-4.114 2.838v-2.618h-2.662v11.616zm26.661.308l2.024-1.452-2.442-2.464c.792-1.056 1.474-2.266 2.09-3.498l-2.046-1.078c-.506 1.078-1.056 2.09-1.65 2.97l-2.64-2.684c2.046-.77 3.388-1.98 3.388-4.004v-.044c0-2.068-1.65-3.718-4.092-3.718-2.75 0-4.422 1.804-4.422 3.872v.044c0 1.122.396 2.09 1.276 3.212-2.112.902-3.278 2.332-3.278 4.312v.044c0 2.662 2.156 4.4 5.038 4.4 1.848 0 3.388-.77 4.708-2.002l2.046 2.09zm-6.094-9.658c-.858-.946-1.166-1.518-1.166-2.288v-.044c0-1.078.748-1.848 1.848-1.848 1.012 0 1.738.704 1.738 1.738v.044c0 1.1-.836 1.826-2.42 2.398zm-.396 7.326c-1.496 0-2.574-.946-2.574-2.244v-.044c0-.99.616-1.936 2.046-2.552l3.432 3.498c-.88.836-1.848 1.342-2.904 1.342zm17.734 2.024h2.706v-6.49h7.348v6.49h2.706v-15.4h-2.706v6.402h-7.348v-6.402h-2.706v15.4zm19.751.242c1.782 0 2.992-.748 3.784-1.694v1.452h2.596v-6.886c0-1.518-.396-2.75-1.254-3.586-.814-.836-2.112-1.298-3.85-1.298-1.848 0-3.102.374-4.378.946l.704 2.09c1.056-.44 2.024-.726 3.322-.726 1.87 0 2.882.88 2.882 2.53v.286a9.704 9.704 0 00-3.124-.484c-2.838 0-4.796 1.232-4.796 3.74v.044c0 2.332 1.936 3.586 4.114 3.586zm.748-1.936c-1.276 0-2.266-.638-2.266-1.76v-.044c0-1.21 1.012-1.936 2.728-1.936 1.056 0 1.958.198 2.64.462v.792c0 1.474-1.342 2.486-3.102 2.486zm8.974 1.694h2.662v-16.06h-2.662v16.06zm9.485.242c1.782 0 2.992-.748 3.784-1.694v1.452h2.596v-6.886c0-1.518-.396-2.75-1.254-3.586-.814-.836-2.112-1.298-3.85-1.298-1.848 0-3.102.374-4.378.946l.704 2.09c1.056-.44 2.024-.726 3.322-.726 1.87 0 2.882.88 2.882 2.53v.286a9.704 9.704 0 00-3.124-.484c-2.838 0-4.796 1.232-4.796 3.74v.044c0 2.332 1.936 3.586 4.114 3.586zm.748-1.936c-1.276 0-2.266-.638-2.266-1.76v-.044c0-1.21 1.012-1.936 2.728-1.936 1.056 0 1.958.198 2.64.462v.792c0 1.474-1.342 2.486-3.102 2.486zm8.974 1.694h2.662v-16.06h-2.662v16.06zm13.045 0h2.662v-11l4.818 7.216h.088l4.862-7.26v11.044h2.706v-15.4h-2.882l-4.686 7.282-4.686-7.282h-2.882v15.4zm24.116.264c2.134 0 3.652-.858 4.752-2.178l-1.562-1.386c-.924.902-1.848 1.386-3.146 1.386-1.716 0-3.058-1.056-3.344-2.948h8.536c.022-.264.044-.506.044-.748 0-3.344-1.87-6.248-5.566-6.248-3.322 0-5.676 2.728-5.676 6.05v.044c0 3.586 2.596 6.028 5.962 6.028zm-3.322-6.886c.242-1.804 1.386-3.058 3.014-3.058 1.76 0 2.772 1.342 2.948 3.058h-5.962zm14.619 6.864c1.782 0 2.992-.748 3.784-1.694v1.452h2.596v-6.886c0-1.518-.396-2.75-1.254-3.586-.814-.836-2.112-1.298-3.85-1.298-1.848 0-3.102.374-4.378.946l.704 2.09c1.056-.44 2.024-.726 3.322-.726 1.87 0 2.882.88 2.882 2.53v.286a9.704 9.704 0 00-3.124-.484c-2.838 0-4.796 1.232-4.796 3.74v.044c0 2.332 1.936 3.586 4.114 3.586zm.748-1.936c-1.276 0-2.266-.638-2.266-1.76v-.044c0-1.21 1.012-1.936 2.728-1.936 1.056 0 1.958.198 2.64.462v.792c0 1.474-1.342 2.486-3.102 2.486zm8.974 1.694h2.662v-16.06h-2.662v16.06zm10.123.22c2.42 0 4.312-1.21 4.312-3.652v-.044c0-2.09-1.914-2.86-3.608-3.388-1.364-.44-2.618-.792-2.618-1.65v-.044c0-.66.594-1.144 1.628-1.144.968 0 2.156.418 3.278 1.1l1.056-1.892c-1.232-.814-2.816-1.32-4.268-1.32-2.31 0-4.136 1.342-4.136 3.542v.044c0 2.222 1.914 2.926 3.63 3.41 1.364.418 2.596.726 2.596 1.628v.044c0 .77-.66 1.254-1.804 1.254-1.188 0-2.53-.484-3.806-1.43l-1.188 1.804c1.452 1.144 3.278 1.738 4.928 1.738zm-160.22 31.78h5.742c4.84 0 8.184-3.366 8.184-7.7v-.044c0-4.334-3.344-7.656-8.184-7.656h-5.742v15.4zm5.742-12.936c3.234 0 5.346 2.222 5.346 5.236v.044c0 3.014-2.112 5.192-5.346 5.192h-3.036v-10.472h3.036zm16.483 13.2c2.134 0 3.652-.858 4.752-2.178l-1.562-1.386c-.924.902-1.848 1.386-3.146 1.386-1.716 0-3.058-1.056-3.344-2.948h8.536c.022-.264.044-.506.044-.748 0-3.344-1.87-6.248-5.566-6.248-3.322 0-5.676 2.728-5.676 6.05v.044c0 3.586 2.596 6.028 5.962 6.028zm-3.322-6.886c.242-1.804 1.386-3.058 3.014-3.058 1.76 0 2.772 1.342 2.948 3.058h-5.962zm11.429 6.622h2.662v-16.06h-2.662v16.06zm6.185-13.398h2.86v-2.53h-2.86v2.53zm.11 13.398h2.662v-11.616h-2.662v11.616zm9.815.088h2.398l4.752-11.704h-2.794l-3.146 8.536-3.124-8.536h-2.86l4.774 11.704zm14.068.176c2.134 0 3.652-.858 4.752-2.178l-1.562-1.386c-.924.902-1.848 1.386-3.146 1.386-1.716 0-3.058-1.056-3.344-2.948h8.536c.022-.264.044-.506.044-.748 0-3.344-1.87-6.248-5.566-6.248-3.322 0-5.676 2.728-5.676 6.05v.044c0 3.586 2.596 6.028 5.962 6.028zm-3.322-6.886c.242-1.804 1.386-3.058 3.014-3.058 1.76 0 2.772 1.342 2.948 3.058h-5.962zm11.276 6.622h2.662v-4.422c0-3.08 1.628-4.598 3.96-4.598h.154v-2.816c-2.046-.088-3.388 1.1-4.114 2.838v-2.618h-2.662v11.616zm14.025.264c2.134 0 3.652-.858 4.752-2.178l-1.562-1.386c-.924.902-1.848 1.386-3.146 1.386-1.716 0-3.058-1.056-3.344-2.948h8.536c.022-.264.044-.506.044-.748 0-3.344-1.87-6.248-5.566-6.248-3.322 0-5.676 2.728-5.676 6.05v.044c0 3.586 2.596 6.028 5.962 6.028zm-3.322-6.886c.242-1.804 1.386-3.058 3.014-3.058 1.76 0 2.772 1.342 2.948 3.058h-5.962zm16.071 6.864c1.892 0 3.102-.968 3.96-2.178v1.936h2.662v-16.06h-2.662v6.248c-.836-1.1-2.046-2.046-3.96-2.046-2.772 0-5.39 2.178-5.39 6.028v.044c0 3.85 2.662 6.028 5.39 6.028zm.638-2.31c-1.804 0-3.344-1.474-3.344-3.718v-.044c0-2.31 1.518-3.718 3.344-3.718 1.782 0 3.366 1.474 3.366 3.718v.044c0 2.222-1.584 3.718-3.366 3.718z" fill="#000"/><path d="M158.003 264c44.183 0 80-35.817 80-80s-35.817-80-80-80c-44.182 0-80 35.817-80 80s35.818 80 80 80z" fill="#D4931B"/><path d="M130.358 167.017c2.285 1.577 9.371 6.377 12.457 7.292a7.78 7.78 0 004.628.365 6.744 6.744 0 014.789.515c1.143.537 2.537 1.142 4.126 1.874-2.377.948-5.12 1.988-8.263 3.086-5.44 1.897-12.572 4.88-15.44 6.857-.446.297-.4 1.371-.183 1.863l.343.731c.228.48 1.028 1.211 1.543 1.063 3.428-.96 10.285-4.469 15.188-7.417 3.429-2.08 6.537-3.76 9.143-5.109a103.986 103.986 0 018.777 4.686c4.937 2.937 11.772 6.434 15.155 7.394a1.226 1.226 0 001.36-.674l.297-.629a1.257 1.257 0 00-.366-1.474c-2.903-1.966-9.989-4.949-15.406-6.857-3.165-1.143-5.897-2.217-8.251-3.269 1.68-.845 3.143-1.554 4.377-2.125a6.703 6.703 0 015.566-.24c1.908 1.051 4.731 1.051 8.068-.515 4.983-2.285 8.789-6.994 7.417-9.943-1.371-2.948-7.405-3.028-12.377-.708-3.348 1.566-5.165 3.714-5.588 5.851a6.68 6.68 0 01-3.76 4.115c-1.555.731-3.497 1.6-5.863 2.582-2.069-.971-3.806-1.828-5.234-2.502a6.685 6.685 0 01-3.429-3.326c-.469-.903-.88-1.749-3.257-3.314-2.674-1.783-10.914-4.138-13.589-4.858-.514-.137-.548-.057-.068.183 0 0 7.371 3.532 9.805 4.755.138.068.48.251.366.491-.114.24-.468.091-.606 0-2.582-.903-10.182-3.966-10.182-3.966-.503-.194-.56-.068-.08.172 0 0 7.36 3.6 9.748 5.005.183.103.423.252.32.469-.103.217-.366.126-.571.057-2.606-.926-10.092-4.251-10.092-4.251-.491-.217-.56-.092-.091.171 0 0 7.234 3.852 9.588 5.246.126.08.458.297.355.503-.103.205-.469.091-.606 0-2.503-1.075-9.943-4.457-9.943-4.457-.571-.08-.617 0-.171.308z" fill="#fff"/><path d="M146.643 152.286v11.143c0 1.485 4.869 2.697 10.88 2.697 6.012 0 10.88-1.212 10.88-2.697v-11.098a5.402 5.402 0 004.464-5.762 5.403 5.403 0 00-5.332-4.969 5.334 5.334 0 00-3.12.994 7.285 7.285 0 00-11.076-3.431 7.277 7.277 0 00-2.638 3.523 5.405 5.405 0 10-4.035 9.657l-.023-.057zm-18.902 51.28h3.76v2.983h-1.166v2.617h6.423v-2.617h-1.143v-8.606h1.143v-2.606h-6.423v2.606h1.166v2.994h-3.76v-2.994h1.222v-2.606h-6.4v2.606h1.086v8.606h-1.086v2.617h6.4v-2.617h-1.222v-2.983zm17.565 5.577h7.932v-2.594h-1.383l-3.509-11.235h-7.588v2.549h.811l-2.674 8.686h-1.349v2.594h6.298v-2.594h-1.543l.411-1.349h4.057l.412 1.349h-1.875v2.594zm-1.862-6.309l1.291-4.274 1.303 4.274h-2.594zm10.582 3.692v2.64h11.075v-5.143h-3.315v2.503h-2.56v-8.583h1.052v-2.606h-6.252v2.606h1.086v8.583h-1.086zm19.623 2.617h7.932v-2.594h-1.383l-3.509-11.235h-7.588v2.549h.811l-2.674 8.686h-1.337v2.594h6.286v-2.594h-1.543l.411-1.349h4.092l.411 1.349h-1.874l-.035 2.594zm-1.862-6.309l1.291-4.274 1.303 4.274h-2.594zm18.342 1.189v2.503h-2.56v-8.583h1.052v-2.606h-6.252v2.606h1.086v8.583h-1.086v2.64h11.074v-5.143h-3.314zm-59.851 14.697h1.234v8.583h-1.234v2.628h7.36v-2.628h-2.012v-2.514h3.76v-2.629h-3.76v-3.44h2.983v1.76h3.497v-4.377h-11.828v2.617zm19.371-2.994c-4.091 0-6.948 2.948-6.948 7.223 0 4.948 2.948 7.337 7.085 7.337 4.469 0 6.96-2.732 6.96-7.2 0-4.469-2.251-7.36-7.097-7.36zm.137 11.428c-1.268 0-2.194-1.634-2.194-4.228 0-2.595.834-4.195 2.034-4.172 1.52 0 2.172 1.92 2.172 4.309 0 2.388-.766 4.114-2.012 4.114v-.023zm14.491-11.428c-4.091 0-6.937 2.948-6.937 7.223 0 4.948 2.949 7.337 7.086 7.337 4.469 0 6.96-2.732 6.96-7.2 0-4.469-2.263-7.36-7.109-7.36zm.149 11.428c-1.269 0-2.206-1.634-2.206-4.228 0-2.595.835-4.195 2.046-4.172 1.52 0 2.171 1.92 2.171 4.309 0 2.388-.765 4.114-2.011 4.114v-.023zm13.783-11.051h-6.034v2.617h1.223v8.583h-1.223v2.628h5.954c4.869 0 7.589-2.594 7.589-7.097 0-3.783-2.72-6.731-7.509-6.731zm0 11.2h-.777v-8.583h.754c2.092 0 2.96 1.989 2.96 4.114.023 2.469-.845 4.423-2.937 4.469z" fill="#fff"/><path d="M80 160c44.183 0 80-35.817 80-80S124.183 0 80 0 0 35.817 0 80s35.817 80 80 80z" fill="#AD2B09"/><path fill-rule="evenodd" clip-rule="evenodd" d="M44.366 82.983l3.063-2.64h1.222v-2.72h-7.028v2.72h1.52l-3.92 3.44v-3.44h1.131v-2.72h-6.64v2.72h1.143v9.28h-1.143v2.743h6.64v-2.743h-1.131V87.37l1.554-1.337 2.286 3.589h-1.44v2.743h8.229v-2.743h-1.223l-4.263-6.64zm13.737-5.76c-4.366 0-7.406 3.143-7.406 7.691 0 5.28 3.143 7.829 7.555 7.829 4.765 0 7.428-2.903 7.428-7.68 0-4.777-2.411-7.84-7.577-7.84zm.149 12.217c-1.349 0-2.343-1.76-2.343-4.571 0-2.812.88-4.469 2.171-4.446 1.623 0 2.286 2.046 2.286 4.571 0 2.526-.789 4.446-2.08 4.446h-.034zm12.194 1.303a5.714 5.714 0 004.411 1.943c2.503 0 5.589-1.143 5.589-4.48 0-4.949-8.355-4.446-8.355-6.617 0-.743.846-1.143 1.452-1.143a2.467 2.467 0 012.697 2.445h3.817v-5.268h-3.623l-.206 1.771a4.72 4.72 0 00-4.411-2.148c-2.069 0-5.029 1.406-5.029 4.571 0 5.383 8.103 4.686 8.103 6.332 0 .891-1.051 1.063-1.794 1.063-.743 0-2.651-.343-2.651-2.115h-3.932v5.315h3.692l.24-1.67zM96.64 80.412v-2.79h-6.857v2.79h1.245v3.177h-4v-3.177h1.303v-2.79h-6.834v2.79h1.166v9.177h-1.166v2.777h6.834v-2.777h-1.303V86.4h4v3.189h-1.245v2.777h6.857v-2.777h-1.223v-9.177h1.223zm1.063 0h1.325v9.154h-1.325v2.8h12.72V87.6h-3.658v1.966h-3.371v-3.44h4.011v-2.812h-4.011v-2.902h3.371v1.874h3.658v-4.663h-12.72v2.788zm27.166 7.668v.697c0 .423-.161.674-.481.674-.32 0-.502-.525-.502-1.428a3.206 3.206 0 00-2.743-2.994 3.21 3.21 0 003.051-3.063c0-2.4-.948-4.343-5.84-4.343h-6.857v2.766h1.143v9.142h-1.143v2.79h6.857v-2.79h-1.28v-3.268c1.875 0 2.103.468 2.103 2.388 0 2.47 1.337 3.92 4.091 3.92 2.343 0 3.086-1.622 3.086-3.428V88l-1.485.08zm-6.915-4.126h-.948v-3.588h1.051a1.705 1.705 0 011.943 1.92c0 1.074-.823 1.668-2.046 1.668zm-67.52 18.606h1.303v9.154h-1.303v2.8h7.852v-2.8h-2.16v-2.685h4.01v-2.8h-4.01v-3.669h3.188v1.874h3.737v-4.662H50.434v2.788zm20.652-3.131c-4.366 0-7.406 3.142-7.406 7.702 0 5.269 3.143 7.829 7.554 7.829 4.766 0 7.429-2.914 7.429-7.68s-2.411-7.851-7.577-7.851zm.148 12.217c-1.348 0-2.342-1.749-2.342-4.572s.891-4.48 2.171-4.457c1.623 0 2.286 2.046 2.286 4.572 0 2.525-.789 4.4-2.115 4.4v.057zm15.463-12.217c-4.365 0-7.406 3.142-7.406 7.702 0 5.269 3.143 7.829 7.555 7.829 4.766 0 7.428-2.914 7.428-7.68s-2.411-7.851-7.577-7.851zm.149 12.217c-1.349 0-2.343-1.749-2.343-4.572s.891-4.48 2.171-4.457c1.623 0 2.286 2.046 2.286 4.572 0 2.525-.788 4.4-2.103 4.4l-.011.057zm14.708-11.874H95.12v2.788h1.303v9.143H95.12v2.8h6.343c5.189 0 8.103-2.754 8.103-7.566 0-4.023-2.914-7.165-8.012-7.165zm0 11.942h-.811v-9.143h.811c2.229 0 3.166 2.126 3.166 4.389 0 2.617-.937 4.709-3.166 4.754zM47.829 51.246c3.348 1.142 7.691-.332 10.765.274 3.223 1.68 2.492 6.857 2.492 11.874 0 2.549-1.04 6.96 1.143 6.857 2.56-.068 1.383-5.851 1.383-9.931 0-3.772.697-8.8-.275-11.04a5.393 5.393 0 00-3.314-2.766c-1.737-.617-6.252 0-9.383 0-1.36.069-.743-1.828-2.491-1.383-1.943 1.109-2.435 5.395-.32 6.115zm20.994.4a1.04 1.04 0 01.297 1.063c-1.851 5.211.64 11.131 1.874 16.251a1.943 1.943 0 001.692 1.486 62.16 62.16 0 009.668 0 1.954 1.954 0 001.703-1.452 55.148 55.148 0 013.795-11.097c.788-1.497 2.217-2.708 2.765-3.874 2.286-4.914 0-9.257-4.137-8.274-4.137.982-.811 4.765 1.143 6.445a.95.95 0 01.286 1.086c-1.772 4.24-4.24 7.794-6.32 11.726a1.382 1.382 0 01-.983.743 10.286 10.286 0 01-3.931-.149.662.662 0 01-.39-.903c1.51-3.737 3.235-7.257 3.567-12.171a.789.789 0 01.72-.72 2.743 2.743 0 001.211-4.949c-2.994-1.806-6.857-2.606-6.069 1.943.195 1.211 1.143 1.474 1.852 2.423a1.474 1.474 0 01.183 1.257c-1.143 4.4-2.092 9.063-4.4 12.343a.377.377 0 01-.652-.114 27.909 27.909 0 01-1.463-12.218 1.142 1.142 0 01.595-1.051 5.424 5.424 0 011.006-.183 1.691 1.691 0 001.29-1.886c-.205-3.097-3.073-3.908-5.588-3.611-3.234.343-1.348 4.309.286 5.886zM104.137 65.6c-3.52.994-8.457-1.657-9.931.274-.915 1.143-1.612 2.652-.835 4.137 1.018 1.92 12.675.835 14.915-2.48 2.491-6.091 3.257-19.177-3.863-20.982-1.829-.458-4.32.457-6.354 0-1.143-.24-1.406-1.829-2.755-1.143-2.091.685-1.645 4.983 0 5.794 3.532.629 7.063-.972 9.657.274 4.16 2.046 3.075 13.017-.834 14.126z" fill="#fff"/></svg>