<svg width="593" height="356" fill="none" xmlns="http://www.w3.org/2000/svg"><rect width="593" height="356" rx="12" fill="#fff"/><g clip-path="url(#clip0_649_7376)"><path d="M289.726 158.615a3.388 3.388 0 01-2.871-1.59l-16.935-27.077a3.377 3.377 0 01-.229-3.153 3.385 3.385 0 012.477-1.967l108.387-20.307a3.39 3.39 0 013.493 1.531l16.936 27.077a3.385 3.385 0 01-2.249 5.119l-108.387 20.308a3.021 3.021 0 01-.622.059zm-11.432-28.05l13.079 20.913 101.236-18.966-13.078-20.913-101.237 18.966z" fill="#443A3D"/><path d="M249.081 155.231a3.416 3.416 0 01-1.359-.284l-54.194-23.692a3.387 3.387 0 01-1.882-4.104 3.397 3.397 0 01.845-1.396l23.709-23.692a3.391 3.391 0 013.756-.707l54.194 23.692a3.393 3.393 0 011.974 2.476 3.375 3.375 0 01-.937 3.024l-23.71 23.693a3.387 3.387 0 01-2.396.99zm-48.292-28.19l47.53 20.777 18.569-18.551-47.529-20.778-18.57 18.552z" fill="#443A3D"/><path d="M272.79 206a3.436 3.436 0 01-1.359-.283l-54.193-23.693a3.386 3.386 0 01-2.029-3.101v-27.077a3.385 3.385 0 015.783-2.393c.635.635.992 1.496.992 2.393v24.864l51.23 22.385 104.576-19.597v-27.652a3.385 3.385 0 013.387-3.384 3.385 3.385 0 013.387 3.384v30.462a3.385 3.385 0 01-2.764 3.325l-108.387 20.308a3.432 3.432 0 01-.623.059z" fill="#443A3D"/><path d="M272.79 206a3.386 3.386 0 01-3.387-3.385v-54.153a3.386 3.386 0 015.782-2.394c.636.635.993 1.496.993 2.394v54.153A3.39 3.39 0 01272.79 206z" fill="#443A3D"/><path d="M340.532 53.692H320.21a3.389 3.389 0 01-3.387-3.384V33.385A3.384 3.384 0 01320.21 30h20.322a3.387 3.387 0 013.388 3.385v16.923a3.387 3.387 0 01-3.388 3.385zm-16.935-6.769h13.548V36.77h-13.548v10.154z" fill="#34AA96"/><path d="M360.855 87.538h-20.323a3.388 3.388 0 01-3.387-3.384V70.615a3.384 3.384 0 013.387-3.384h20.323a3.389 3.389 0 013.387 3.384v13.539a3.384 3.384 0 01-3.387 3.385zm-16.936-6.769h13.549V74h-13.549v6.77z" fill="#D56418"/><path d="M367.629 101.077a3.386 3.386 0 01-3.387-3.385v-2.585a8.814 8.814 0 00-4.903-7.924 3.386 3.386 0 01.444-6.242 3.39 3.39 0 012.587.184 15.561 15.561 0 016.317 5.748 15.539 15.539 0 012.329 8.213v2.606a3.386 3.386 0 01-3.387 3.385zm-33.871 6.769a3.387 3.387 0 01-3.387-3.384v-9.355a15.539 15.539 0 012.329-8.213 15.56 15.56 0 016.317-5.748 3.39 3.39 0 014.731 4.1 3.39 3.39 0 01-1.7 1.958 8.814 8.814 0 00-4.903 7.903v9.355a3.385 3.385 0 01-3.387 3.384z" fill="#D56418"/><path d="M347.307 60.462a3.384 3.384 0 01-3.388-3.385 2.074 2.074 0 00-1.155-1.87l-3.747-1.87a3.396 3.396 0 01-1.7-1.958 3.375 3.375 0 01.995-3.63 3.382 3.382 0 012.461-.82c.444.032.877.15 1.275.35l3.743 1.874a8.815 8.815 0 014.903 7.924 3.384 3.384 0 01-3.387 3.385zm-33.872 0a3.384 3.384 0 01-3.387-3.385 8.815 8.815 0 014.903-7.924l3.743-1.874a3.39 3.39 0 014.547 1.514 3.386 3.386 0 01-1.516 4.544l-3.747 1.87a2.074 2.074 0 00-1.155 1.87 3.384 3.384 0 01-3.388 3.385zm-13.548 54.153a3.387 3.387 0 01-3.387-3.384V77.385a3.382 3.382 0 012.722-3.317l16.936-3.385A3.388 3.388 0 01320.21 74v33.846a3.39 3.39 0 01-5.782 2.393 3.378 3.378 0 01-.993-2.393V78.129l-10.161 2.031v31.071a3.385 3.385 0 01-3.387 3.384z" fill="#34AA96"/><path d="M316.822 77.385a3.385 3.385 0 01-1.989-.648l-36.056-26.205-12.757 2.538v7.392a3.384 3.384 0 01-3.387 3.384 3.388 3.388 0 01-3.387-3.384V50.308a3.388 3.388 0 012.722-3.317l16.936-3.385a3.387 3.387 0 012.659.58l37.258 27.077a3.386 3.386 0 01-.005 5.478c-.58.42-1.278.645-1.994.644z" fill="#34AA96"/><path d="M299.887 80.77a3.39 3.39 0 01-1.99-.648l-37.258-27.077a3.394 3.394 0 01-1.353-2.21 3.392 3.392 0 01.608-2.52 3.385 3.385 0 013.533-1.299 3.4 3.4 0 011.201.554l37.258 27.077a3.386 3.386 0 01-1.999 6.122zM272.79 90.923h-40.645a3.388 3.388 0 01-3.387-3.385V74a3.384 3.384 0 013.387-3.385h40.645A3.388 3.388 0 01276.177 74v13.538a3.384 3.384 0 01-3.387 3.385zm-37.258-6.77h33.871v-6.768h-33.871v6.769z" fill="#34AA96"/><path d="M276.177 118a3.386 3.386 0 01-3.387-3.385v-5.969a8.799 8.799 0 00-4.903-7.924 3.392 3.392 0 01-1.871-3.03V87.54a3.384 3.384 0 013.387-3.385 3.387 3.387 0 013.387 3.385v8.228a15.533 15.533 0 016.775 12.879v5.969a3.39 3.39 0 01-3.388 3.385zm-43.211-15.201a3.392 3.392 0 01-3.277-4.203 3.386 3.386 0 011.046-1.72 15.2 15.2 0 011.41-1.092v-8.246a3.384 3.384 0 013.387-3.384 3.389 3.389 0 013.387 3.385v10.153a3.383 3.383 0 01-1.871 3.03 8.716 8.716 0 00-1.855 1.239 3.388 3.388 0 01-2.227.838z" fill="#34AA96"/></g><path d="M35.286 272.28h6.876V246.9h-5.076l-7.38 2.088 1.332 5.4 4.248-1.008v18.9zm10.508 0h19.944v-5.688H55.334l4.32-3.024c3.744-2.7 5.832-4.788 5.832-8.82v-.072c0-4.752-3.78-8.028-9.288-8.028-4.86 0-7.56 1.908-10.26 5.4l4.716 3.924c1.98-2.268 3.312-3.276 5.004-3.276 1.728 0 2.844.972 2.844 2.592 0 1.512-.936 2.7-3.276 4.536l-9.432 7.2v5.256zm32.616.432c6.048 0 10.368-2.916 10.368-7.452v-.072c0-3.096-1.764-4.788-4.32-5.976 1.944-1.08 3.456-2.772 3.456-5.508v-.072c0-3.996-3.852-6.984-9.504-6.984-5.652 0-9.468 2.988-9.468 6.984v.072c0 2.736 1.512 4.428 3.42 5.508-2.7 1.152-4.284 2.988-4.284 6.048v.072c0 4.392 4.284 7.38 10.332 7.38zm0-15.408c-1.872 0-3.096-1.188-3.096-2.772v-.072c0-1.404 1.188-2.664 3.096-2.664 1.944 0 3.132 1.26 3.132 2.664v.072c0 1.584-1.26 2.772-3.132 2.772zm0 10.188c-2.34 0-3.636-1.332-3.636-2.844v-.072c0-1.656 1.512-2.772 3.636-2.772 2.16 0 3.636 1.116 3.636 2.772v.072c0 1.512-1.296 2.844-3.636 2.844zm12.92 4.788h7.092v-7.02H91.33v7.02zm10.176 0h7.704l11.124-19.944v-5.256H100.93v5.868h11.664l-11.088 19.332zm31.701 0h6.84v-10.584c0-2.124 1.152-3.276 2.772-3.276 1.62 0 2.7 1.152 2.7 3.276v10.584h6.804v-10.584c0-2.124 1.188-3.276 2.808-3.276 1.62 0 2.664 1.152 2.664 3.276v10.584h6.84V259.5c0-4.536-2.52-7.128-6.66-7.128-2.844 0-4.824 1.224-6.516 3.168-1.044-2.016-3.024-3.168-5.616-3.168-2.736 0-4.536 1.476-5.796 3.096v-2.664h-6.84v19.476zm34.981-21.24h7.093V246h-7.093v5.04zm.145 21.24h6.804v-19.476h-6.804v19.476zm10.828 0h6.804V246h-6.804v26.28zm10.828 0h6.804V246h-6.804v26.28zm10.684-21.24h7.092V246h-7.092v5.04zm.144 21.24h6.804v-19.476h-6.804v19.476zm20.584.468c6.264 0 10.8-4.644 10.8-10.188v-.072c0-5.544-4.5-10.116-10.728-10.116s-10.764 4.644-10.764 10.188v.072c0 5.544 4.5 10.116 10.692 10.116zm.072-5.796c-2.412 0-4.14-2.016-4.14-4.392v-.072c0-2.376 1.584-4.356 4.068-4.356 2.412 0 4.176 2.016 4.176 4.428v.072c0 2.34-1.62 4.32-4.104 4.32zm13.617 5.328h6.84v-10.548c0-2.16 1.224-3.312 2.88-3.312s2.772 1.152 2.772 3.312v10.548h6.804v-12.744c0-4.428-2.484-7.164-6.624-7.164-2.772 0-4.572 1.548-5.832 3.168v-2.736h-6.84v19.476z" fill="#34AA96"/><path d="M276.49 271.584c1.036 0 1.848-.224 2.604-.616v-1.848c-.756.364-1.372.504-2.1.504-1.456 0-2.436-.644-2.436-2.408v-8.456h4.592v-1.904h-4.592v-4.368h-2.156v4.368h-2.016v1.904h2.016v8.736c0 2.94 1.764 4.088 4.088 4.088zm12.674.084c4.368 0 7.588-3.472 7.588-7.56v-.056c0-4.088-3.192-7.504-7.532-7.504-4.368 0-7.56 3.472-7.56 7.56v.056c0 4.088 3.164 7.504 7.504 7.504zm.056-1.932c-3.052 0-5.348-2.52-5.348-5.628v-.056c0-3.052 2.156-5.6 5.292-5.6 3.052 0 5.376 2.548 5.376 5.656v.056c0 3.052-2.184 5.572-5.32 5.572zm16.282 1.848c1.036 0 1.848-.224 2.604-.616v-1.848c-.756.364-1.372.504-2.1.504-1.456 0-2.436-.644-2.436-2.408v-8.456h4.592v-1.904h-4.592v-4.368h-2.156v4.368h-2.016v1.904h2.016v8.736c0 2.94 1.764 4.088 4.088 4.088zm10.788.056c2.548 0 4.228-1.176 5.236-2.492v2.184h2.072v-8.848c0-1.848-.504-3.248-1.484-4.228-1.064-1.064-2.632-1.596-4.676-1.596-2.1 0-3.668.476-5.264 1.204l.644 1.764c1.344-.616 2.688-1.064 4.396-1.064 2.716 0 4.312 1.344 4.312 3.948v.504a15.37 15.37 0 00-4.452-.616c-3.668 0-6.188 1.624-6.188 4.676v.056c0 2.968 2.716 4.508 5.404 4.508zm.42-1.708c-1.96 0-3.64-1.064-3.64-2.884v-.056c0-1.82 1.512-2.996 4.228-2.996a15.1 15.1 0 014.256.616v1.4c0 2.296-2.184 3.92-4.844 3.92zm11.679 1.4h2.156v-20.44h-2.156v20.44zm15.554 0h2.156v-8.26c0-2.66 1.736-4.564 4.032-4.564 2.296 0 3.724 1.596 3.724 4.312v8.512h2.156v-8.344c0-2.856 1.792-4.48 3.976-4.48 2.352 0 3.752 1.568 3.752 4.368v8.456h2.156v-8.96c0-3.584-2.044-5.824-5.376-5.824-2.52 0-4.06 1.288-5.096 2.884-.784-1.624-2.296-2.884-4.648-2.884-2.436 0-3.724 1.316-4.676 2.744v-2.436h-2.156v14.476zm32.961.336c2.744 0 4.508-1.092 5.964-2.716l-1.344-1.204c-1.176 1.232-2.576 2.044-4.564 2.044-2.576 0-4.788-1.764-5.096-4.9h11.48c.028-.252.028-.42.028-.7 0-4.228-2.464-7.644-6.748-7.644-4.004 0-6.944 3.36-6.944 7.532v.056c0 4.48 3.248 7.532 7.224 7.532zm-5.04-8.372c.28-2.828 2.184-4.928 4.704-4.928 2.884 0 4.396 2.296 4.62 4.928h-9.324zm19.594 8.344c2.548 0 4.228-1.176 5.236-2.492v2.184h2.072v-8.848c0-1.848-.504-3.248-1.484-4.228-1.064-1.064-2.632-1.596-4.676-1.596-2.1 0-3.668.476-5.264 1.204l.644 1.764c1.344-.616 2.688-1.064 4.396-1.064 2.716 0 4.312 1.344 4.312 3.948v.504a15.37 15.37 0 00-4.452-.616c-3.668 0-6.188 1.624-6.188 4.676v.056c0 2.968 2.716 4.508 5.404 4.508zm.42-1.708c-1.96 0-3.64-1.064-3.64-2.884v-.056c0-1.82 1.512-2.996 4.228-2.996a15.1 15.1 0 014.256.616v1.4c0 2.296-2.184 3.92-4.844 3.92zm11.679 1.4h2.156v-20.44h-2.156v20.44zm11.948.28c2.884 0 5.152-1.596 5.152-4.34v-.056c0-2.604-2.408-3.472-4.648-4.144-1.932-.588-3.724-1.12-3.724-2.492v-.056c0-1.204 1.092-2.1 2.8-2.1 1.4 0 2.94.532 4.284 1.4l.98-1.624c-1.484-.98-3.444-1.596-5.208-1.596-2.856 0-4.928 1.652-4.928 4.144v.056c0 2.66 2.52 3.444 4.788 4.088 1.904.532 3.612 1.092 3.612 2.548v.056c0 1.4-1.26 2.296-2.996 2.296-1.708 0-3.444-.672-5.012-1.848l-1.092 1.54c1.624 1.316 3.92 2.128 5.992 2.128zm23.627.028c2.66 0 4.368-1.484 5.544-3.22v2.912h2.156v-20.44h-2.156v8.736c-1.12-1.624-2.856-3.08-5.544-3.08-3.472 0-6.916 2.8-6.916 7.532v.056c0 4.76 3.444 7.504 6.916 7.504zm.392-1.932c-2.716 0-5.096-2.184-5.096-5.6v-.056c0-3.5 2.296-5.572 5.096-5.572 2.688 0 5.236 2.24 5.236 5.572v.056c0 3.332-2.548 5.6-5.236 5.6zm18.454 1.96c2.744 0 4.508-1.092 5.964-2.716l-1.344-1.204c-1.176 1.232-2.576 2.044-4.564 2.044-2.576 0-4.788-1.764-5.096-4.9h11.48c.028-.252.028-.42.028-.7 0-4.228-2.464-7.644-6.748-7.644-4.004 0-6.944 3.36-6.944 7.532v.056c0 4.48 3.248 7.532 7.224 7.532zm-5.04-8.372c.28-2.828 2.184-4.928 4.704-4.928 2.884 0 4.396 2.296 4.62 4.928h-9.324zm15.478 8.036h2.156v-20.44h-2.156v20.44zm7.216-17.64h2.464v-2.38h-2.464v2.38zm.14 17.64h2.156v-14.476h-2.156v14.476zm12.003.112h1.904l6.3-14.588h-2.324l-4.9 12.012-4.872-12.012h-2.38l6.272 14.588zm17.07.224c2.744 0 4.508-1.092 5.964-2.716l-1.344-1.204c-1.176 1.232-2.576 2.044-4.564 2.044-2.576 0-4.788-1.764-5.096-4.9h11.48c.028-.252.028-.42.028-.7 0-4.228-2.464-7.644-6.748-7.644-4.004 0-6.944 3.36-6.944 7.532v.056c0 4.48 3.248 7.532 7.224 7.532zm-5.04-8.372c.28-2.828 2.184-4.928 4.704-4.928 2.884 0 4.396 2.296 4.62 4.928h-9.324zm15.283 8.036h2.156v-5.768c0-4.368 2.576-6.636 5.74-6.636h.168v-2.324c-2.744-.112-4.844 1.624-5.908 4.032v-3.78h-2.156v14.476zm17.046.336c2.744 0 4.508-1.092 5.964-2.716l-1.344-1.204c-1.176 1.232-2.576 2.044-4.564 2.044-2.576 0-4.788-1.764-5.096-4.9h11.48c.028-.252.028-.42.028-.7 0-4.228-2.464-7.644-6.748-7.644-4.004 0-6.944 3.36-6.944 7.532v.056c0 4.48 3.248 7.532 7.224 7.532zm-5.04-8.372c.28-2.828 2.184-4.928 4.704-4.928 2.884 0 4.396 2.296 4.62 4.928h-9.324zm21.359 8.344c2.66 0 4.368-1.484 5.544-3.22v2.912h2.156v-20.44h-2.156v8.736c-1.12-1.624-2.856-3.08-5.544-3.08-3.472 0-6.916 2.8-6.916 7.532v.056c0 4.76 3.444 7.504 6.916 7.504zm.392-1.932c-2.716 0-5.096-2.184-5.096-5.6v-.056c0-3.5 2.296-5.572 5.096-5.572 2.688 0 5.236 2.24 5.236 5.572v.056c0 3.332-2.548 5.6-5.236 5.6zm11.341 5.04c2.128-.476 3.108-1.568 3.108-3.836v-2.52h-2.576v2.94h1.008c.112 1.204-.476 1.932-1.876 2.436l.336.98z" fill="#443A3D"/><path d="M51.601 325.28h19.944v-5.688H61.141l4.32-3.024c3.744-2.7 5.832-4.788 5.832-8.82v-.072c0-4.752-3.78-8.028-9.288-8.028-4.86 0-7.56 1.908-10.26 5.4l4.716 3.924c1.98-2.268 3.312-3.276 5.004-3.276 1.728 0 2.844.972 2.844 2.592 0 1.512-.936 2.7-3.276 4.536l-9.432 7.2v5.256zm23.333 0h7.704l11.124-19.944v-5.256H74.358v5.868h11.664L74.934 325.28zm31.702 0h6.84v-10.584c0-2.124 1.152-3.276 2.772-3.276 1.62 0 2.7 1.152 2.7 3.276v10.584h6.804v-10.584c0-2.124 1.188-3.276 2.808-3.276 1.62 0 2.664 1.152 2.664 3.276v10.584h6.84V312.5c0-4.536-2.52-7.128-6.66-7.128-2.844 0-4.824 1.224-6.516 3.168-1.044-2.016-3.024-3.168-5.616-3.168-2.736 0-4.536 1.476-5.796 3.096v-2.664h-6.84v19.476zm34.981-21.24h7.092V299h-7.092v5.04zm.144 21.24h6.804v-19.476h-6.804v19.476zm10.828 0h6.804V299h-6.804v26.28zm10.828 0h6.804V299h-6.804v26.28zm10.684-21.24h7.092V299h-7.092v5.04zm.144 21.24h6.804v-19.476h-6.804v19.476zm20.585.468c6.264 0 10.8-4.644 10.8-10.188v-.072c0-5.544-4.5-10.116-10.728-10.116s-10.764 4.644-10.764 10.188v.072c0 5.544 4.5 10.116 10.692 10.116zm.072-5.796c-2.412 0-4.14-2.016-4.14-4.392v-.072c0-2.376 1.584-4.356 4.068-4.356 2.412 0 4.176 2.016 4.176 4.428v.072c0 2.34-1.62 4.32-4.104 4.32zm13.617 5.328h6.84v-10.548c0-2.16 1.224-3.312 2.88-3.312s2.772 1.152 2.772 3.312v10.548h6.804v-12.744c0-4.428-2.484-7.164-6.624-7.164-2.772 0-4.572 1.548-5.832 3.168v-2.736h-6.84v19.476z" fill="#D56418"/><path d="M248.882 325.524h1.904l3.92-11.424 3.892 11.424h1.876l5.096-14.588h-2.24l-3.808 11.62-3.92-11.676h-1.792l-3.892 11.676-3.808-11.62h-2.296l5.068 14.588zm25.899.224c2.744 0 4.508-1.092 5.964-2.716l-1.344-1.204c-1.176 1.232-2.576 2.044-4.564 2.044-2.576 0-4.788-1.764-5.096-4.9h11.48c.028-.252.028-.42.028-.7 0-4.228-2.464-7.644-6.748-7.644-4.004 0-6.944 3.36-6.944 7.532v.056c0 4.48 3.248 7.532 7.224 7.532zm-5.04-8.372c.28-2.828 2.184-4.928 4.704-4.928 2.884 0 4.396 2.296 4.62 4.928h-9.324zm15.282 8.036h2.156v-5.768c0-4.368 2.576-6.636 5.74-6.636h.168v-2.324c-2.744-.112-4.844 1.624-5.908 4.032v-3.78h-2.156v14.476zm17.047.336c2.744 0 4.508-1.092 5.964-2.716l-1.344-1.204c-1.176 1.232-2.576 2.044-4.564 2.044-2.576 0-4.788-1.764-5.096-4.9h11.48c.028-.252.028-.42.028-.7 0-4.228-2.464-7.644-6.748-7.644-4.004 0-6.944 3.36-6.944 7.532v.056c0 4.48 3.248 7.532 7.224 7.532zm-5.04-8.372c.28-2.828 2.184-4.928 4.704-4.928 2.884 0 4.396 2.296 4.62 4.928h-9.324zm23.677 8.036h2.156v-3.78l2.94-2.968 5.18 6.748h2.576l-6.272-8.26 6.076-6.216h-2.688l-7.812 8.148v-14.112h-2.156v20.44zm21.838.336c4.368 0 7.588-3.472 7.588-7.56v-.056c0-4.088-3.192-7.504-7.532-7.504-4.368 0-7.56 3.472-7.56 7.56v.056c0 4.088 3.164 7.504 7.504 7.504zm.056-1.932c-3.052 0-5.348-2.52-5.348-5.628v-.056c0-3.052 2.156-5.6 5.292-5.6 3.052 0 5.376 2.548 5.376 5.656v.056c0 3.052-2.184 5.572-5.32 5.572zm16.226 1.876c2.884 0 5.152-1.596 5.152-4.34v-.056c0-2.604-2.408-3.472-4.648-4.144-1.932-.588-3.724-1.12-3.724-2.492v-.056c0-1.204 1.092-2.1 2.8-2.1 1.4 0 2.94.532 4.284 1.4l.98-1.624c-1.484-.98-3.444-1.596-5.208-1.596-2.856 0-4.928 1.652-4.928 4.144v.056c0 2.66 2.52 3.444 4.788 4.088 1.904.532 3.612 1.092 3.612 2.548v.056c0 1.4-1.26 2.296-2.996 2.296-1.708 0-3.444-.672-5.012-1.848l-1.092 1.54c1.624 1.316 3.92 2.128 5.992 2.128zm9.157-.28h2.156v-8.288c0-2.716 1.848-4.536 4.34-4.536 2.548 0 4.004 1.68 4.004 4.368v8.456h2.156v-8.988c0-3.444-2.044-5.796-5.544-5.796-2.492 0-4.004 1.26-4.956 2.828v-8.484h-2.156v20.44zm23.582.336c2.744 0 4.508-1.092 5.964-2.716l-1.344-1.204c-1.176 1.232-2.576 2.044-4.564 2.044-2.576 0-4.788-1.764-5.096-4.9h11.48c.028-.252.028-.42.028-.7 0-4.228-2.464-7.644-6.748-7.644-4.004 0-6.944 3.36-6.944 7.532v.056c0 4.48 3.248 7.532 7.224 7.532zm-5.04-8.372c.28-2.828 2.184-4.928 4.704-4.928 2.884 0 4.396 2.296 4.62 4.928h-9.324zm15.282 8.036h2.156v-5.768c0-4.368 2.576-6.636 5.74-6.636h.168v-2.324c-2.744-.112-4.844 1.624-5.908 4.032v-3.78h-2.156v14.476zm24.054.308c2.548 0 4.228-1.176 5.236-2.492v2.184h2.072v-8.848c0-1.848-.504-3.248-1.484-4.228-1.064-1.064-2.632-1.596-4.676-1.596-2.1 0-3.668.476-5.264 1.204l.644 1.764c1.344-.616 2.688-1.064 4.396-1.064 2.716 0 4.312 1.344 4.312 3.948v.504a15.37 15.37 0 00-4.452-.616c-3.668 0-6.188 1.624-6.188 4.676v.056c0 2.968 2.716 4.508 5.404 4.508zm.42-1.708c-1.96 0-3.64-1.064-3.64-2.884v-.056c0-1.82 1.512-2.996 4.228-2.996a15.1 15.1 0 014.256.616v1.4c0 2.296-2.184 3.92-4.844 3.92zm11.483 1.4h2.156v-8.288c0-2.716 1.848-4.536 4.34-4.536 2.548 0 4.004 1.68 4.004 4.368v8.456h2.156v-8.988c0-3.444-2.044-5.796-5.544-5.796-2.492 0-4.004 1.26-4.956 2.828v-2.52h-2.156v14.476zm23.33.308c2.66 0 4.368-1.484 5.544-3.22v2.912h2.156v-20.44h-2.156v8.736c-1.12-1.624-2.856-3.08-5.544-3.08-3.472 0-6.916 2.8-6.916 7.532v.056c0 4.76 3.444 7.504 6.916 7.504zm.392-1.932c-2.716 0-5.096-2.184-5.096-5.6v-.056c0-3.5 2.296-5.572 5.096-5.572 2.688 0 5.236 2.24 5.236 5.572v.056c0 3.332-2.548 5.6-5.236 5.6zm20.52 1.624h2.156v-8.288c0-2.716 1.848-4.536 4.34-4.536 2.548 0 4.004 1.68 4.004 4.368v8.456h2.156v-8.988c0-3.444-2.044-5.796-5.544-5.796-2.492 0-4.004 1.26-4.956 2.828v-8.484h-2.156v20.44zm21.566.308c2.548 0 4.228-1.176 5.236-2.492v2.184h2.072v-8.848c0-1.848-.504-3.248-1.484-4.228-1.064-1.064-2.632-1.596-4.676-1.596-2.1 0-3.668.476-5.264 1.204l.644 1.764c1.344-.616 2.688-1.064 4.396-1.064 2.716 0 4.312 1.344 4.312 3.948v.504a15.37 15.37 0 00-4.452-.616c-3.668 0-6.188 1.624-6.188 4.676v.056c0 2.968 2.716 4.508 5.404 4.508zm.42-1.708c-1.96 0-3.64-1.064-3.64-2.884v-.056c0-1.82 1.512-2.996 4.228-2.996a15.1 15.1 0 014.256.616v1.4c0 2.296-2.184 3.92-4.844 3.92zm11.679 1.4h2.156v-20.44h-2.156v20.44zm11.472.308c2.548 0 4.228-1.176 5.236-2.492v2.184h2.072v-8.848c0-1.848-.504-3.248-1.484-4.228-1.064-1.064-2.632-1.596-4.676-1.596-2.1 0-3.668.476-5.264 1.204l.644 1.764c1.344-.616 2.688-1.064 4.396-1.064 2.716 0 4.312 1.344 4.312 3.948v.504a15.37 15.37 0 00-4.452-.616c-3.668 0-6.188 1.624-6.188 4.676v.056c0 2.968 2.716 4.508 5.404 4.508zm.42-1.708c-1.96 0-3.64-1.064-3.64-2.884v-.056c0-1.82 1.512-2.996 4.228-2.996a15.1 15.1 0 014.256.616v1.4c0 2.296-2.184 3.92-4.844 3.92zm11.678 1.4h2.156v-20.44h-2.156v20.44z" fill="#443A3D"/><defs><clipPath id="clip0_649_7376"><path fill="#fff" transform="translate(191.5 30)" d="M0 0h210v176H0z"/></clipPath></defs></svg>