<svg version="1.1" id="Layer_1" xmlns="http://www.w3.org/2000/svg" x="0" y="0" viewBox="0 0 176.5 87.4" xml:space="preserve"><style>.st0{fill:#000}.st1{fill:#33a995}</style><path class="st0" d="M88.2 10.9c-4.5 0-6.6 3.3-6.6 6.7 0 2 .3 11.7 6.6 11.7s6.6-9.7 6.6-11.7c0-3.3-2-6.7-6.6-6.7m0 23.6c-4 0-7.4-2.1-9.4-5.9-2-3.7-2.4-8-2.4-11.1 0-5.9 4.1-11.9 11.8-11.9s11.8 6 11.8 11.9c0 3-.4 7.4-2.4 11.1-2 3.8-5.3 5.9-9.4 5.9"/><path class="st0" d="M100.9 36.3c-.2 0-.5 0-.7-.1-3.8-1.1-8.2-1.7-12-1.7-3.7 0-8.2.6-12 1.7-1.4.4-2.8-.4-3.2-1.8-.4-1.4.4-2.8 1.8-3.2C79 30 84 29.3 88.2 29.3s9.2.7 13.4 1.9c1.4.4 2.2 1.8 1.8 3.2-.3 1.2-1.3 1.9-2.5 1.9"/><path class="st1" d="M117.2 34.5c-4.5 0-6.6 3.3-6.6 6.7 0 2 .3 11.7 6.6 11.7s6.6-9.7 6.6-11.7c-.1-3.3-2.1-6.7-6.6-6.7m0 23.6c-4 0-7.4-2.1-9.4-5.9-2-3.7-2.4-8-2.4-11.1 0-5.9 4.1-11.9 11.8-11.9 7.8 0 11.8 6 11.8 11.9 0 3-.4 7.4-2.4 11.1-2.1 3.8-5.4 5.9-9.4 5.9"/><path class="st0" d="M59.3 34.5c-4.5 0-6.6 3.3-6.6 6.7 0 2 .3 11.7 6.6 11.7s6.6-9.7 6.6-11.7c0-3.3-2-6.7-6.6-6.7m0 23.6c-4 0-7.4-2.1-9.4-5.9-2-3.7-2.4-8-2.4-11.1 0-5.9 4.1-11.9 11.8-11.9s11.8 6 11.8 11.9c0 3-.4 7.4-2.4 11.1-2 3.8-5.4 5.9-9.4 5.9"/><path class="st1" d="M140.8 81.7c-1.5 0-2.6-1.2-2.6-2.6V66c0-4.2-11.6-7.9-21-7.9s-21 3.6-21 7.9v13.1c0 1.4-1.2 2.6-2.6 2.6-1.5 0-2.6-1.2-2.6-2.6V66c0-9.9 17.7-13.1 26.3-13.1s26.3 3.2 26.3 13.1v13.1c-.2 1.4-1.3 2.6-2.8 2.6"/><path class="st0" d="M83 81.7c-1.5 0-2.6-1.2-2.6-2.6V66c0-4.2-11.6-7.9-21-7.9s-21 3.6-21 7.9v13.1c0 1.4-1.2 2.6-2.6 2.6-1.5 0-2.6-1.2-2.6-2.6V66c0-9.9 17.7-13.1 26.3-13.1S85.6 56.1 85.6 66v13.1c0 1.4-1.2 2.6-2.6 2.6M146.3 11c-3.6 0-5.7 2.8-6.2 5.6-.3 1.9-1.7 11.6 4.5 12.6.3.1.7.1 1 .1 4.2 0 6.6-5.4 7.5-10.5.6-3.3-.9-6.9-5.3-7.7-.6-.1-1.1-.1-1.5-.1m-.8 23.5c-.6 0-1.3-.1-1.9-.2-4-.7-6.9-3.3-8.3-7.4-1.3-3.9-1-8.3-.5-11.3 1-5.8 5.7-9.9 11.4-9.9.7 0 1.5.1 2.3.2 7.7 1.3 10.6 7.9 9.6 13.7-1.6 9.3-6.3 14.9-12.6 14.9M30.2 11c-.4 0-.9 0-1.4.1-4.5.8-5.9 4.4-5.3 7.7.9 5.1 3.3 10.5 7.5 10.5.3 0 .7 0 1-.1 6.2-1.1 4.8-10.7 4.5-12.6-.5-2.9-2.7-5.6-6.3-5.6m.8 23.5c-6.3 0-11-5.5-12.7-14.8-1-5.8 2-12.4 9.6-13.7.8-.1 1.5-.2 2.3-.2 5.7 0 10.4 4.1 11.4 9.9.5 3 .9 7.4-.5 11.3-1.4 4.1-4.3 6.7-8.3 7.4-.6 0-1.2.1-1.8.1"/><path class="st0" d="M167.1 58.1c-1.5 0-2.6-1.2-2.6-2.6V42.4c0-4.2-11.6-7.9-21-7.9-2.9 0-6.1.4-9 1.1-1.4.4-2.8-.5-3.2-1.9-.4-1.4.5-2.8 1.9-3.2 3.3-.8 6.9-1.3 10.3-1.3 8.6 0 26.3 3.2 26.3 13.1v13.1c-.1 1.5-1.2 2.7-2.7 2.7M6.7 42.4c0-9.9 17.7-13.1 26.3-13.1 3.3 0 7 .5 10.3 1.3 1.4.4 2.3 1.8 1.9 3.2-.4 1.4-1.8 2.3-3.2 1.9-2.9-.7-6.1-1.1-9-1.1-9.5 0-21 3.6-21 7.9v13.1c0 1.4-1.2 2.6-2.6 2.6-1.5 0-2.6-1.2-2.6-2.6"/></svg>