<svg version="1.1" id="Layer_1" xmlns="http://www.w3.org/2000/svg" x="0" y="0" viewBox="0 0 121 129" xml:space="preserve"><style>.st0{fill:#33a995}</style><path class="st0" d="M116.1 113.7l-11.4-68.3c-.7-4.3-4.4-7.5-8.8-7.5H64v-3.1c6.8-1.5 11.8-7.5 11.8-14.7 0-8.3-6.8-15-15.1-15s-15.1 6.7-15.1 15c0 7.2 5.1 13.2 11.8 14.7v3.1H25.6c-4.4 0-8.1 3.1-8.8 7.5L5.4 113.7c-.4 2.6.3 5.2 2 7.2s4.2 3.2 6.8 3.2h93.1c2.6 0 5.1-1.1 6.8-3.2 1.7-2 2.5-4.6 2-7.2zM52.2 20.1c0-4.7 3.9-8.6 8.6-8.6 4.7 0 8.6 3.8 8.6 8.6 0 4.7-3.9 8.6-8.6 8.6-4.8 0-8.6-3.9-8.6-8.6zm57 96.7c-.3.3-.9.9-1.9.9H14.2c-1 0-1.6-.5-1.9-.9-.3-.3-.7-1-.6-2l11.4-68.3c.2-1.2 1.2-2.1 2.4-2.1h70.3c1.2 0 2.2.9 2.4 2.1l11.4 68.3c.3.9-.1 1.6-.4 2z"/><path class="st0" d="M21.2 73.3l1.2 4.5 3.5-.8v15.8h5.8V71.6h-4.3zM44.3 79c-1.4 0-2.4.3-3.4.8l.2-3.2h9.5v-4.8H36.5l-.6 10.6 3.5 2c1-.6 2.1-1.1 3.4-1.1 1.8 0 3.1.9 3.1 2.4v.1c0 1.5-1.1 2.5-3.1 2.5-1.8 0-3.4-.8-5.1-2.3l-3.3 3.9c2.2 2 4.8 3.3 8.5 3.3 5.1 0 8.7-2.8 8.7-7.5v-.1c0-4.5-3.5-6.6-7.3-6.6zm10.2 7.9h5.9v5.9h-5.9zm20.9-1.4c3.1-2.3 4.9-4 4.9-7.4V78c0-4-3.2-6.7-7.8-6.7-4.1 0-6.3 1.6-8.6 4.5l3.9 3.3c1.7-1.9 2.8-2.7 4.2-2.7 1.4 0 2.4.8 2.4 2.2 0 1.3-.8 2.3-2.7 3.8l-7.9 6v4.4h16.7V88h-8.7l3.6-2.5zm21.2-3.8c-1.6 0-2.7.7-3.6 1.8-.6-1.1-1.7-1.8-3.1-1.8-1.5 0-2.5.8-3.2 1.7v-1.5h-3.8v10.8h3.8v-5.9c0-1.2.6-1.8 1.5-1.8s1.5.6 1.5 1.8v5.9h3.8v-5.9c0-1.2.7-1.8 1.6-1.8.9 0 1.5.6 1.5 1.8v5.9h3.8v-7.1c-.1-2.5-1.5-3.9-3.8-3.9z"/></svg>