<svg width="524" height="232" fill="none" xmlns="http://www.w3.org/2000/svg"><rect width="524" height="232" rx="10" fill="#DFE8EB"/><path d="M85.211 81.21h10.505V42.437h-7.755l-11.275 3.19 2.035 8.25 6.49-1.54V81.21zm16.053 0h30.47v-8.69h-15.895l6.6-4.62c5.72-4.124 8.91-7.314 8.91-13.474v-.11c0-7.26-5.775-12.265-14.19-12.265-7.425 0-11.55 2.915-15.675 8.25l7.205 5.995c3.025-3.465 5.06-5.005 7.645-5.005 2.64 0 4.345 1.485 4.345 3.96 0 2.31-1.43 4.125-5.005 6.93l-14.41 11v8.03zm49.832.66c9.24 0 15.84-4.454 15.84-11.384v-.11c0-4.73-2.695-7.315-6.6-9.13 2.97-1.65 5.28-4.235 5.28-8.415v-.11c0-6.105-5.885-10.67-14.52-10.67s-14.465 4.565-14.465 10.67v.11c0 4.18 2.31 6.765 5.225 8.415-4.125 1.76-6.545 4.565-6.545 9.24v.11c0 6.71 6.545 11.275 15.785 11.275zm0-23.54c-2.86 0-4.73-1.814-4.73-4.234v-.11c0-2.145 1.815-4.07 4.73-4.07 2.97 0 4.785 1.925 4.785 4.07v.11c0 2.42-1.925 4.235-4.785 4.235zm0 15.566c-3.575 0-5.555-2.035-5.555-4.345v-.11c0-2.53 2.31-4.235 5.555-4.235 3.3 0 5.555 1.705 5.555 4.235v.11c0 2.31-1.98 4.345-5.555 4.345zm19.738 7.314h10.835V70.487h-10.835V81.21zm15.546 0h11.77l16.995-30.47v-8.03H185.5v8.966h17.82L186.38 81.21zM57.474 145.211h10.45v-22.055l9.79 15.015h.22l9.845-15.07v22.11h10.615v-38.5H87.119l-9.185 14.905-9.185-14.905H57.474v38.5zm47.199-32.45h10.835v-7.7h-10.835v7.7zm.22 32.45h10.395v-29.755h-10.395v29.755zm16.543 0h10.395v-40.15h-10.395v40.15zm16.543 0h10.395v-40.15h-10.395v40.15zm16.323-32.45h10.835v-7.7h-10.835v7.7zm.22 32.45h10.395v-29.755h-10.395v29.755zm31.448.715c9.57 0 16.5-7.095 16.5-15.565v-.11c0-8.47-6.875-15.455-16.39-15.455s-16.445 7.095-16.445 15.565v.11c0 8.47 6.875 15.455 16.335 15.455zm.11-8.855c-3.685 0-6.325-3.08-6.325-6.71v-.11c0-3.63 2.42-6.655 6.215-6.655 3.685 0 6.38 3.08 6.38 6.765v.11c0 3.575-2.475 6.6-6.27 6.6zm20.803 8.14h10.45v-16.115c0-3.3 1.87-5.06 4.4-5.06 2.53 0 4.235 1.76 4.235 5.06v16.115h10.395v-19.47c0-6.765-3.795-10.945-10.12-10.945-4.235 0-6.985 2.365-8.91 4.84v-4.18h-10.45v29.755z" fill="#34AA96"/><path d="M33.88 191.211h2.727v-12.892h4.884v-2.508H28.995v2.508h4.884v12.892zm13.181.264c3.586 0 6.226-2.75 6.226-6.05v-.044c0-3.322-2.618-6.028-6.182-6.028-3.564 0-6.204 2.75-6.204 6.072v.044c0 3.3 2.618 6.006 6.16 6.006zm.044-2.332c-2.068 0-3.542-1.694-3.542-3.718v-.044c0-2.024 1.364-3.696 3.498-3.696 2.09 0 3.564 1.694 3.564 3.74v.044c0 2.002-1.364 3.674-3.52 3.674zm12.787 2.266c1.012 0 1.738-.22 2.398-.594v-2.178a3.578 3.578 0 01-1.65.396c-.902 0-1.43-.418-1.43-1.452v-5.698h3.124v-2.288H59.21v-3.19h-2.662v3.19h-1.474v2.288h1.474v6.116c0 2.552 1.386 3.41 3.344 3.41zm8.495.044c1.782 0 2.992-.748 3.784-1.694v1.452h2.596v-6.886c0-1.518-.396-2.75-1.254-3.586-.814-.836-2.112-1.298-3.85-1.298-1.848 0-3.102.374-4.378.946l.704 2.09c1.056-.44 2.024-.726 3.322-.726 1.87 0 2.882.88 2.882 2.53v.286a9.704 9.704 0 00-3.124-.484c-2.838 0-4.796 1.232-4.796 3.74v.044c0 2.332 1.936 3.586 4.114 3.586zm.748-1.936c-1.276 0-2.266-.638-2.266-1.76v-.044c0-1.21 1.012-1.936 2.728-1.936 1.056 0 1.958.198 2.64.462v.792c0 1.474-1.342 2.486-3.102 2.486zm8.975 1.694h2.661v-16.06H78.11v16.06zm13.044 0h2.662v-11l4.818 7.216h.088l4.862-7.26v11.044h2.706v-15.4h-2.882l-4.686 7.282-4.686-7.282h-2.882v15.4zm24.115.264c2.134 0 3.652-.858 4.752-2.178l-1.562-1.386c-.924.902-1.848 1.386-3.146 1.386-1.716 0-3.058-1.056-3.344-2.948h8.536c.022-.264.044-.506.044-.748 0-3.344-1.87-6.248-5.566-6.248-3.322 0-5.676 2.728-5.676 6.05v.044c0 3.586 2.596 6.028 5.962 6.028zm-3.322-6.886c.242-1.804 1.386-3.058 3.014-3.058 1.76 0 2.772 1.342 2.948 3.058h-5.962zm14.62 6.864c1.782 0 2.992-.748 3.784-1.694v1.452h2.596v-6.886c0-1.518-.396-2.75-1.254-3.586-.814-.836-2.112-1.298-3.85-1.298-1.848 0-3.102.374-4.378.946l.704 2.09c1.056-.44 2.024-.726 3.322-.726 1.87 0 2.882.88 2.882 2.53v.286a9.704 9.704 0 00-3.124-.484c-2.838 0-4.796 1.232-4.796 3.74v.044c0 2.332 1.936 3.586 4.114 3.586zm.748-1.936c-1.276 0-2.266-.638-2.266-1.76v-.044c0-1.21 1.012-1.936 2.728-1.936 1.056 0 1.958.198 2.64.462v.792c0 1.474-1.342 2.486-3.102 2.486zm8.974 1.694h2.662v-16.06h-2.662v16.06zm10.123.22c2.42 0 4.312-1.21 4.312-3.652v-.044c0-2.09-1.914-2.86-3.608-3.388-1.364-.44-2.618-.792-2.618-1.65v-.044c0-.66.594-1.144 1.628-1.144.968 0 2.156.418 3.278 1.1l1.056-1.892c-1.232-.814-2.816-1.32-4.268-1.32-2.31 0-4.136 1.342-4.136 3.542v.044c0 2.222 1.914 2.926 3.63 3.41 1.364.418 2.596.726 2.596 1.628v.044c0 .77-.66 1.254-1.804 1.254-1.188 0-2.53-.484-3.806-1.43l-1.188 1.804c1.452 1.144 3.278 1.738 4.928 1.738zm13.943-.22h5.742c4.84 0 8.184-3.366 8.184-7.7v-.044c0-4.334-3.344-7.656-8.184-7.656h-5.742v15.4zm5.742-12.936c3.234 0 5.346 2.222 5.346 5.236v.044c0 3.014-2.112 5.192-5.346 5.192h-3.036v-10.472h3.036zm16.483 13.2c2.134 0 3.652-.858 4.752-2.178l-1.562-1.386c-.924.902-1.848 1.386-3.146 1.386-1.716 0-3.058-1.056-3.344-2.948h8.536c.022-.264.044-.506.044-.748 0-3.344-1.87-6.248-5.566-6.248-3.322 0-5.676 2.728-5.676 6.05v.044c0 3.586 2.596 6.028 5.962 6.028zm-3.322-6.886c.242-1.804 1.386-3.058 3.014-3.058 1.76 0 2.772 1.342 2.948 3.058h-5.962zm11.429 6.622h2.662v-16.06h-2.662v16.06zm6.185-13.398h2.86v-2.53h-2.86v2.53zm.11 13.398h2.662v-11.616h-2.662v11.616zm9.815.088h2.398l4.752-11.704h-2.794l-3.146 8.536-3.124-8.536h-2.86l4.774 11.704zm14.068.176c2.134 0 3.652-.858 4.752-2.178l-1.562-1.386c-.924.902-1.848 1.386-3.146 1.386-1.716 0-3.058-1.056-3.344-2.948h8.536c.022-.264.044-.506.044-.748 0-3.344-1.87-6.248-5.566-6.248-3.322 0-5.676 2.728-5.676 6.05v.044c0 3.586 2.596 6.028 5.962 6.028zm-3.322-6.886c.242-1.804 1.386-3.058 3.014-3.058 1.76 0 2.772 1.342 2.948 3.058h-5.962zm11.275 6.622h2.662v-4.422c0-3.08 1.628-4.598 3.96-4.598h.154v-2.816c-2.046-.088-3.388 1.1-4.114 2.838v-2.618h-2.662v11.616zm14.026.264c2.134 0 3.652-.858 4.752-2.178l-1.562-1.386c-.924.902-1.848 1.386-3.146 1.386-1.716 0-3.058-1.056-3.344-2.948h8.536c.022-.264.044-.506.044-.748 0-3.344-1.87-6.248-5.566-6.248-3.322 0-5.676 2.728-5.676 6.05v.044c0 3.586 2.596 6.028 5.962 6.028zm-3.322-6.886c.242-1.804 1.386-3.058 3.014-3.058 1.76 0 2.772 1.342 2.948 3.058h-5.962zm16.071 6.864c1.892 0 3.102-.968 3.96-2.178v1.936h2.662v-16.06h-2.662v6.248c-.836-1.1-2.046-2.046-3.96-2.046-2.772 0-5.39 2.178-5.39 6.028v.044c0 3.85 2.662 6.028 5.39 6.028zm.638-2.31c-1.804 0-3.344-1.474-3.344-3.718v-.044c0-2.31 1.518-3.718 3.344-3.718 1.782 0 3.366 1.474 3.366 3.718v.044c0 2.222-1.584 3.718-3.366 3.718z" fill="#000"/><g clip-path="url(#clip0_184_182)" fill="#D56418"><path d="M389.08 154.039a3.217 3.217 0 01-2.72-1.51l-16.048-25.692a3.216 3.216 0 01.726-4.216 3.217 3.217 0 011.404-.642l102.71-19.269a3.214 3.214 0 013.31 1.453l16.048 25.693a3.209 3.209 0 01-.725 4.215 3.21 3.21 0 01-1.405.642l-102.71 19.269a2.92 2.92 0 01-.59.057zm-10.832-26.616l12.393 19.843 95.933-17.996-12.393-19.844-95.933 17.997z"/><path d="M350.564 150.827a3.246 3.246 0 01-1.288-.269l-51.354-22.481a3.208 3.208 0 01-1.784-3.894c.155-.5.43-.955.801-1.325l22.467-22.48a3.209 3.209 0 013.559-.67l51.355 22.48a3.207 3.207 0 011.871 2.349 3.21 3.21 0 01-.888 2.87l-22.468 22.481a3.2 3.2 0 01-2.271.939zm-45.762-26.748l45.04 19.715 17.597-17.604-45.04-19.714-17.597 17.603z"/><path d="M373.032 199a3.246 3.246 0 01-1.288-.269L320.39 176.25a3.206 3.206 0 01-1.922-2.942v-25.693a3.209 3.209 0 116.419 0v23.593l48.547 21.24 99.098-18.594v-26.239a3.21 3.21 0 116.42 0v28.904a3.214 3.214 0 01-2.62 3.156l-102.71 19.269a3.24 3.24 0 01-.59.056z"/><path d="M373.032 199a3.208 3.208 0 01-3.21-3.212v-51.384a3.211 3.211 0 015.48-2.271c.601.602.94 1.419.94 2.271v51.384a3.208 3.208 0 01-3.21 3.212zm64.194-144.52h-19.258a3.21 3.21 0 01-3.21-3.21V35.21a3.212 3.212 0 013.21-3.211h19.258a3.21 3.21 0 013.21 3.212v16.057a3.212 3.212 0 01-3.21 3.212zm-16.048-6.422h12.838v-9.635h-12.838v9.635zm35.306 38.538h-19.258a3.21 3.21 0 01-3.21-3.211V70.538a3.212 3.212 0 013.21-3.211h19.258a3.213 3.213 0 013.21 3.212v12.846a3.213 3.213 0 01-3.21 3.211zm-16.049-6.423h12.839V73.75h-12.839v6.423z"/><path d="M462.903 99.442a3.21 3.21 0 01-3.21-3.211v-2.453a8.358 8.358 0 00-4.646-7.52 3.212 3.212 0 012.873-5.749 14.751 14.751 0 018.193 13.249v2.473a3.212 3.212 0 01-3.21 3.211zm-32.097 6.423a3.209 3.209 0 01-3.209-3.211v-8.876a14.756 14.756 0 018.192-13.248 3.21 3.21 0 014.309 1.438 3.217 3.217 0 01-1.436 4.311 8.355 8.355 0 00-4.646 7.499v8.876a3.213 3.213 0 01-3.21 3.211zm12.839-44.961a3.208 3.208 0 01-3.209-3.212 1.973 1.973 0 00-1.096-1.774l-3.55-1.774a3.2 3.2 0 01-1.611-1.858 3.221 3.221 0 01.174-2.454 3.215 3.215 0 014.309-1.437l3.547 1.778a8.359 8.359 0 014.646 7.52 3.212 3.212 0 01-3.21 3.21zm-32.096 0a3.209 3.209 0 01-3.21-3.212 8.367 8.367 0 014.646-7.519l3.547-1.778a3.21 3.21 0 014.309 1.437 3.217 3.217 0 01-1.437 4.312l-3.55 1.774a1.97 1.97 0 00-1.096 1.774 3.212 3.212 0 01-3.209 3.212zm-12.839 51.384a3.21 3.21 0 01-3.21-3.211V76.962a3.212 3.212 0 012.58-3.148l16.048-3.211a3.21 3.21 0 013.84 3.147v32.115a3.211 3.211 0 01-5.48 2.271 3.216 3.216 0 01-.94-2.271V77.668l-9.629 1.927v29.482a3.213 3.213 0 01-3.209 3.211z"/><path d="M414.758 76.962a3.209 3.209 0 01-1.885-.615l-34.167-24.865-12.089 2.409v7.013a3.212 3.212 0 01-3.21 3.211 3.208 3.208 0 01-3.209-3.211v-9.635a3.207 3.207 0 012.58-3.147l16.048-3.212a3.206 3.206 0 012.519.55l35.307 25.693a3.215 3.215 0 01-.005 5.198 3.21 3.21 0 01-1.889.61z"/><path d="M398.71 80.173a3.208 3.208 0 01-1.886-.614l-35.307-25.692a3.222 3.222 0 01-1.282-2.098 3.222 3.222 0 011.497-3.24 3.21 3.21 0 013.565.143l35.306 25.692a3.209 3.209 0 011.164 3.593 3.211 3.211 0 01-3.057 2.216zm-25.678 9.635h-38.516a3.208 3.208 0 01-3.209-3.212V73.75a3.212 3.212 0 013.209-3.212h38.516a3.208 3.208 0 013.21 3.212v12.846a3.212 3.212 0 01-3.21 3.212zm-35.306-6.423h32.097V76.96h-32.097v6.424z"/><path d="M376.242 115.5a3.208 3.208 0 01-3.21-3.212v-5.664a8.358 8.358 0 00-4.646-7.519 3.217 3.217 0 01-1.773-2.874v-9.635a3.212 3.212 0 013.209-3.211 3.209 3.209 0 013.21 3.211v7.808a14.733 14.733 0 016.42 12.22v5.664a3.212 3.212 0 01-3.21 3.212zm-40.948-14.424a3.206 3.206 0 01-2.995-2.08 3.22 3.22 0 01-.111-1.907 3.22 3.22 0 01.992-1.633c.425-.371.871-.717 1.336-1.036v-7.824a3.212 3.212 0 013.21-3.211 3.208 3.208 0 013.209 3.211v9.635a3.21 3.21 0 01-1.773 2.874 8.258 8.258 0 00-1.757 1.176 3.21 3.21 0 01-2.111.795z"/></g><defs><clipPath id="clip0_184_182"><path fill="#fff" transform="translate(296 32)" d="M0 0h199v167H0z"/></clipPath></defs></svg>