<?xml version="1.0" encoding="utf-8"?>
<!-- Generator: Adobe Illustrator 26.0.1, SVG Export Plug-In . SVG Version: 6.00 Build 0)  -->
<svg version="1.1" id="Layer_1" xmlns="http://www.w3.org/2000/svg" xmlns:xlink="http://www.w3.org/1999/xlink" x="0px" y="0px"
	 viewBox="0 0 162 137" style="enable-background:new 0 0 162 137;" xml:space="preserve">
<style type="text/css">
	.st0{fill:#33A995;}
</style>
<g>
	<path class="st0" d="M156.9,79.5L144.6,60c-0.5-0.9-1.5-1.3-2.5-1.1L64.4,73.4L25.9,56.6c-0.9-0.4-2-0.2-2.7,0.5L6,74.2
		c-0.6,0.6-0.8,1.4-0.7,2.2c0.2,0.8,0.7,1.5,1.4,1.8L46,95.3c0.3,0.1,0.7,0.2,1,0.2c0.6,0,1.3-0.2,1.7-0.7l15-14.9l10.6,16.9
		c0.5,0.7,1.2,1.1,2.1,1.1c0.2,0,0.3,0,0.5,0l78.5-14.7c0.8-0.1,1.5-0.7,1.8-1.4C157.4,81,157.3,80.2,156.9,79.5z M46.4,90.1
		L12,75.1l13.4-13.4l34.4,15L46.4,90.1z M77.5,92.7l-9.5-15.1L141.4,64l9.5,15.1L77.5,92.7z"/>
	<path class="st0" d="M142.5,90.6c-1.4,0-2.5,1.1-2.5,2.4v20l-73.5,13.7V90.6c0-1.3-1.1-2.4-2.5-2.4c-1.4,0-2.5,1.1-2.5,2.4v35.3
		l-34.3-15V93c0-1.3-1.1-2.4-2.5-2.4c-1.4,0-2.5,1.1-2.5,2.4v19.5c0,1,0.6,1.8,1.5,2.2l39.2,17.1c0,0,0,0,0,0
		c0.1,0.1,0.3,0.1,0.4,0.1c0,0,0,0,0,0c0.2,0,0.3,0.1,0.5,0.1c0.2,0,0.3,0,0.5,0l0,0c0,0,0,0,0,0l78.4-14.6c1.2-0.2,2-1.2,2-2.4V93
		C145,91.7,143.9,90.6,142.5,90.6z"/>
	<path class="st0" d="M110.7,34.4v8.4c-3.1,2.1-4.9,5.5-4.9,9.3v6.7c0,1.3,1.1,2.4,2.5,2.4c1.4,0,2.5-1.1,2.5-2.4v-6.7
		c0-2.3,1.2-4.3,3.1-5.5h13.4c1.9,1.2,3.1,3.2,3.1,5.5v1.9c0,1.3,1.1,2.4,2.5,2.4s2.5-1.1,2.5-2.4v-1.9c0-3.8-1.8-7.2-4.9-9.3v-8.4
		c0-1.3-1.1-2.4-2.5-2.4h-14.7C111.8,32,110.7,33.1,110.7,34.4z M115.6,36.8h9.8v4.9h-9.8V36.8z"/>
	<path class="st0" d="M93.5,27.1c1.4,0,2.5-1.1,2.5-2.4c0-0.6,0.3-1.1,0.8-1.4l2.2-1.1h13.6l2.2,1.1c0.5,0.3,0.8,0.8,0.8,1.4
		c0,1.3,1.1,2.4,2.5,2.4s2.5-1.1,2.5-2.4c0-2.4-1.4-4.6-3.5-5.7l-1.4-0.7V7.5c0-1.3-1.1-2.4-2.5-2.4H98.4c-1.4,0-2.5,1.1-2.5,2.4
		v10.7l-1.4,0.7c-2.2,1.1-3.5,3.3-3.5,5.7C91.1,26,92.2,27.1,93.5,27.1z M100.9,10h9.8v7.3h-9.8V10z"/>
	<path class="st0" d="M56.7,29.5c1.4,0,2.5-1.1,2.5-2.4v-2.5l22.1,16v23.2c0,1.3,1.1,2.4,2.5,2.4s2.5-1.1,2.5-2.4V41.3l7.4-1.5v21.4
		c0,1.3,1.1,2.4,2.5,2.4c1.4,0,2.5-1.1,2.5-2.4V36.8c0,0,0-0.1,0-0.1c0-0.1,0-0.2,0-0.3c0-0.1,0-0.1,0-0.2c0-0.1-0.1-0.2-0.1-0.3
		c0-0.1-0.1-0.1-0.1-0.2c0-0.1-0.1-0.2-0.2-0.3c0-0.1-0.1-0.1-0.1-0.2c-0.1-0.1-0.1-0.1-0.2-0.2c0,0-0.1-0.1-0.1-0.1c0,0,0,0-0.1,0
		c0,0,0,0-0.1,0l-27-19.5c-0.6-0.4-1.3-0.6-1.9-0.4l-12.3,2.4c-0.1,0-0.1,0-0.2,0.1c-0.1,0-0.1,0-0.2,0c-0.1,0-0.2,0.1-0.3,0.2
		c0,0-0.1,0-0.1,0c-0.1,0.1-0.2,0.2-0.4,0.3c0,0-0.1,0.1-0.1,0.1c-0.1,0.1-0.1,0.2-0.2,0.2c0,0,0,0,0,0c0,0,0,0.1-0.1,0.1
		c-0.1,0.1-0.1,0.2-0.1,0.3c0,0.1-0.1,0.1-0.1,0.2c0,0.1-0.1,0.2-0.1,0.3c0,0.1,0,0.1,0,0.2c0,0.1,0,0.2,0,0.3c0,0.1,0,0.1,0,0.2
		c0,0,0,0,0,0v7.3C54.3,28.4,55.4,29.5,56.7,29.5z M90,35.5l-5.7,1.1L62.7,21l5.7-1.1L90,35.5z"/>
	<path class="st0" d="M34.7,49.1v3.5c-0.4,0.2-0.7,0.5-1,0.8c-1,0.9-1.1,2.4-0.2,3.4c0.5,0.6,1.2,0.8,1.8,0.8c0.6,0,1.1-0.2,1.6-0.6
		c0.4-0.4,0.9-0.7,1.3-0.9c0.8-0.4,1.4-1.3,1.4-2.2v-4.9h19.6v4.9c0,0.9,0.5,1.8,1.4,2.2c2.2,1.1,3.5,3.3,3.5,5.7v4.3
		c0,1.3,1.1,2.4,2.5,2.4c1.4,0,2.5-1.1,2.5-2.4v-4.3c0-3.8-1.8-7.2-4.9-9.3v-3.5c1.4,0,2.5-1.1,2.5-2.4v-9.8c0-1.3-1.1-2.4-2.5-2.4
		H34.7c-1.4,0-2.5,1.1-2.5,2.4v9.8C32.2,48,33.3,49.1,34.7,49.1z M37.1,39.3h24.5v4.9c0,0,0,0,0,0H37.1V39.3z"/>
</g>
</svg>
