<svg width="51" height="51" viewBox="0 0 51 51" fill="none" xmlns="http://www.w3.org/2000/svg">
<path d="M45.2016 24.314C46.2067 25.6288 46.2067 27.4036 45.2016 28.7163C42.0356 32.8492 34.4399 41.3589 25.5718 41.3589C16.7037 41.3589 9.10796 32.8492 5.942 28.7163C5.45296 28.0867 5.1875 27.3123 5.1875 26.5151C5.1875 25.718 5.45296 24.9435 5.942 24.314C9.10796 20.1811 16.7037 11.6714 25.5718 11.6714C34.4399 11.6714 42.0356 20.1811 45.2016 24.314V24.314Z" stroke="#E84343" stroke-width="3" stroke-linecap="round" stroke-linejoin="round"/>
<path d="M25.5721 32.8765C29.0855 32.8765 31.9337 30.0283 31.9337 26.5149C31.9337 23.0015 29.0855 20.1533 25.5721 20.1533C22.0586 20.1533 19.2104 23.0015 19.2104 26.5149C19.2104 30.0283 22.0586 32.8765 25.5721 32.8765Z" stroke="#E84343" stroke-width="3" stroke-linecap="round" stroke-linejoin="round"/>
</svg>
