<svg width="47" height="48" viewBox="0 0 47 48" fill="none" xmlns="http://www.w3.org/2000/svg">
<path d="M13.3 8.05C12.43 8.05 11.85 8.92 11.85 9.5V16.75H8.95V9.5C8.95 8.63 8.37 8.05 7.5 8.05C6.63 8.05 6.05 8.92 6.05 9.5V16.75H3.15V9.5C3.15 8.63 2.57 8.05 1.7 8.05C0.83 8.05 0.25 8.92 0.25 9.5V19.07C0.25 21.68 2.28 23.71 4.6 24V44.3C4.6 46.04 5.76 47.2 7.5 47.2C9.24 47.2 10.4 46.04 10.4 44.3V24C12.72 23.71 14.75 21.68 14.75 19.07V9.5C14.75 8.92 14.17 8.05 13.3 8.05ZM19.1 9.5V26.9H22V44.3C22 46.04 23.16 47.2 24.9 47.2C26.64 47.2 27.8 46.04 27.8 44.3V0.799999C22.87 0.799999 19.1 4.57 19.1 9.5ZM39.4 6.6C35.34 6.6 32.15 10.95 32.15 16.17C31.86 19.65 33.6 22.84 36.5 24.87V44.3C36.5 46.04 37.66 47.2 39.4 47.2C41.14 47.2 42.3 46.04 42.3 44.3V24.87C45.2 22.84 46.94 19.65 46.65 16.17C46.65 10.95 43.46 6.6 39.4 6.6Z" fill="#E84343"/>
</svg>
