<svg width="20" height="20" viewBox="0 0 20 20" fill="none" xmlns="http://www.w3.org/2000/svg">
<path d="M5.4 3.3999C5.04 3.3999 4.8 3.7599 4.8 3.9999V6.9999H3.6V3.9999C3.6 3.6399 3.36 3.3999 3 3.3999C2.64 3.3999 2.4 3.7599 2.4 3.9999V6.9999H1.2V3.9999C1.2 3.6399 0.96 3.3999 0.6 3.3999C0.24 3.3999 0 3.7599 0 3.9999V7.9599C0 9.0399 0.84 9.8799 1.8 9.9999V18.3999C1.8 19.1199 2.28 19.5999 3 19.5999C3.72 19.5999 4.2 19.1199 4.2 18.3999V9.9999C5.16 9.8799 6 9.0399 6 7.9599V3.9999C6 3.7599 5.76 3.3999 5.4 3.3999ZM7.8 3.9999V11.1999H9V18.3999C9 19.1199 9.48 19.5999 10.2 19.5999C10.92 19.5999 11.4 19.1199 11.4 18.3999V0.399902C9.36 0.399902 7.8 1.9599 7.8 3.9999ZM16.2 2.7999C14.52 2.7999 13.2 4.5999 13.2 6.7599C13.08 8.1999 13.8 9.5199 15 10.3599V18.3999C15 19.1199 15.48 19.5999 16.2 19.5999C16.92 19.5999 17.4 19.1199 17.4 18.3999V10.3599C18.6 9.5199 19.32 8.1999 19.2 6.7599C19.2 4.5999 17.88 2.7999 16.2 2.7999Z" fill="white"/>
</svg>
