<svg width="593" height="356" viewBox="0 0 593 356" fill="none" xmlns="http://www.w3.org/2000/svg">
<rect width="593" height="356" rx="12" fill="white"/>
<g clip-path="url(#clip0_649_7376)">
<path d="M289.726 158.615C289.152 158.615 288.587 158.469 288.085 158.191C287.583 157.912 287.16 157.511 286.855 157.025L269.92 129.948C269.628 129.48 269.454 128.949 269.415 128.4C269.375 127.85 269.47 127.299 269.691 126.795C269.913 126.29 270.254 125.848 270.686 125.505C271.117 125.162 271.626 124.93 272.168 124.828L380.555 104.521C381.224 104.396 381.915 104.475 382.538 104.748C383.161 105.022 383.687 105.476 384.048 106.052L400.984 133.129C401.276 133.596 401.449 134.128 401.489 134.677C401.529 135.227 401.434 135.778 401.212 136.282C400.991 136.786 400.649 137.229 400.218 137.572C399.786 137.915 399.277 138.147 398.735 138.248L290.348 158.556C290.143 158.597 289.935 158.617 289.726 158.615ZM278.294 130.565L291.373 151.478L392.609 132.512L379.531 111.599L278.294 130.565Z" fill="#443A3D"/>
<path d="M249.081 155.231C248.613 155.23 248.151 155.134 247.722 154.947L193.528 131.255C193.022 131.034 192.577 130.694 192.233 130.262C191.889 129.831 191.655 129.322 191.553 128.779C191.451 128.237 191.483 127.678 191.646 127.151C191.81 126.624 192.1 126.145 192.491 125.755L216.2 102.063C216.683 101.581 217.299 101.256 217.969 101.13C218.639 101.004 219.332 101.083 219.956 101.356L274.15 125.048C274.656 125.269 275.1 125.61 275.444 126.041C275.789 126.473 276.022 126.982 276.124 127.524C276.227 128.067 276.195 128.626 276.031 129.153C275.868 129.68 275.578 130.159 275.187 130.548L251.477 154.241C251.162 154.555 250.789 154.804 250.377 154.974C249.966 155.144 249.526 155.231 249.081 155.231ZM200.789 127.041L248.319 147.818L266.888 129.267L219.359 108.489L200.789 127.041Z" fill="#443A3D"/>
<path d="M272.79 206C272.323 205.999 271.86 205.903 271.431 205.717L217.238 182.024C216.634 181.76 216.121 181.326 215.761 180.776C215.401 180.225 215.209 179.581 215.209 178.923V151.846C215.209 150.949 215.566 150.088 216.202 149.453C216.837 148.818 217.698 148.462 218.597 148.462C219.495 148.462 220.356 148.818 220.992 149.453C221.627 150.088 221.984 150.949 221.984 151.846V176.71L273.214 199.095L377.79 179.498V151.846C377.79 150.949 378.147 150.088 378.782 149.453C379.417 148.818 380.279 148.462 381.177 148.462C382.076 148.462 382.937 148.818 383.572 149.453C384.208 150.088 384.564 150.949 384.564 151.846V182.308C384.564 183.097 384.287 183.862 383.783 184.469C383.278 185.076 382.576 185.488 381.8 185.633L273.413 205.941C273.207 205.98 272.999 205.999 272.79 206V206Z" fill="#443A3D"/>
<path d="M272.79 206C271.892 206 271.031 205.643 270.395 205.009C269.76 204.374 269.403 203.513 269.403 202.615V148.462C269.403 147.564 269.76 146.703 270.395 146.068C271.031 145.433 271.892 145.077 272.79 145.077C273.689 145.077 274.55 145.433 275.185 146.068C275.821 146.703 276.178 147.564 276.178 148.462V202.615C276.178 203.513 275.821 204.374 275.185 205.009C274.55 205.643 273.689 206 272.79 206Z" fill="#443A3D"/>
<path d="M340.532 53.6923H320.21C319.312 53.6923 318.45 53.3357 317.815 52.701C317.18 52.0662 316.823 51.2053 316.823 50.3077V33.3846C316.823 32.487 317.18 31.6261 317.815 30.9913C318.45 30.3566 319.312 30 320.21 30H340.532C341.431 30 342.292 30.3566 342.927 30.9913C343.563 31.6261 343.92 32.487 343.92 33.3846V50.3077C343.92 51.2053 343.563 52.0662 342.927 52.701C342.292 53.3357 341.431 53.6923 340.532 53.6923ZM323.597 46.9231H337.145V36.7692H323.597V46.9231Z" fill="#34AA96"/>
<path d="M360.855 87.5385H340.532C339.634 87.5385 338.772 87.1819 338.137 86.5471C337.502 85.9124 337.145 85.0515 337.145 84.1539V70.6154C337.145 69.7177 337.502 68.8568 338.137 68.2221C338.772 67.5874 339.634 67.2308 340.532 67.2308H360.855C361.753 67.2308 362.615 67.5874 363.25 68.2221C363.885 68.8568 364.242 69.7177 364.242 70.6154V84.1539C364.242 85.0515 363.885 85.9124 363.25 86.5471C362.615 87.1819 361.753 87.5385 360.855 87.5385ZM343.919 80.7692H357.468V74H343.919V80.7692Z" fill="#D56418"/>
<path d="M367.629 101.077C366.73 101.077 365.869 100.72 365.234 100.086C364.599 99.4509 364.242 98.59 364.242 97.6923V95.1073C364.247 93.4606 363.791 91.8452 362.925 90.4445C362.058 89.0438 360.816 87.9139 359.339 87.1831C358.535 86.7814 357.924 86.077 357.639 85.2249C357.355 84.3727 357.421 83.4426 357.823 82.6392C358.225 81.8358 358.93 81.2249 359.783 80.9409C360.636 80.6568 361.566 80.7229 362.37 81.1246C364.971 82.4143 367.159 84.4053 368.687 86.8725C370.215 89.3397 371.022 92.1848 371.016 95.0862V97.6923C371.016 98.59 370.659 99.4509 370.024 100.086C369.389 100.72 368.527 101.077 367.629 101.077Z" fill="#D56418"/>
<path d="M333.758 107.846C332.86 107.846 331.998 107.49 331.363 106.855C330.728 106.22 330.371 105.359 330.371 104.462V95.1073C330.365 92.2059 331.172 89.3608 332.7 86.8936C334.228 84.4264 336.416 82.4354 339.017 81.1458C339.821 80.7441 340.751 80.678 341.604 80.962C342.457 81.2461 343.162 81.857 343.564 82.6604C343.966 83.4638 344.032 84.3938 343.748 85.246C343.463 86.0981 342.852 86.8025 342.048 87.2042C340.575 87.9335 339.334 89.06 338.468 90.4566C337.602 91.8532 337.144 93.4641 337.145 95.1073V104.462C337.145 105.359 336.788 106.22 336.153 106.855C335.518 107.49 334.657 107.846 333.758 107.846Z" fill="#D56418"/>
<path d="M347.307 60.4615C346.408 60.4615 345.547 60.1049 344.911 59.4702C344.276 58.8355 343.919 57.9746 343.919 57.0769C343.921 56.6885 343.813 56.3075 343.609 55.977C343.404 55.6466 343.112 55.3798 342.764 55.2069L339.017 53.3369C338.619 53.138 338.264 52.8627 337.972 52.5267C337.68 52.1907 337.458 51.8006 337.317 51.3787C337.176 50.9567 337.12 50.5112 337.152 50.0676C337.183 49.6239 337.302 49.1909 337.501 48.7931C337.7 48.3953 337.975 48.0405 338.312 47.7491C338.648 47.4577 339.038 47.2354 339.461 47.0947C339.883 46.9541 340.329 46.8979 340.773 46.9294C341.217 46.9609 341.65 47.0796 342.048 47.2785L345.791 49.1527C347.267 49.8839 348.509 51.0139 349.376 52.4145C350.242 53.8151 350.699 55.4303 350.694 57.0769C350.694 57.9746 350.337 58.8355 349.702 59.4702C349.066 60.1049 348.205 60.4615 347.307 60.4615Z" fill="#34AA96"/>
<path d="M313.435 60.4615C312.537 60.4615 311.676 60.1049 311.04 59.4702C310.405 58.8354 310.048 57.9746 310.048 57.0769C310.043 55.4302 310.5 53.815 311.366 52.4145C312.233 51.0139 313.475 49.8839 314.951 49.1527L318.694 47.2785C319.498 46.8768 320.429 46.8107 321.281 47.0947C322.134 47.3787 322.839 47.9896 323.241 48.793C323.643 49.5965 323.709 50.5265 323.425 51.3787C323.141 52.2308 322.529 52.9352 321.725 53.3369L317.978 55.2069C317.63 55.3798 317.338 55.6465 317.133 55.977C316.929 56.3075 316.821 56.6885 316.823 57.0769C316.823 57.9746 316.466 58.8354 315.831 59.4702C315.195 60.1049 314.334 60.4615 313.435 60.4615Z" fill="#34AA96"/>
<path d="M299.887 114.615C298.989 114.615 298.127 114.259 297.492 113.624C296.857 112.989 296.5 112.128 296.5 111.231V77.3846C296.5 76.6026 296.772 75.8448 297.268 75.2401C297.764 74.6354 298.455 74.2212 299.222 74.0677L316.158 70.6831C316.649 70.5848 317.156 70.5967 317.642 70.7178C318.128 70.839 318.581 71.0664 318.969 71.3837C319.357 71.7009 319.669 72.1002 319.883 72.5526C320.098 73.005 320.209 73.4994 320.21 74V107.846C320.21 108.744 319.853 109.605 319.218 110.239C318.582 110.874 317.721 111.231 316.823 111.231C315.924 111.231 315.063 110.874 314.428 110.239C313.792 109.605 313.435 108.744 313.435 107.846V78.1292L303.274 80.16V111.231C303.274 112.128 302.917 112.989 302.282 113.624C301.647 114.259 300.785 114.615 299.887 114.615Z" fill="#34AA96"/>
<path d="M316.822 77.3846C316.107 77.3842 315.411 77.1576 314.833 76.7373L278.777 50.5319L266.02 53.0704V60.4615C266.02 61.3592 265.663 62.2201 265.028 62.8548C264.393 63.4896 263.532 63.8462 262.633 63.8462C261.735 63.8462 260.873 63.4896 260.238 62.8548C259.603 62.2201 259.246 61.3592 259.246 60.4615V50.3077C259.247 49.5257 259.518 48.7679 260.014 48.1632C260.511 47.5585 261.201 47.1442 261.968 46.9908L278.904 43.6062C279.363 43.5138 279.837 43.5176 280.294 43.6174C280.752 43.7172 281.184 43.9107 281.563 44.1858L318.821 71.2627C319.4 71.6833 319.83 72.2764 320.051 72.9567C320.272 73.637 320.271 74.3697 320.049 75.0496C319.827 75.7295 319.395 76.3217 318.816 76.7412C318.236 77.1607 317.538 77.386 316.822 77.3846Z" fill="#34AA96"/>
<path d="M299.887 80.7692C299.172 80.7688 298.476 80.5422 297.897 80.1219L260.639 53.045C260.28 52.7833 259.975 52.4534 259.743 52.0741C259.511 51.6947 259.356 51.2734 259.286 50.8342C259.217 50.395 259.235 49.9465 259.339 49.5142C259.444 49.082 259.632 48.6745 259.894 48.315C260.156 47.9555 260.486 47.6511 260.866 47.4191C261.245 47.1872 261.667 47.0322 262.107 46.9631C262.546 46.8939 262.995 46.912 263.427 47.0162C263.86 47.1204 264.268 47.3087 264.628 47.5704L301.886 74.6473C302.464 75.0679 302.895 75.661 303.116 76.3413C303.336 77.0216 303.336 77.7543 303.114 78.4342C302.892 79.1141 302.46 79.7063 301.88 80.1258C301.301 80.5453 300.603 80.7706 299.887 80.7692Z" fill="#34AA96"/>
<path d="M272.79 90.923H232.145C231.247 90.923 230.385 90.5665 229.75 89.9317C229.115 89.297 228.758 88.4361 228.758 87.5384V74C228.758 73.1023 229.115 72.2414 229.75 71.6067C230.385 70.9719 231.247 70.6154 232.145 70.6154H272.79C273.688 70.6154 274.55 70.9719 275.185 71.6067C275.82 72.2414 276.177 73.1023 276.177 74V87.5384C276.177 88.4361 275.82 89.297 275.185 89.9317C274.55 90.5665 273.688 90.923 272.79 90.923ZM235.532 84.1538H269.403V77.3846H235.532V84.1538Z" fill="#34AA96"/>
<path d="M276.177 118C275.279 118 274.418 117.643 273.782 117.009C273.147 116.374 272.79 115.513 272.79 114.615V108.646C272.796 106.999 272.34 105.384 271.473 103.983C270.606 102.582 269.364 101.452 267.887 100.722C267.325 100.44 266.852 100.008 266.521 99.4726C266.191 98.9376 266.016 98.3211 266.016 97.6923V87.5385C266.016 86.6408 266.373 85.7799 267.008 85.1452C267.643 84.5105 268.505 84.1539 269.403 84.1539C270.302 84.1539 271.163 84.5105 271.798 85.1452C272.433 85.7799 272.79 86.6408 272.79 87.5385V95.7673C274.886 97.1981 276.599 99.1199 277.78 101.365C278.961 103.61 279.573 106.11 279.565 108.646V114.615C279.565 115.513 279.208 116.374 278.572 117.009C277.937 117.643 277.076 118 276.177 118Z" fill="#34AA96"/>
<path d="M232.966 102.799C232.279 102.797 231.609 102.586 231.044 102.195C230.48 101.803 230.048 101.249 229.806 100.607C229.563 99.964 229.523 99.2629 229.689 98.5965C229.855 97.9302 230.22 97.33 230.735 96.8758C231.183 96.4848 231.654 96.1204 232.145 95.7843V87.5385C232.145 86.6408 232.502 85.7799 233.137 85.1452C233.772 84.5105 234.634 84.1539 235.532 84.1539C236.43 84.1539 237.292 84.5105 237.927 85.1452C238.562 85.7799 238.919 86.6408 238.919 87.5385V97.6923C238.92 98.3211 238.745 98.9376 238.414 99.4726C238.084 100.008 237.611 100.44 237.048 100.722C236.379 101.054 235.756 101.47 235.193 101.961C234.577 102.5 233.786 102.798 232.966 102.799V102.799Z" fill="#34AA96"/>
</g>
<path d="M35.2861 272.28H42.1621V246.9H37.0861L29.7061 248.988L31.0381 254.388L35.2861 253.38V272.28Z" fill="#34AA96"/>
<path d="M45.7936 272.28H65.7376V266.592H55.3336L59.6536 263.568C63.3976 260.868 65.4856 258.78 65.4856 254.748V254.676C65.4856 249.924 61.7056 246.648 56.1976 246.648C51.3376 246.648 48.6376 248.556 45.9376 252.048L50.6536 255.972C52.6336 253.704 53.9656 252.696 55.6576 252.696C57.3856 252.696 58.5016 253.668 58.5016 255.288C58.5016 256.8 57.5656 257.988 55.2256 259.824L45.7936 267.024V272.28Z" fill="#34AA96"/>
<path d="M78.4104 272.712C84.4584 272.712 88.7784 269.796 88.7784 265.26V265.188C88.7784 262.092 87.0144 260.4 84.4584 259.212C86.4024 258.132 87.9144 256.44 87.9144 253.704V253.632C87.9144 249.636 84.0624 246.648 78.4104 246.648C72.7584 246.648 68.9424 249.636 68.9424 253.632V253.704C68.9424 256.44 70.4544 258.132 72.3624 259.212C69.6624 260.364 68.0784 262.2 68.0784 265.26V265.332C68.0784 269.724 72.3624 272.712 78.4104 272.712ZM78.4104 257.304C76.5384 257.304 75.3144 256.116 75.3144 254.532V254.46C75.3144 253.056 76.5024 251.796 78.4104 251.796C80.3544 251.796 81.5424 253.056 81.5424 254.46V254.532C81.5424 256.116 80.2824 257.304 78.4104 257.304ZM78.4104 267.492C76.0704 267.492 74.7744 266.16 74.7744 264.648V264.576C74.7744 262.92 76.2864 261.804 78.4104 261.804C80.5704 261.804 82.0464 262.92 82.0464 264.576V264.648C82.0464 266.16 80.7504 267.492 78.4104 267.492Z" fill="#34AA96"/>
<path d="M91.3302 272.28H98.4222V265.26H91.3302V272.28Z" fill="#34AA96"/>
<path d="M101.506 272.28H109.21L120.334 252.336V247.08H100.93V252.948H112.594L101.506 272.28Z" fill="#34AA96"/>
<path d="M133.207 272.28H140.047V261.696C140.047 259.572 141.199 258.42 142.819 258.42C144.439 258.42 145.519 259.572 145.519 261.696V272.28H152.323V261.696C152.323 259.572 153.511 258.42 155.131 258.42C156.751 258.42 157.795 259.572 157.795 261.696V272.28H164.635V259.5C164.635 254.964 162.115 252.372 157.975 252.372C155.131 252.372 153.151 253.596 151.459 255.54C150.415 253.524 148.435 252.372 145.843 252.372C143.107 252.372 141.307 253.848 140.047 255.468V252.804H133.207V272.28Z" fill="#34AA96"/>
<path d="M168.188 251.04H175.281V246H168.188V251.04ZM168.333 272.28H175.137V252.804H168.333V272.28Z" fill="#34AA96"/>
<path d="M179.161 272.28H185.965V246H179.161V272.28Z" fill="#34AA96"/>
<path d="M189.989 272.28H196.793V246H189.989V272.28Z" fill="#34AA96"/>
<path d="M200.673 251.04H207.765V246H200.673V251.04ZM200.817 272.28H207.621V252.804H200.817V272.28Z" fill="#34AA96"/>
<path d="M221.401 272.748C227.665 272.748 232.201 268.104 232.201 262.56V262.488C232.201 256.944 227.701 252.372 221.473 252.372C215.245 252.372 210.709 257.016 210.709 262.56V262.632C210.709 268.176 215.209 272.748 221.401 272.748ZM221.473 266.952C219.061 266.952 217.333 264.936 217.333 262.56V262.488C217.333 260.112 218.917 258.132 221.401 258.132C223.813 258.132 225.577 260.148 225.577 262.56V262.632C225.577 264.972 223.957 266.952 221.473 266.952Z" fill="#34AA96"/>
<path d="M235.09 272.28H241.93V261.732C241.93 259.572 243.154 258.42 244.81 258.42C246.466 258.42 247.582 259.572 247.582 261.732V272.28H254.386V259.536C254.386 255.108 251.902 252.372 247.762 252.372C244.99 252.372 243.19 253.92 241.93 255.54V252.804H235.09V272.28Z" fill="#34AA96"/>
<path d="M276.49 271.584C277.526 271.584 278.338 271.36 279.094 270.968V269.12C278.338 269.484 277.722 269.624 276.994 269.624C275.538 269.624 274.558 268.98 274.558 267.216V258.76H279.15V256.856H274.558V252.488H272.402V256.856H270.386V258.76H272.402V267.496C272.402 270.436 274.166 271.584 276.49 271.584Z" fill="#443A3D"/>
<path d="M289.164 271.668C293.532 271.668 296.752 268.196 296.752 264.108V264.052C296.752 259.964 293.56 256.548 289.22 256.548C284.852 256.548 281.66 260.02 281.66 264.108V264.164C281.66 268.252 284.824 271.668 289.164 271.668ZM289.22 269.736C286.168 269.736 283.872 267.216 283.872 264.108V264.052C283.872 261 286.028 258.452 289.164 258.452C292.216 258.452 294.54 261 294.54 264.108V264.164C294.54 267.216 292.356 269.736 289.22 269.736Z" fill="#443A3D"/>
<path d="M305.502 271.584C306.538 271.584 307.35 271.36 308.106 270.968V269.12C307.35 269.484 306.734 269.624 306.006 269.624C304.55 269.624 303.57 268.98 303.57 267.216V258.76H308.162V256.856H303.57V252.488H301.414V256.856H299.398V258.76H301.414V267.496C301.414 270.436 303.178 271.584 305.502 271.584Z" fill="#443A3D"/>
<path d="M316.29 271.64C318.838 271.64 320.518 270.464 321.526 269.148V271.332H323.598V262.484C323.598 260.636 323.094 259.236 322.114 258.256C321.05 257.192 319.482 256.66 317.438 256.66C315.338 256.66 313.77 257.136 312.174 257.864L312.818 259.628C314.162 259.012 315.506 258.564 317.214 258.564C319.93 258.564 321.526 259.908 321.526 262.512V263.016C320.238 262.652 318.922 262.4 317.074 262.4C313.406 262.4 310.886 264.024 310.886 267.076V267.132C310.886 270.1 313.602 271.64 316.29 271.64ZM316.71 269.932C314.75 269.932 313.07 268.868 313.07 267.048V266.992C313.07 265.172 314.582 263.996 317.298 263.996C319.062 263.996 320.49 264.304 321.554 264.612V266.012C321.554 268.308 319.37 269.932 316.71 269.932Z" fill="#443A3D"/>
<path d="M328.389 271.332H330.545V250.892H328.389V271.332Z" fill="#443A3D"/>
<path d="M343.943 271.332H346.099V263.072C346.099 260.412 347.835 258.508 350.131 258.508C352.427 258.508 353.855 260.104 353.855 262.82V271.332H356.011V262.988C356.011 260.132 357.803 258.508 359.987 258.508C362.339 258.508 363.739 260.076 363.739 262.876V271.332H365.895V262.372C365.895 258.788 363.851 256.548 360.519 256.548C357.999 256.548 356.459 257.836 355.423 259.432C354.639 257.808 353.127 256.548 350.775 256.548C348.339 256.548 347.051 257.864 346.099 259.292V256.856H343.943V271.332Z" fill="#443A3D"/>
<path d="M376.904 271.668C379.648 271.668 381.412 270.576 382.868 268.952L381.524 267.748C380.348 268.98 378.948 269.792 376.96 269.792C374.384 269.792 372.172 268.028 371.864 264.892H383.344C383.372 264.64 383.372 264.472 383.372 264.192C383.372 259.964 380.908 256.548 376.624 256.548C372.62 256.548 369.68 259.908 369.68 264.08V264.136C369.68 268.616 372.928 271.668 376.904 271.668ZM371.864 263.296C372.144 260.468 374.048 258.368 376.568 258.368C379.452 258.368 380.964 260.664 381.188 263.296H371.864Z" fill="#443A3D"/>
<path d="M391.458 271.64C394.006 271.64 395.686 270.464 396.694 269.148V271.332H398.766V262.484C398.766 260.636 398.262 259.236 397.282 258.256C396.218 257.192 394.65 256.66 392.606 256.66C390.506 256.66 388.938 257.136 387.342 257.864L387.986 259.628C389.33 259.012 390.674 258.564 392.382 258.564C395.098 258.564 396.694 259.908 396.694 262.512V263.016C395.406 262.652 394.09 262.4 392.242 262.4C388.574 262.4 386.054 264.024 386.054 267.076V267.132C386.054 270.1 388.77 271.64 391.458 271.64ZM391.878 269.932C389.918 269.932 388.238 268.868 388.238 267.048V266.992C388.238 265.172 389.75 263.996 392.466 263.996C394.23 263.996 395.658 264.304 396.722 264.612V266.012C396.722 268.308 394.538 269.932 391.878 269.932Z" fill="#443A3D"/>
<path d="M403.557 271.332H405.713V250.892H403.557V271.332Z" fill="#443A3D"/>
<path d="M415.505 271.612C418.389 271.612 420.657 270.016 420.657 267.272V267.216C420.657 264.612 418.249 263.744 416.009 263.072C414.077 262.484 412.285 261.952 412.285 260.58V260.524C412.285 259.32 413.377 258.424 415.085 258.424C416.485 258.424 418.025 258.956 419.369 259.824L420.349 258.2C418.865 257.22 416.905 256.604 415.141 256.604C412.285 256.604 410.213 258.256 410.213 260.748V260.804C410.213 263.464 412.733 264.248 415.001 264.892C416.905 265.424 418.613 265.984 418.613 267.44V267.496C418.613 268.896 417.353 269.792 415.617 269.792C413.909 269.792 412.173 269.12 410.605 267.944L409.513 269.484C411.137 270.8 413.433 271.612 415.505 271.612Z" fill="#443A3D"/>
<path d="M439.132 271.64C441.792 271.64 443.5 270.156 444.676 268.42V271.332H446.832V250.892H444.676V259.628C443.556 258.004 441.82 256.548 439.132 256.548C435.66 256.548 432.216 259.348 432.216 264.08V264.136C432.216 268.896 435.66 271.64 439.132 271.64ZM439.524 269.708C436.808 269.708 434.428 267.524 434.428 264.108V264.052C434.428 260.552 436.724 258.48 439.524 258.48C442.212 258.48 444.76 260.72 444.76 264.052V264.108C444.76 267.44 442.212 269.708 439.524 269.708Z" fill="#443A3D"/>
<path d="M457.978 271.668C460.722 271.668 462.486 270.576 463.942 268.952L462.598 267.748C461.422 268.98 460.022 269.792 458.034 269.792C455.458 269.792 453.246 268.028 452.938 264.892H464.418C464.446 264.64 464.446 264.472 464.446 264.192C464.446 259.964 461.982 256.548 457.698 256.548C453.694 256.548 450.754 259.908 450.754 264.08V264.136C450.754 268.616 454.002 271.668 457.978 271.668ZM452.938 263.296C453.218 260.468 455.122 258.368 457.642 258.368C460.526 258.368 462.038 260.664 462.262 263.296H452.938Z" fill="#443A3D"/>
<path d="M468.416 271.332H470.572V250.892H468.416V271.332Z" fill="#443A3D"/>
<path d="M475.632 253.692H478.096V251.312H475.632V253.692ZM475.772 271.332H477.928V256.856H475.772V271.332Z" fill="#443A3D"/>
<path d="M487.775 271.444H489.679L495.979 256.856H493.655L488.755 268.868L483.883 256.856H481.503L487.775 271.444Z" fill="#443A3D"/>
<path d="M504.845 271.668C507.589 271.668 509.353 270.576 510.809 268.952L509.465 267.748C508.289 268.98 506.889 269.792 504.901 269.792C502.325 269.792 500.113 268.028 499.805 264.892H511.285C511.313 264.64 511.313 264.472 511.313 264.192C511.313 259.964 508.849 256.548 504.565 256.548C500.561 256.548 497.621 259.908 497.621 264.08V264.136C497.621 268.616 500.869 271.668 504.845 271.668ZM499.805 263.296C500.085 260.468 501.989 258.368 504.509 258.368C507.393 258.368 508.905 260.664 509.129 263.296H499.805Z" fill="#443A3D"/>
<path d="M515.088 271.332H517.244V265.564C517.244 261.196 519.82 258.928 522.984 258.928H523.152V256.604C520.408 256.492 518.308 258.228 517.244 260.636V256.856H515.088V271.332Z" fill="#443A3D"/>
<path d="M532.134 271.668C534.878 271.668 536.642 270.576 538.098 268.952L536.754 267.748C535.578 268.98 534.178 269.792 532.19 269.792C529.614 269.792 527.402 268.028 527.094 264.892H538.574C538.602 264.64 538.602 264.472 538.602 264.192C538.602 259.964 536.138 256.548 531.854 256.548C527.85 256.548 524.91 259.908 524.91 264.08V264.136C524.91 268.616 528.158 271.668 532.134 271.668ZM527.094 263.296C527.374 260.468 529.278 258.368 531.798 258.368C534.682 258.368 536.194 260.664 536.418 263.296H527.094Z" fill="#443A3D"/>
<path d="M548.453 271.64C551.113 271.64 552.821 270.156 553.997 268.42V271.332H556.153V250.892H553.997V259.628C552.877 258.004 551.141 256.548 548.453 256.548C544.981 256.548 541.537 259.348 541.537 264.08V264.136C541.537 268.896 544.981 271.64 548.453 271.64ZM548.845 269.708C546.129 269.708 543.749 267.524 543.749 264.108V264.052C543.749 260.552 546.045 258.48 548.845 258.48C551.533 258.48 554.081 260.72 554.081 264.052V264.108C554.081 267.44 551.533 269.708 548.845 269.708Z" fill="#443A3D"/>
<path d="M560.186 274.748C562.314 274.272 563.294 273.18 563.294 270.912V268.392H560.718V271.332H561.726C561.838 272.536 561.25 273.264 559.85 273.768L560.186 274.748Z" fill="#443A3D"/>
<path d="M51.6011 325.28H71.5451V319.592H61.1411L65.4611 316.568C69.2051 313.868 71.2931 311.78 71.2931 307.748V307.676C71.2931 302.924 67.5131 299.648 62.0051 299.648C57.1451 299.648 54.4451 301.556 51.7451 305.048L56.4611 308.972C58.4411 306.704 59.7731 305.696 61.4651 305.696C63.1931 305.696 64.3091 306.668 64.3091 308.288C64.3091 309.8 63.3731 310.988 61.0331 312.824L51.6011 320.024V325.28Z" fill="#D56418"/>
<path d="M74.9341 325.28H82.6381L93.7621 305.336V300.08H74.3581V305.948H86.0221L74.9341 325.28Z" fill="#D56418"/>
<path d="M106.636 325.28H113.476V314.696C113.476 312.572 114.628 311.42 116.248 311.42C117.868 311.42 118.948 312.572 118.948 314.696V325.28H125.752V314.696C125.752 312.572 126.94 311.42 128.56 311.42C130.18 311.42 131.224 312.572 131.224 314.696V325.28H138.064V312.5C138.064 307.964 135.544 305.372 131.404 305.372C128.56 305.372 126.58 306.596 124.888 308.54C123.844 306.524 121.864 305.372 119.272 305.372C116.536 305.372 114.736 306.848 113.476 308.468V305.804H106.636V325.28Z" fill="#D56418"/>
<path d="M141.617 304.04H148.709V299H141.617V304.04ZM141.761 325.28H148.565V305.804H141.761V325.28Z" fill="#D56418"/>
<path d="M152.589 325.28H159.393V299H152.589V325.28Z" fill="#D56418"/>
<path d="M163.417 325.28H170.221V299H163.417V325.28Z" fill="#D56418"/>
<path d="M174.101 304.04H181.193V299H174.101V304.04ZM174.245 325.28H181.049V305.804H174.245V325.28Z" fill="#D56418"/>
<path d="M194.83 325.748C201.094 325.748 205.63 321.104 205.63 315.56V315.488C205.63 309.944 201.13 305.372 194.902 305.372C188.674 305.372 184.138 310.016 184.138 315.56V315.632C184.138 321.176 188.638 325.748 194.83 325.748ZM194.902 319.952C192.49 319.952 190.762 317.936 190.762 315.56V315.488C190.762 313.112 192.346 311.132 194.83 311.132C197.242 311.132 199.006 313.148 199.006 315.56V315.632C199.006 317.972 197.386 319.952 194.902 319.952Z" fill="#D56418"/>
<path d="M208.519 325.28H215.359V314.732C215.359 312.572 216.583 311.42 218.239 311.42C219.895 311.42 221.011 312.572 221.011 314.732V325.28H227.815V312.536C227.815 308.108 225.331 305.372 221.191 305.372C218.419 305.372 216.619 306.92 215.359 308.54V305.804H208.519V325.28Z" fill="#D56418"/>
<path d="M248.882 325.524H250.786L254.706 314.1L258.598 325.524H260.474L265.57 310.936H263.33L259.522 322.556L255.602 310.88H253.81L249.918 322.556L246.11 310.936H243.814L248.882 325.524Z" fill="#443A3D"/>
<path d="M274.781 325.748C277.525 325.748 279.289 324.656 280.745 323.032L279.401 321.828C278.225 323.06 276.825 323.872 274.837 323.872C272.261 323.872 270.049 322.108 269.741 318.972H281.221C281.249 318.72 281.249 318.552 281.249 318.272C281.249 314.044 278.785 310.628 274.501 310.628C270.497 310.628 267.557 313.988 267.557 318.16V318.216C267.557 322.696 270.805 325.748 274.781 325.748ZM269.741 317.376C270.021 314.548 271.925 312.448 274.445 312.448C277.329 312.448 278.841 314.744 279.065 317.376H269.741Z" fill="#443A3D"/>
<path d="M285.023 325.412H287.179V319.644C287.179 315.276 289.755 313.008 292.919 313.008H293.087V310.684C290.343 310.572 288.243 312.308 287.179 314.716V310.936H285.023V325.412Z" fill="#443A3D"/>
<path d="M302.07 325.748C304.814 325.748 306.578 324.656 308.034 323.032L306.69 321.828C305.514 323.06 304.114 323.872 302.126 323.872C299.55 323.872 297.338 322.108 297.03 318.972H308.51C308.538 318.72 308.538 318.552 308.538 318.272C308.538 314.044 306.074 310.628 301.79 310.628C297.786 310.628 294.846 313.988 294.846 318.16V318.216C294.846 322.696 298.094 325.748 302.07 325.748ZM297.03 317.376C297.31 314.548 299.214 312.448 301.734 312.448C304.618 312.448 306.13 314.744 306.354 317.376H297.03Z" fill="#443A3D"/>
<path d="M320.707 325.412H322.863V321.632L325.803 318.664L330.983 325.412H333.559L327.287 317.152L333.363 310.936H330.675L322.863 319.084V304.972H320.707V325.412Z" fill="#443A3D"/>
<path d="M342.545 325.748C346.913 325.748 350.133 322.276 350.133 318.188V318.132C350.133 314.044 346.941 310.628 342.601 310.628C338.233 310.628 335.041 314.1 335.041 318.188V318.244C335.041 322.332 338.205 325.748 342.545 325.748ZM342.601 323.816C339.549 323.816 337.253 321.296 337.253 318.188V318.132C337.253 315.08 339.409 312.532 342.545 312.532C345.597 312.532 347.921 315.08 347.921 318.188V318.244C347.921 321.296 345.737 323.816 342.601 323.816Z" fill="#443A3D"/>
<path d="M358.827 325.692C361.711 325.692 363.979 324.096 363.979 321.352V321.296C363.979 318.692 361.571 317.824 359.331 317.152C357.399 316.564 355.607 316.032 355.607 314.66V314.604C355.607 313.4 356.699 312.504 358.407 312.504C359.807 312.504 361.347 313.036 362.691 313.904L363.671 312.28C362.187 311.3 360.227 310.684 358.463 310.684C355.607 310.684 353.535 312.336 353.535 314.828V314.884C353.535 317.544 356.055 318.328 358.323 318.972C360.227 319.504 361.935 320.064 361.935 321.52V321.576C361.935 322.976 360.675 323.872 358.939 323.872C357.231 323.872 355.495 323.2 353.927 322.024L352.835 323.564C354.459 324.88 356.755 325.692 358.827 325.692Z" fill="#443A3D"/>
<path d="M367.984 325.412H370.14V317.124C370.14 314.408 371.988 312.588 374.48 312.588C377.028 312.588 378.484 314.268 378.484 316.956V325.412H380.64V316.424C380.64 312.98 378.596 310.628 375.096 310.628C372.604 310.628 371.092 311.888 370.14 313.456V304.972H367.984V325.412Z" fill="#443A3D"/>
<path d="M391.566 325.748C394.31 325.748 396.074 324.656 397.53 323.032L396.186 321.828C395.01 323.06 393.61 323.872 391.622 323.872C389.046 323.872 386.834 322.108 386.526 318.972H398.006C398.034 318.72 398.034 318.552 398.034 318.272C398.034 314.044 395.57 310.628 391.286 310.628C387.282 310.628 384.342 313.988 384.342 318.16V318.216C384.342 322.696 387.59 325.748 391.566 325.748ZM386.526 317.376C386.806 314.548 388.71 312.448 391.23 312.448C394.114 312.448 395.626 314.744 395.85 317.376H386.526Z" fill="#443A3D"/>
<path d="M401.808 325.412H403.964V319.644C403.964 315.276 406.54 313.008 409.704 313.008H409.872V310.684C407.128 310.572 405.028 312.308 403.964 314.716V310.936H401.808V325.412Z" fill="#443A3D"/>
<path d="M425.862 325.72C428.41 325.72 430.09 324.544 431.098 323.228V325.412H433.17V316.564C433.17 314.716 432.666 313.316 431.686 312.336C430.622 311.272 429.054 310.74 427.01 310.74C424.91 310.74 423.342 311.216 421.746 311.944L422.39 313.708C423.734 313.092 425.078 312.644 426.786 312.644C429.502 312.644 431.098 313.988 431.098 316.592V317.096C429.81 316.732 428.494 316.48 426.646 316.48C422.978 316.48 420.458 318.104 420.458 321.156V321.212C420.458 324.18 423.174 325.72 425.862 325.72ZM426.282 324.012C424.322 324.012 422.642 322.948 422.642 321.128V321.072C422.642 319.252 424.154 318.076 426.87 318.076C428.634 318.076 430.062 318.384 431.126 318.692V320.092C431.126 322.388 428.942 324.012 426.282 324.012Z" fill="#443A3D"/>
<path d="M437.765 325.412H439.921V317.124C439.921 314.408 441.769 312.588 444.261 312.588C446.809 312.588 448.265 314.268 448.265 316.956V325.412H450.421V316.424C450.421 312.98 448.377 310.628 444.877 310.628C442.385 310.628 440.873 311.888 439.921 313.456V310.936H437.765V325.412Z" fill="#443A3D"/>
<path d="M461.095 325.72C463.755 325.72 465.463 324.236 466.639 322.5V325.412H468.795V304.972H466.639V313.708C465.519 312.084 463.783 310.628 461.095 310.628C457.623 310.628 454.179 313.428 454.179 318.16V318.216C454.179 322.976 457.623 325.72 461.095 325.72ZM461.487 323.788C458.771 323.788 456.391 321.604 456.391 318.188V318.132C456.391 314.632 458.687 312.56 461.487 312.56C464.175 312.56 466.723 314.8 466.723 318.132V318.188C466.723 321.52 464.175 323.788 461.487 323.788Z" fill="#443A3D"/>
<path d="M482.007 325.412H484.163V317.124C484.163 314.408 486.011 312.588 488.503 312.588C491.051 312.588 492.507 314.268 492.507 316.956V325.412H494.663V316.424C494.663 312.98 492.619 310.628 489.119 310.628C486.627 310.628 485.115 311.888 484.163 313.456V304.972H482.007V325.412Z" fill="#443A3D"/>
<path d="M503.573 325.72C506.121 325.72 507.801 324.544 508.809 323.228V325.412H510.881V316.564C510.881 314.716 510.377 313.316 509.397 312.336C508.333 311.272 506.765 310.74 504.721 310.74C502.621 310.74 501.053 311.216 499.457 311.944L500.101 313.708C501.445 313.092 502.789 312.644 504.497 312.644C507.213 312.644 508.809 313.988 508.809 316.592V317.096C507.521 316.732 506.205 316.48 504.357 316.48C500.689 316.48 498.169 318.104 498.169 321.156V321.212C498.169 324.18 500.885 325.72 503.573 325.72ZM503.993 324.012C502.033 324.012 500.353 322.948 500.353 321.128V321.072C500.353 319.252 501.865 318.076 504.581 318.076C506.345 318.076 507.773 318.384 508.837 318.692V320.092C508.837 322.388 506.653 324.012 503.993 324.012Z" fill="#443A3D"/>
<path d="M515.672 325.412H517.828V304.972H515.672V325.412Z" fill="#443A3D"/>
<path d="M527.144 325.72C529.692 325.72 531.372 324.544 532.38 323.228V325.412H534.452V316.564C534.452 314.716 533.948 313.316 532.968 312.336C531.904 311.272 530.336 310.74 528.292 310.74C526.192 310.74 524.624 311.216 523.028 311.944L523.672 313.708C525.016 313.092 526.36 312.644 528.068 312.644C530.784 312.644 532.38 313.988 532.38 316.592V317.096C531.092 316.732 529.776 316.48 527.928 316.48C524.26 316.48 521.74 318.104 521.74 321.156V321.212C521.74 324.18 524.456 325.72 527.144 325.72ZM527.564 324.012C525.604 324.012 523.924 322.948 523.924 321.128V321.072C523.924 319.252 525.436 318.076 528.152 318.076C529.916 318.076 531.344 318.384 532.408 318.692V320.092C532.408 322.388 530.224 324.012 527.564 324.012Z" fill="#443A3D"/>
<path d="M539.242 325.412H541.398V304.972H539.242V325.412Z" fill="#443A3D"/>
<defs>
<clipPath id="clip0_649_7376">
<rect width="210" height="176" fill="white" transform="translate(191.5 30)"/>
</clipPath>
</defs>
</svg>
