<svg width="524" height="264" viewBox="0 0 524 264" fill="none" xmlns="http://www.w3.org/2000/svg">
<rect y="16" width="524" height="232" rx="10" fill="#DFE8EB"/>
<path d="M345.397 81.2109H375.867V72.5209H359.972L366.572 67.9009C372.292 63.7759 375.482 60.5859 375.482 54.4259V54.3159C375.482 47.0559 369.707 42.0509 361.292 42.0509C353.867 42.0509 349.742 44.9659 345.617 50.3009L352.822 56.2959C355.847 52.8309 357.882 51.2909 360.467 51.2909C363.107 51.2909 364.812 52.7759 364.812 55.2509C364.812 57.5609 363.382 59.3759 359.807 62.1809L345.397 73.1809V81.2109Z" fill="#34AA96"/>
<path d="M381.044 81.2109H392.814L409.809 50.7409V42.7109H380.164V51.6759H397.984L381.044 81.2109Z" fill="#34AA96"/>
<path d="M288.474 145.211H298.924V123.156L308.714 138.171H308.934L318.779 123.101V145.211H329.394V106.711H318.119L308.934 121.616L299.749 106.711H288.474V145.211Z" fill="#34AA96"/>
<path d="M335.673 112.761H346.508V105.061H335.673V112.761ZM335.893 145.211H346.288V115.456H335.893V145.211Z" fill="#34AA96"/>
<path d="M352.436 145.211H362.831V105.061H352.436V145.211Z" fill="#34AA96"/>
<path d="M368.979 145.211H379.374V105.061H368.979V145.211Z" fill="#34AA96"/>
<path d="M385.302 112.761H396.137V105.061H385.302V112.761ZM385.522 145.211H395.917V115.456H385.522V145.211Z" fill="#34AA96"/>
<path d="M416.97 145.926C426.54 145.926 433.47 138.831 433.47 130.361V130.251C433.47 121.781 426.595 114.796 417.08 114.796C407.565 114.796 400.635 121.891 400.635 130.361V130.471C400.635 138.941 407.51 145.926 416.97 145.926ZM417.08 137.071C413.395 137.071 410.755 133.991 410.755 130.361V130.251C410.755 126.621 413.175 123.596 416.97 123.596C420.655 123.596 423.35 126.676 423.35 130.361V130.471C423.35 134.046 420.875 137.071 417.08 137.071Z" fill="#34AA96"/>
<path d="M437.883 145.211H448.333V129.096C448.333 125.796 450.203 124.036 452.733 124.036C455.263 124.036 456.968 125.796 456.968 129.096V145.211H467.363V125.741C467.363 118.976 463.568 114.796 457.243 114.796C453.008 114.796 450.258 117.161 448.333 119.636V115.456H437.883V145.211Z" fill="#34AA96"/>
<path d="M264.667 191.211H267.373V186.745L269.771 184.281L275.029 191.211H278.329L271.619 182.433L278.043 175.811H274.699L267.373 183.555V175.811H264.667V191.211Z" fill="black"/>
<path d="M285.178 191.475C288.764 191.475 291.404 188.725 291.404 185.425V185.381C291.404 182.059 288.786 179.353 285.222 179.353C281.658 179.353 279.018 182.103 279.018 185.425V185.469C279.018 188.769 281.636 191.475 285.178 191.475ZM285.222 189.143C283.154 189.143 281.68 187.449 281.68 185.425V185.381C281.68 183.357 283.044 181.685 285.178 181.685C287.268 181.685 288.742 183.379 288.742 185.425V185.469C288.742 187.471 287.378 189.143 285.222 189.143Z" fill="black"/>
<path d="M298.097 191.431C300.517 191.431 302.409 190.221 302.409 187.779V187.735C302.409 185.645 300.495 184.875 298.801 184.347C297.437 183.907 296.183 183.555 296.183 182.697V182.653C296.183 181.993 296.777 181.509 297.811 181.509C298.779 181.509 299.967 181.927 301.089 182.609L302.145 180.717C300.913 179.903 299.329 179.397 297.877 179.397C295.567 179.397 293.741 180.739 293.741 182.939V182.983C293.741 185.205 295.655 185.909 297.371 186.393C298.735 186.811 299.967 187.119 299.967 188.021V188.065C299.967 188.835 299.307 189.319 298.163 189.319C296.975 189.319 295.633 188.835 294.357 187.889L293.169 189.693C294.621 190.837 296.447 191.431 298.097 191.431Z" fill="black"/>
<path d="M305.137 191.211H307.799V184.655C307.799 182.851 308.877 181.773 310.417 181.773C312.001 181.773 312.903 182.807 312.903 184.611V191.211H315.565V183.797C315.565 181.113 314.047 179.353 311.429 179.353C309.625 179.353 308.547 180.299 307.799 181.377V175.151H305.137V191.211Z" fill="black"/>
<path d="M324.103 191.475C326.237 191.475 327.755 190.617 328.855 189.297L327.293 187.911C326.369 188.813 325.445 189.297 324.147 189.297C322.431 189.297 321.089 188.241 320.803 186.349H329.339C329.361 186.085 329.383 185.843 329.383 185.601C329.383 182.257 327.513 179.353 323.817 179.353C320.495 179.353 318.141 182.081 318.141 185.403V185.447C318.141 189.033 320.737 191.475 324.103 191.475ZM320.781 184.589C321.023 182.785 322.167 181.531 323.795 181.531C325.555 181.531 326.567 182.873 326.743 184.589H320.781Z" fill="black"/>
<path d="M332.057 191.211H334.719V186.789C334.719 183.709 336.347 182.191 338.679 182.191H338.833V179.375C336.787 179.287 335.445 180.475 334.719 182.213V179.595H332.057V191.211Z" fill="black"/>
<path d="M358.718 191.519L360.742 190.067L358.3 187.603C359.092 186.547 359.774 185.337 360.39 184.105L358.344 183.027C357.838 184.105 357.288 185.117 356.694 185.997L354.054 183.313C356.1 182.543 357.442 181.333 357.442 179.309V179.265C357.442 177.197 355.792 175.547 353.35 175.547C350.6 175.547 348.928 177.351 348.928 179.419V179.463C348.928 180.585 349.324 181.553 350.204 182.675C348.092 183.577 346.926 185.007 346.926 186.987V187.031C346.926 189.693 349.082 191.431 351.964 191.431C353.812 191.431 355.352 190.661 356.672 189.429L358.718 191.519ZM352.624 181.861C351.766 180.915 351.458 180.343 351.458 179.573V179.529C351.458 178.451 352.206 177.681 353.306 177.681C354.318 177.681 355.044 178.385 355.044 179.419V179.463C355.044 180.563 354.208 181.289 352.624 181.861ZM352.228 189.187C350.732 189.187 349.654 188.241 349.654 186.943V186.899C349.654 185.909 350.27 184.963 351.7 184.347L355.132 187.845C354.252 188.681 353.284 189.187 352.228 189.187Z" fill="black"/>
<path d="M369.962 191.211H372.668V184.721H380.016V191.211H382.722V175.811H380.016V182.213H372.668V175.811H369.962V191.211Z" fill="black"/>
<path d="M389.713 191.453C391.495 191.453 392.705 190.705 393.497 189.759V191.211H396.093V184.325C396.093 182.807 395.697 181.575 394.839 180.739C394.025 179.903 392.727 179.441 390.989 179.441C389.141 179.441 387.887 179.815 386.611 180.387L387.315 182.477C388.371 182.037 389.339 181.751 390.637 181.751C392.507 181.751 393.519 182.631 393.519 184.281V184.567C392.617 184.281 391.693 184.083 390.395 184.083C387.557 184.083 385.599 185.315 385.599 187.823V187.867C385.599 190.199 387.535 191.453 389.713 191.453ZM390.461 189.517C389.185 189.517 388.195 188.879 388.195 187.757V187.713C388.195 186.503 389.207 185.777 390.923 185.777C391.979 185.777 392.881 185.975 393.563 186.239V187.031C393.563 188.505 392.221 189.517 390.461 189.517Z" fill="black"/>
<path d="M399.435 191.211H402.097V175.151H399.435V191.211Z" fill="black"/>
<path d="M408.92 191.453C410.702 191.453 411.912 190.705 412.704 189.759V191.211H415.3V184.325C415.3 182.807 414.904 181.575 414.046 180.739C413.232 179.903 411.934 179.441 410.196 179.441C408.348 179.441 407.094 179.815 405.818 180.387L406.522 182.477C407.578 182.037 408.546 181.751 409.844 181.751C411.714 181.751 412.726 182.631 412.726 184.281V184.567C411.824 184.281 410.9 184.083 409.602 184.083C406.764 184.083 404.806 185.315 404.806 187.823V187.867C404.806 190.199 406.742 191.453 408.92 191.453ZM409.668 189.517C408.392 189.517 407.402 188.879 407.402 187.757V187.713C407.402 186.503 408.414 185.777 410.13 185.777C411.186 185.777 412.088 185.975 412.77 186.239V187.031C412.77 188.505 411.428 189.517 409.668 189.517Z" fill="black"/>
<path d="M418.642 191.211H421.304V175.151H418.642V191.211Z" fill="black"/>
<path d="M431.687 191.211H434.349V180.211L439.167 187.427H439.255L444.117 180.167V191.211H446.823V175.811H443.941L439.255 183.093L434.569 175.811H431.687V191.211Z" fill="black"/>
<path d="M455.803 191.475C457.937 191.475 459.455 190.617 460.555 189.297L458.993 187.911C458.069 188.813 457.145 189.297 455.847 189.297C454.131 189.297 452.789 188.241 452.503 186.349H461.039C461.061 186.085 461.083 185.843 461.083 185.601C461.083 182.257 459.213 179.353 455.517 179.353C452.195 179.353 449.841 182.081 449.841 185.403V185.447C449.841 189.033 452.437 191.475 455.803 191.475ZM452.481 184.589C452.723 182.785 453.867 181.531 455.495 181.531C457.255 181.531 458.267 182.873 458.443 184.589H452.481Z" fill="black"/>
<path d="M467.1 191.453C468.882 191.453 470.092 190.705 470.884 189.759V191.211H473.48V184.325C473.48 182.807 473.084 181.575 472.226 180.739C471.412 179.903 470.114 179.441 468.376 179.441C466.528 179.441 465.274 179.815 463.998 180.387L464.702 182.477C465.758 182.037 466.726 181.751 468.024 181.751C469.894 181.751 470.906 182.631 470.906 184.281V184.567C470.004 184.281 469.08 184.083 467.782 184.083C464.944 184.083 462.986 185.315 462.986 187.823V187.867C462.986 190.199 464.922 191.453 467.1 191.453ZM467.848 189.517C466.572 189.517 465.582 188.879 465.582 187.757V187.713C465.582 186.503 466.594 185.777 468.31 185.777C469.366 185.777 470.268 185.975 470.95 186.239V187.031C470.95 188.505 469.608 189.517 467.848 189.517Z" fill="black"/>
<path d="M476.822 191.211H479.484V175.151H476.822V191.211Z" fill="black"/>
<path d="M486.945 191.431C489.365 191.431 491.257 190.221 491.257 187.779V187.735C491.257 185.645 489.343 184.875 487.649 184.347C486.285 183.907 485.031 183.555 485.031 182.697V182.653C485.031 181.993 485.625 181.509 486.659 181.509C487.627 181.509 488.815 181.927 489.937 182.609L490.993 180.717C489.761 179.903 488.177 179.397 486.725 179.397C484.415 179.397 482.589 180.739 482.589 182.939V182.983C482.589 185.205 484.503 185.909 486.219 186.393C487.583 186.811 488.815 187.119 488.815 188.021V188.065C488.815 188.835 488.155 189.319 487.011 189.319C485.823 189.319 484.481 188.835 483.205 187.889L482.017 189.693C483.469 190.837 485.295 191.431 486.945 191.431Z" fill="black"/>
<path d="M326.725 223.211H332.467C337.307 223.211 340.651 219.845 340.651 215.511V215.467C340.651 211.133 337.307 207.811 332.467 207.811H326.725V223.211ZM332.467 210.275C335.701 210.275 337.813 212.497 337.813 215.511V215.555C337.813 218.569 335.701 220.747 332.467 220.747H329.431V210.275H332.467Z" fill="black"/>
<path d="M348.95 223.475C351.084 223.475 352.602 222.617 353.702 221.297L352.14 219.911C351.216 220.813 350.292 221.297 348.994 221.297C347.278 221.297 345.936 220.241 345.65 218.349H354.186C354.208 218.085 354.23 217.843 354.23 217.601C354.23 214.257 352.36 211.353 348.664 211.353C345.342 211.353 342.988 214.081 342.988 217.403V217.447C342.988 221.033 345.584 223.475 348.95 223.475ZM345.628 216.589C345.87 214.785 347.014 213.531 348.642 213.531C350.402 213.531 351.414 214.873 351.59 216.589H345.628Z" fill="black"/>
<path d="M357.057 223.211H359.719V207.151H357.057V223.211Z" fill="black"/>
<path d="M363.242 209.813H366.102V207.283H363.242V209.813ZM363.352 223.211H366.014V211.595H363.352V223.211Z" fill="black"/>
<path d="M373.167 223.299H375.565L380.317 211.595H377.523L374.377 220.131L371.253 211.595H368.393L373.167 223.299Z" fill="black"/>
<path d="M387.235 223.475C389.369 223.475 390.887 222.617 391.987 221.297L390.425 219.911C389.501 220.813 388.577 221.297 387.279 221.297C385.563 221.297 384.221 220.241 383.935 218.349H392.471C392.493 218.085 392.515 217.843 392.515 217.601C392.515 214.257 390.645 211.353 386.949 211.353C383.627 211.353 381.273 214.081 381.273 217.403V217.447C381.273 221.033 383.869 223.475 387.235 223.475ZM383.913 216.589C384.155 214.785 385.299 213.531 386.927 213.531C388.687 213.531 389.699 214.873 389.875 216.589H383.913Z" fill="black"/>
<path d="M395.189 223.211H397.851V218.789C397.851 215.709 399.479 214.191 401.811 214.191H401.965V211.375C399.919 211.287 398.577 212.475 397.851 214.213V211.595H395.189V223.211Z" fill="black"/>
<path d="M409.214 223.475C411.348 223.475 412.866 222.617 413.966 221.297L412.404 219.911C411.48 220.813 410.556 221.297 409.258 221.297C407.542 221.297 406.2 220.241 405.914 218.349H414.45C414.472 218.085 414.494 217.843 414.494 217.601C414.494 214.257 412.624 211.353 408.928 211.353C405.606 211.353 403.252 214.081 403.252 217.403V217.447C403.252 221.033 405.848 223.475 409.214 223.475ZM405.892 216.589C406.134 214.785 407.278 213.531 408.906 213.531C410.666 213.531 411.678 214.873 411.854 216.589H405.892Z" fill="black"/>
<path d="M421.963 223.453C423.855 223.453 425.065 222.485 425.923 221.275V223.211H428.585V207.151H425.923V213.399C425.087 212.299 423.877 211.353 421.963 211.353C419.191 211.353 416.573 213.531 416.573 217.381V217.425C416.573 221.275 419.235 223.453 421.963 223.453ZM422.601 221.143C420.797 221.143 419.257 219.669 419.257 217.425V217.381C419.257 215.071 420.775 213.663 422.601 213.663C424.383 213.663 425.967 215.137 425.967 217.381V217.425C425.967 219.647 424.383 221.143 422.601 221.143Z" fill="black"/>
<path d="M158.003 264C202.186 264 238.003 228.183 238.003 184C238.003 139.817 202.186 104 158.003 104C113.821 104 78.0034 139.817 78.0034 184C78.0034 228.183 113.821 264 158.003 264Z" fill="#D4931B"/>
<path d="M130.358 167.017C132.643 168.594 139.729 173.394 142.815 174.309C144.285 174.899 145.899 175.026 147.443 174.674C149.048 174.25 150.754 174.434 152.232 175.189C153.375 175.726 154.769 176.331 156.358 177.063C153.981 178.011 151.238 179.051 148.095 180.149C142.655 182.046 135.523 185.029 132.655 187.006C132.209 187.303 132.255 188.377 132.472 188.869L132.815 189.6C133.043 190.08 133.843 190.811 134.358 190.663C137.786 189.703 144.643 186.194 149.546 183.246C152.975 181.166 156.083 179.486 158.689 178.137C161.238 179.349 164.175 180.857 167.466 182.823C172.403 185.76 179.238 189.257 182.621 190.217C182.89 190.274 183.171 190.239 183.418 190.117C183.665 189.994 183.863 189.792 183.981 189.543L184.278 188.914C184.386 188.662 184.409 188.382 184.343 188.116C184.277 187.85 184.125 187.612 183.912 187.44C181.009 185.474 173.923 182.491 168.506 180.583C165.341 179.44 162.609 178.366 160.255 177.314C161.935 176.469 163.398 175.76 164.632 175.189C165.488 174.752 166.428 174.504 167.389 174.462C168.349 174.421 169.307 174.587 170.198 174.949C172.106 176 174.929 176 178.266 174.434C183.249 172.149 187.055 167.44 185.683 164.491C184.312 161.543 178.278 161.463 173.306 163.783C169.958 165.349 168.141 167.497 167.718 169.634C167.424 170.551 166.937 171.393 166.288 172.103C165.639 172.813 164.844 173.374 163.958 173.749C162.403 174.48 160.461 175.349 158.095 176.331C156.026 175.36 154.289 174.503 152.861 173.829C151.347 173.18 150.126 171.996 149.432 170.503C148.963 169.6 148.552 168.754 146.175 167.189C143.501 165.406 135.261 163.051 132.586 162.331C132.072 162.194 132.038 162.274 132.518 162.514C132.518 162.514 139.889 166.046 142.323 167.269C142.461 167.337 142.803 167.52 142.689 167.76C142.575 168 142.221 167.851 142.083 167.76C139.501 166.857 131.901 163.794 131.901 163.794C131.398 163.6 131.341 163.726 131.821 163.966C131.821 163.966 139.181 167.566 141.569 168.971C141.752 169.074 141.992 169.223 141.889 169.44C141.786 169.657 141.523 169.566 141.318 169.497C138.712 168.571 131.226 165.246 131.226 165.246C130.735 165.029 130.666 165.154 131.135 165.417C131.135 165.417 138.369 169.269 140.723 170.663C140.849 170.743 141.181 170.96 141.078 171.166C140.975 171.371 140.609 171.257 140.472 171.166C137.969 170.091 130.529 166.709 130.529 166.709C129.958 166.629 129.912 166.709 130.358 167.017Z" fill="white"/>
<path d="M146.643 152.286V163.429C146.643 164.914 151.512 166.126 157.523 166.126C163.535 166.126 168.403 164.914 168.403 163.429V152.331C169.732 152.101 170.926 151.382 171.752 150.316C172.578 149.25 172.975 147.913 172.867 146.569C172.758 145.225 172.151 143.97 171.164 143.051C170.178 142.132 168.883 141.614 167.535 141.6C166.416 141.596 165.325 141.944 164.415 142.594C163.901 141.183 162.963 139.965 161.73 139.107C160.496 138.25 159.028 137.795 157.526 137.805C156.023 137.815 154.561 138.289 153.339 139.163C152.117 140.037 151.196 141.267 150.701 142.686C150.043 142.187 149.28 141.845 148.47 141.687C147.66 141.528 146.825 141.557 146.028 141.772C145.231 141.986 144.493 142.381 143.872 142.924C143.251 143.468 142.763 144.146 142.445 144.908C142.126 145.67 141.987 146.494 142.037 147.318C142.086 148.142 142.324 148.943 142.732 149.661C143.139 150.379 143.706 150.994 144.388 151.459C145.07 151.923 145.849 152.226 146.666 152.343L146.643 152.286Z" fill="white"/>
<path d="M127.741 203.566H131.501V206.549H130.335V209.166H136.758V206.549H135.615V197.943H136.758V195.337H130.335V197.943H131.501V200.937H127.741V197.943H128.963V195.337H122.563V197.943H123.649V206.549H122.563V209.166H128.963V206.549H127.741V203.566Z" fill="white"/>
<path d="M145.306 209.143H153.238V206.549H151.855L148.346 195.314H140.758V197.863H141.569L138.895 206.549H137.546V209.143H143.844V206.549H142.301L142.712 205.2H146.769L147.181 206.549H145.306V209.143ZM143.444 202.834L144.735 198.56L146.038 202.834H143.444Z" fill="white"/>
<path d="M154.026 206.526V209.166H165.101V204.023H161.786V206.526H159.226V197.943H160.278V195.337H154.026V197.943H155.112V206.526H154.026Z" fill="white"/>
<path d="M173.649 209.143H181.581V206.549H180.198L176.689 195.314H169.101V197.863H169.912L167.238 206.549H165.901V209.143H172.187V206.549H170.644L171.055 205.2H175.147L175.558 206.549H173.684L173.649 209.143ZM171.787 202.834L173.078 198.56L174.381 202.834H171.787Z" fill="white"/>
<path d="M190.129 204.023V206.526H187.569V197.943H188.621V195.337H182.369V197.943H183.455V206.526H182.369V209.166H193.443V204.023H190.129Z" fill="white"/>
<path d="M130.278 218.72H131.512V227.303H130.278V229.931H137.638V227.303H135.626V224.789H139.386V222.16H135.626V218.72H138.609V220.48H142.106V216.103H130.278V218.72Z" fill="white"/>
<path d="M149.649 215.726C145.558 215.726 142.701 218.674 142.701 222.949C142.701 227.897 145.649 230.286 149.786 230.286C154.255 230.286 156.746 227.554 156.746 223.086C156.746 218.617 154.495 215.726 149.649 215.726ZM149.786 227.154C148.518 227.154 147.592 225.52 147.592 222.926C147.592 220.331 148.426 218.731 149.626 218.754C151.146 218.754 151.798 220.674 151.798 223.063C151.798 225.451 151.032 227.177 149.786 227.177V227.154Z" fill="white"/>
<path d="M164.277 215.726C160.186 215.726 157.34 218.674 157.34 222.949C157.34 227.897 160.289 230.286 164.426 230.286C168.895 230.286 171.386 227.554 171.386 223.086C171.386 218.617 169.123 215.726 164.277 215.726ZM164.426 227.154C163.157 227.154 162.22 225.52 162.22 222.926C162.22 220.331 163.055 218.731 164.266 218.754C165.786 218.754 166.437 220.674 166.437 223.063C166.437 225.451 165.672 227.177 164.426 227.177V227.154Z" fill="white"/>
<path d="M178.209 216.103H172.175V218.72H173.398V227.303H172.175V229.931H178.129C182.998 229.931 185.718 227.337 185.718 222.834C185.718 219.051 182.998 216.103 178.209 216.103ZM178.209 227.303H177.432V218.72H178.186C180.278 218.72 181.146 220.709 181.146 222.834C181.169 225.303 180.301 227.257 178.209 227.303Z" fill="white"/>
<path d="M80 160C124.183 160 160 124.183 160 80C160 35.8172 124.183 0 80 0C35.8172 0 0 35.8172 0 80C0 124.183 35.8172 160 80 160Z" fill="#AD2B09"/>
<path fill-rule="evenodd" clip-rule="evenodd" d="M44.3658 82.9829L47.4286 80.3429H48.6515V77.6229H41.6229V80.3429H43.1429L39.2229 83.7829V80.3429H40.3544V77.6229H33.7144V80.3429H34.8572V89.6229H33.7144V92.3657H40.3544V89.6229H39.2229V87.3715L40.7772 86.0343L43.0629 89.6229H41.6229V92.3657H49.8515V89.6229H48.6286L44.3658 82.9829Z" fill="white"/>
<path fill-rule="evenodd" clip-rule="evenodd" d="M58.103 77.2229C53.7373 77.2229 50.6973 80.3658 50.6973 84.9143C50.6973 90.1943 53.8401 92.7429 58.2516 92.7429C63.0173 92.7429 65.6801 89.84 65.6801 85.0629C65.6801 80.2858 63.2687 77.2229 58.103 77.2229ZM58.2516 89.44C56.903 89.44 55.9087 87.68 55.9087 84.8686C55.9087 82.0572 56.7887 80.4 58.0801 80.4229C59.703 80.4229 60.3659 82.4686 60.3659 84.9943C60.3659 87.52 59.5773 89.44 58.2859 89.44H58.2516Z" fill="white"/>
<path fill-rule="evenodd" clip-rule="evenodd" d="M70.4456 90.7429C70.9949 91.3686 71.6744 91.8667 72.4364 92.2023C73.1984 92.5379 74.0245 92.7029 74.857 92.6858C77.3598 92.6858 80.4456 91.5429 80.4456 88.2058C80.4456 83.2572 72.0913 83.7601 72.0913 81.5886C72.0913 80.8458 72.937 80.4458 73.5427 80.4458C73.8837 80.4141 74.2275 80.4536 74.5523 80.562C74.8771 80.6703 75.1759 80.845 75.4295 81.075C75.6832 81.3051 75.8862 81.5853 76.0257 81.8981C76.1652 82.2108 76.2381 82.5491 76.2398 82.8915H80.057V77.6229H76.4341L76.2284 79.3944C75.7607 78.6662 75.1019 78.0807 74.3239 77.7018C73.5458 77.3228 72.6786 77.1651 71.817 77.2458C69.7484 77.2458 66.7884 78.6515 66.7884 81.8172C66.7884 87.2001 74.8913 86.5029 74.8913 88.1486C74.8913 89.0401 73.8398 89.2115 73.097 89.2115C72.3541 89.2115 70.4456 88.8686 70.4456 87.0972H66.5142V92.4115H70.2056L70.4456 90.7429Z" fill="white"/>
<path fill-rule="evenodd" clip-rule="evenodd" d="M96.6399 80.4115V77.6229H89.7828V80.4115H91.0285V83.5886H87.0285V80.4115H88.3314V77.6229H81.4971V80.4115H82.6628V89.5886H81.4971V92.3657H88.3314V89.5886H87.0285V86.4H91.0285V89.5886H89.7828V92.3657H96.6399V89.5886H95.4171V80.4115H96.6399Z" fill="white"/>
<path fill-rule="evenodd" clip-rule="evenodd" d="M97.7026 80.4115H99.0284V89.5658H97.7026V92.3657H110.423V87.6H106.765V89.5658H103.394V86.1258H107.405V83.3143H103.394V80.4115H106.765V82.2858H110.423V77.6229H97.7026V80.4115Z" fill="white"/>
<path fill-rule="evenodd" clip-rule="evenodd" d="M124.869 88.0801V88.7772C124.869 89.2001 124.708 89.4515 124.388 89.4515C124.068 89.4515 123.886 88.9258 123.886 88.0229C123.845 87.2835 123.55 86.581 123.05 86.035C122.55 85.489 121.876 85.1333 121.143 85.0286C121.941 84.9896 122.697 84.6541 123.261 84.0876C123.825 83.5212 124.158 82.7646 124.194 81.9658C124.194 79.5658 123.246 77.6229 118.354 77.6229H111.497V80.3886H112.64V89.5315H111.497V92.3201H118.354V89.5315H117.074V86.2629C118.949 86.2629 119.177 86.7315 119.177 88.6515C119.177 91.1201 120.514 92.5715 123.268 92.5715C125.611 92.5715 126.354 90.9486 126.354 89.1429V88.0001L124.869 88.0801ZM117.954 83.9543H117.006V80.3658H118.057C118.319 80.3258 118.587 80.3477 118.84 80.4297C119.092 80.5117 119.322 80.6515 119.511 80.838C119.699 81.0245 119.842 81.2525 119.927 81.5039C120.012 81.7553 120.037 82.023 120 82.2858C120 83.3601 119.177 83.9543 117.954 83.9543Z" fill="white"/>
<path fill-rule="evenodd" clip-rule="evenodd" d="M50.4341 102.56H51.7369V111.714H50.4341V114.514H58.2855V111.714H56.1255V109.029H60.1369V106.229H56.1255V102.56H59.3141V104.434H63.0512V99.7715H50.4341V102.56Z" fill="white"/>
<path fill-rule="evenodd" clip-rule="evenodd" d="M71.0859 99.4286C66.7202 99.4286 63.6802 102.571 63.6802 107.131C63.6802 112.4 66.823 114.96 71.2344 114.96C76.0002 114.96 78.663 112.046 78.663 107.28C78.663 102.514 76.2516 99.4286 71.0859 99.4286ZM71.2344 111.646C69.8859 111.646 68.8916 109.897 68.8916 107.074C68.8916 104.251 69.783 102.594 71.063 102.617C72.6859 102.617 73.3487 104.663 73.3487 107.189C73.3487 109.714 72.5602 111.589 71.2344 111.589V111.646Z" fill="white"/>
<path fill-rule="evenodd" clip-rule="evenodd" d="M86.6972 99.4286C82.3315 99.4286 79.2915 102.571 79.2915 107.131C79.2915 112.4 82.4343 114.96 86.8458 114.96C91.6115 114.96 94.2743 112.046 94.2743 107.28C94.2743 102.514 91.8629 99.4286 86.6972 99.4286ZM86.8458 111.646C85.4972 111.646 84.5029 109.897 84.5029 107.074C84.5029 104.251 85.3943 102.594 86.6743 102.617C88.2972 102.617 88.9601 104.663 88.9601 107.189C88.9601 109.714 88.1715 111.589 86.8572 111.589L86.8458 111.646Z" fill="white"/>
<path fill-rule="evenodd" clip-rule="evenodd" d="M101.554 99.7715H95.1201V102.56H96.423V111.703H95.1201V114.503H101.463C106.652 114.503 109.566 111.749 109.566 106.937C109.566 102.914 106.652 99.7715 101.554 99.7715ZM101.554 111.714H100.743V102.571H101.554C103.783 102.571 104.72 104.697 104.72 106.96C104.72 109.577 103.783 111.669 101.554 111.714Z" fill="white"/>
<path fill-rule="evenodd" clip-rule="evenodd" d="M47.8286 51.2457C51.1772 52.3885 55.5201 50.9142 58.5943 51.5199C61.8172 53.1999 61.0858 58.3771 61.0858 63.3942C61.0858 65.9428 60.0458 70.3542 62.2286 70.2514C64.7886 70.1828 63.6115 64.3999 63.6115 60.3199C63.6115 56.5485 64.3086 51.52 63.3372 49.28C63.005 48.6156 62.5391 48.027 61.9688 47.5511C61.3985 47.0752 60.736 46.7222 60.0229 46.5142C58.2858 45.8971 53.7715 46.5142 50.6401 46.5142C49.2801 46.5828 49.8972 44.6857 48.1486 45.1314C46.2058 46.2399 45.7144 50.5257 47.8286 51.2457Z" fill="white"/>
<path fill-rule="evenodd" clip-rule="evenodd" d="M68.823 51.6457C68.9673 51.7771 69.0717 51.9465 69.1242 52.1345C69.1768 52.3224 69.1754 52.5214 69.1202 52.7086C67.2688 57.92 69.7602 63.84 70.9945 68.96C71.0873 69.3526 71.3 69.7066 71.6031 69.9728C71.9062 70.239 72.2846 70.4043 72.6859 70.4457C75.9039 70.6971 79.1365 70.6971 82.3545 70.4457C82.7528 70.4072 83.1296 70.2474 83.4342 69.9878C83.7387 69.7282 83.9562 69.3814 84.0573 68.9943C84.924 65.1709 86.196 61.4508 87.8516 57.8971C88.6402 56.4 90.0688 55.1886 90.6173 54.0229C92.9031 49.1086 90.6173 44.7657 86.4802 45.7486C82.3431 46.7314 85.6688 50.5143 87.6231 52.1943C87.78 52.3213 87.8924 52.4951 87.9438 52.6903C87.9951 52.8856 87.9829 53.0922 87.9088 53.28C86.1373 57.52 83.6688 61.0743 81.5888 65.0057C81.4935 65.1971 81.3552 65.3637 81.1846 65.4926C81.0141 65.6215 80.816 65.7091 80.6059 65.7486C79.2981 65.9525 77.9632 65.902 76.6745 65.6C76.5868 65.5701 76.5065 65.5221 76.4385 65.4592C76.3705 65.3963 76.3165 65.3198 76.2799 65.2348C76.2433 65.1497 76.2249 65.0579 76.226 64.9653C76.227 64.8727 76.2474 64.7814 76.2859 64.6971C77.7945 60.96 79.5202 57.44 79.8516 52.5257C79.8672 52.34 79.948 52.1657 80.0798 52.0339C80.2117 51.9021 80.3859 51.8213 80.5716 51.8057C81.1148 51.7293 81.6225 51.4918 82.0293 51.1239C82.4361 50.756 82.7233 50.2746 82.8537 49.7418C82.9841 49.209 82.9518 48.6494 82.761 48.1352C82.5701 47.621 82.2295 47.1758 81.783 46.8571C78.7888 45.0514 74.9259 44.2514 75.7145 48.8C75.9088 50.0114 76.8573 50.2743 77.5659 51.2229C77.6882 51.4055 77.768 51.6132 77.7997 51.8307C77.8313 52.0482 77.8139 52.2701 77.7488 52.48C76.6059 56.88 75.6573 61.5429 73.3488 64.8229C73.3065 64.8756 73.2508 64.9161 73.1876 64.9399C73.1243 64.9638 73.0558 64.9703 72.9892 64.9586C72.9226 64.9469 72.8604 64.9175 72.809 64.8735C72.7577 64.8296 72.7191 64.7726 72.6973 64.7086C71.3069 60.7957 70.8071 56.6219 71.2345 52.4914C71.2254 52.2782 71.2764 52.0666 71.3814 51.8808C71.4864 51.695 71.6414 51.5423 71.8288 51.44C72.1575 51.3475 72.4942 51.2863 72.8345 51.2571C73.2466 51.1613 73.6078 50.9145 73.8469 50.5654C74.0859 50.2163 74.1855 49.7903 74.1259 49.3714C73.9202 46.2743 71.0516 45.4629 68.5373 45.76C65.303 46.1029 67.1888 50.0686 68.823 51.6457Z" fill="white"/>
<path fill-rule="evenodd" clip-rule="evenodd" d="M104.137 65.6C100.617 66.5943 95.68 63.9428 94.2057 65.8743C93.2915 67.0171 92.5943 68.5257 93.3715 70.0114C94.3886 71.9314 106.046 70.8457 108.286 67.5314C110.777 61.44 111.543 48.3543 104.423 46.5486C102.594 46.0914 100.103 47.0057 98.0686 46.5486C96.9257 46.3086 96.6629 44.72 95.3143 45.4057C93.2229 46.0914 93.6686 50.3886 95.3143 51.2C98.8457 51.8286 102.377 50.2285 104.971 51.4743C109.131 53.52 108.046 64.4914 104.137 65.6Z" fill="white"/>
</svg>
