<?xml version="1.0" encoding="utf-8"?>
<!-- Generator: Adobe Illustrator 26.0.1, SVG Export Plug-In . SVG Version: 6.00 Build 0)  -->
<svg version="1.1" id="Layer_1" xmlns="http://www.w3.org/2000/svg" xmlns:xlink="http://www.w3.org/1999/xlink" x="0px" y="0px"
	 viewBox="0 0 176.5 87.4" style="enable-background:new 0 0 176.5 87.4;" xml:space="preserve">
<style type="text/css">
	.st0{fill:#000;}
	.st1{fill:#33A995;}
</style>
<g>
	<path class="st0" d="M88.2,10.9c-4.5,0-6.6,3.3-6.6,6.7c0,2,0.3,11.7,6.6,11.7s6.6-9.7,6.6-11.7C94.8,14.3,92.8,10.9,88.2,10.9
		 M88.2,34.5c-4,0-7.4-2.1-9.4-5.9c-2-3.7-2.4-8-2.4-11.1c0-5.9,4.1-11.9,11.8-11.9s11.8,6,11.8,11.9c0,3-0.4,7.4-2.4,11.1
		C95.6,32.4,92.3,34.5,88.2,34.5"/>
	<path class="st0" d="M100.9,36.3c-0.2,0-0.5,0-0.7-0.1c-3.8-1.1-8.2-1.7-12-1.7c-3.7,0-8.2,0.6-12,1.7c-1.4,0.4-2.8-0.4-3.2-1.8
		c-0.4-1.4,0.4-2.8,1.8-3.2c4.2-1.2,9.2-1.9,13.4-1.9s9.2,0.7,13.4,1.9c1.4,0.4,2.2,1.8,1.8,3.2C103.1,35.6,102.1,36.3,100.9,36.3"
		/>
	<path class="st1" d="M117.2,34.5c-4.5,0-6.6,3.3-6.6,6.7c0,2,0.3,11.7,6.6,11.7c6.3,0,6.6-9.7,6.6-11.7
		C123.7,37.9,121.7,34.5,117.2,34.5 M117.2,58.1c-4,0-7.4-2.1-9.4-5.9c-2-3.7-2.4-8-2.4-11.1c0-5.9,4.1-11.9,11.8-11.9
		c7.8,0,11.8,6,11.8,11.9c0,3-0.4,7.4-2.4,11.1C124.5,56,121.2,58.1,117.2,58.1"/>
	<path class="st0" d="M59.3,34.5c-4.5,0-6.6,3.3-6.6,6.7c0,2,0.3,11.7,6.6,11.7c6.3,0,6.6-9.7,6.6-11.7
		C65.9,37.9,63.9,34.5,59.3,34.5 M59.3,58.1c-4,0-7.4-2.1-9.4-5.9c-2-3.7-2.4-8-2.4-11.1c0-5.9,4.1-11.9,11.8-11.9s11.8,6,11.8,11.9
		c0,3-0.4,7.4-2.4,11.1C66.7,56,63.3,58.1,59.3,58.1"/>
	<path class="st1" d="M140.8,81.7c-1.5,0-2.6-1.2-2.6-2.6V66c0-4.2-11.6-7.9-21-7.9s-21,3.6-21,7.9v13.1c0,1.4-1.2,2.6-2.6,2.6
		c-1.5,0-2.6-1.2-2.6-2.6V66c0-9.9,17.7-13.1,26.3-13.1s26.3,3.2,26.3,13.1v13.1C143.4,80.5,142.3,81.7,140.8,81.7"/>
	<path class="st0" d="M83,81.7c-1.5,0-2.6-1.2-2.6-2.6V66c0-4.2-11.6-7.9-21-7.9s-21,3.6-21,7.9v13.1c0,1.4-1.2,2.6-2.6,2.6
		c-1.5,0-2.6-1.2-2.6-2.6V66c0-9.9,17.7-13.1,26.3-13.1S85.6,56.1,85.6,66v13.1C85.6,80.5,84.4,81.7,83,81.7"/>
	<path class="st0" d="M146.3,11c-3.6,0-5.7,2.8-6.2,5.6c-0.3,1.9-1.7,11.6,4.5,12.6c0.3,0.1,0.7,0.1,1,0.1c4.2,0,6.6-5.4,7.5-10.5
		c0.6-3.3-0.9-6.9-5.3-7.7C147.2,11,146.7,11,146.3,11 M145.5,34.5c-0.6,0-1.3-0.1-1.9-0.2c-4-0.7-6.9-3.3-8.3-7.4
		c-1.3-3.9-1-8.3-0.5-11.3c1-5.8,5.7-9.9,11.4-9.9c0.7,0,1.5,0.1,2.3,0.2c7.7,1.3,10.6,7.9,9.6,13.7
		C156.5,28.9,151.8,34.5,145.5,34.5"/>
	<path class="st0" d="M30.2,11c-0.4,0-0.9,0-1.4,0.1c-4.5,0.8-5.9,4.4-5.3,7.7c0.9,5.1,3.3,10.5,7.5,10.5c0.3,0,0.7,0,1-0.1
		c6.2-1.1,4.8-10.7,4.5-12.6C36,13.7,33.8,11,30.2,11 M31,34.5L31,34.5c-6.3,0-11-5.5-12.7-14.8c-1-5.8,2-12.4,9.6-13.7
		c0.8-0.1,1.5-0.2,2.3-0.2c5.7,0,10.4,4.1,11.4,9.9c0.5,3,0.9,7.4-0.5,11.3c-1.4,4.1-4.3,6.7-8.3,7.4C32.2,34.4,31.6,34.5,31,34.5"
		/>
	<path class="st0" d="M167.1,58.1c-1.5,0-2.6-1.2-2.6-2.6V42.4c0-4.2-11.6-7.9-21-7.9c-2.9,0-6.1,0.4-9,1.1
		c-1.4,0.4-2.8-0.5-3.2-1.9c-0.4-1.4,0.5-2.8,1.9-3.2c3.3-0.8,6.9-1.3,10.3-1.3c8.6,0,26.3,3.2,26.3,13.1v13.1
		C169.7,56.9,168.6,58.1,167.1,58.1"/>
	<path class="st0" d="M6.7,42.4c0-9.9,17.7-13.1,26.3-13.1c3.3,0,7,0.5,10.3,1.3c1.4,0.4,2.3,1.8,1.9,3.2c-0.4,1.4-1.8,2.3-3.2,1.9
		c-2.9-0.7-6.1-1.1-9-1.1c-9.5,0-21,3.6-21,7.9v13.1c0,1.4-1.2,2.6-2.6,2.6c-1.5,0-2.6-1.2-2.6-2.6"/>
</g>
</svg>
