<?xml version="1.0" encoding="utf-8"?>
<!-- Generator: Adobe Illustrator 26.0.1, SVG Export Plug-In . SVG Version: 6.00 Build 0)  -->
<svg version="1.1" id="Layer_1" xmlns="http://www.w3.org/2000/svg" xmlns:xlink="http://www.w3.org/1999/xlink" x="0px" y="0px"
	 viewBox="0 0 121 129" style="enable-background:new 0 0 121 129;" xml:space="preserve">
<style type="text/css">
	.st0{fill:#33A995;}
</style>
<g>
	<path class="st0" d="M116.1,113.7l-11.4-68.3c-0.7-4.3-4.4-7.5-8.8-7.5H64v-3.1c6.8-1.5,11.8-7.5,11.8-14.7c0-8.3-6.8-15-15.1-15
		s-15.1,6.7-15.1,15c0,7.2,5.1,13.2,11.8,14.7v3.1H25.6c-4.4,0-8.1,3.1-8.8,7.5L5.4,113.7c-0.4,2.6,0.3,5.2,2,7.2
		c1.7,2,4.2,3.2,6.8,3.2h93.1c2.6,0,5.1-1.1,6.8-3.2C115.8,118.9,116.6,116.3,116.1,113.7z M52.2,20.1c0-4.7,3.9-8.6,8.6-8.6
		c4.7,0,8.6,3.8,8.6,8.6c0,4.7-3.9,8.6-8.6,8.6C56,28.7,52.2,24.8,52.2,20.1z M109.2,116.8c-0.3,0.3-0.9,0.9-1.9,0.9H14.2
		c-1,0-1.6-0.5-1.9-0.9c-0.3-0.3-0.7-1-0.6-2l11.4-68.3c0.2-1.2,1.2-2.1,2.4-2.1h70.3c1.2,0,2.2,0.9,2.4,2.1l11.4,68.3
		C109.9,115.7,109.5,116.4,109.2,116.8z"/>
	<polygon class="st0" points="21.2,73.3 22.4,77.8 25.9,77 25.9,92.8 31.7,92.8 31.7,71.6 27.4,71.6 	"/>
	<path class="st0" d="M44.3,79c-1.4,0-2.4,0.3-3.4,0.8l0.2-3.2h9.5v-4.8H36.5l-0.6,10.6l3.5,2c1-0.6,2.1-1.1,3.4-1.1
		c1.8,0,3.1,0.9,3.1,2.4v0.1c0,1.5-1.1,2.5-3.1,2.5c-1.8,0-3.4-0.8-5.1-2.3l-3.3,3.9c2.2,2,4.8,3.3,8.5,3.3c5.1,0,8.7-2.8,8.7-7.5
		v-0.1C51.6,81.1,48.1,79,44.3,79z"/>
	<rect x="54.5" y="86.9" class="st0" width="5.9" height="5.9"/>
	<path class="st0" d="M75.4,85.5c3.1-2.3,4.9-4,4.9-7.4v-0.1c0-4-3.2-6.7-7.8-6.7c-4.1,0-6.3,1.6-8.6,4.5l3.9,3.3
		c1.7-1.9,2.8-2.7,4.2-2.7c1.4,0,2.4,0.8,2.4,2.2c0,1.3-0.8,2.3-2.7,3.8l-7.9,6v4.4h16.7V88h-8.7L75.4,85.5z"/>
	<path class="st0" d="M96.6,81.7c-1.6,0-2.7,0.7-3.6,1.8c-0.6-1.1-1.7-1.8-3.1-1.8c-1.5,0-2.5,0.8-3.2,1.7v-1.5h-3.8v10.8h3.8v-5.9
		c0-1.2,0.6-1.8,1.5-1.8s1.5,0.6,1.5,1.8v5.9h3.8v-5.9c0-1.2,0.7-1.8,1.6-1.8c0.9,0,1.5,0.6,1.5,1.8v5.9h3.8v-7.1
		C100.3,83.1,98.9,81.7,96.6,81.7z"/>
</g>
</svg>
