<svg width="524" height="232" viewBox="0 0 524 232" fill="none" xmlns="http://www.w3.org/2000/svg">
<rect width="524" height="232" rx="10" fill="#DFE8EB"/>
<path d="M85.2113 81.2109H95.7163V42.4359H87.9613L76.6862 45.6259L78.7212 53.8759L85.2113 52.3359V81.2109Z" fill="#34AA96"/>
<path d="M101.264 81.2109H131.734V72.5209H115.839L122.439 67.9009C128.159 63.7759 131.349 60.5859 131.349 54.4259V54.3159C131.349 47.0559 125.574 42.0509 117.159 42.0509C109.734 42.0509 105.609 44.9659 101.484 50.3009L108.689 56.2959C111.714 52.8309 113.749 51.2909 116.334 51.2909C118.974 51.2909 120.679 52.7759 120.679 55.2509C120.679 57.5609 119.249 59.3759 115.674 62.1809L101.264 73.1809V81.2109Z" fill="#34AA96"/>
<path d="M151.096 81.8709C160.336 81.8709 166.936 77.4159 166.936 70.4859V70.3759C166.936 65.6459 164.241 63.0609 160.336 61.2459C163.306 59.5959 165.616 57.0109 165.616 52.8309V52.7209C165.616 46.6159 159.731 42.0509 151.096 42.0509C142.461 42.0509 136.631 46.6159 136.631 52.7209V52.8309C136.631 57.0109 138.941 59.5959 141.856 61.2459C137.731 63.0059 135.311 65.8109 135.311 70.4859V70.5959C135.311 77.3059 141.856 81.8709 151.096 81.8709ZM151.096 58.3309C148.236 58.3309 146.366 56.5159 146.366 54.0959V53.9859C146.366 51.8409 148.181 49.9159 151.096 49.9159C154.066 49.9159 155.881 51.8409 155.881 53.9859V54.0959C155.881 56.5159 153.956 58.3309 151.096 58.3309ZM151.096 73.8959C147.521 73.8959 145.541 71.8609 145.541 69.5509V69.4409C145.541 66.9109 147.851 65.2059 151.096 65.2059C154.396 65.2059 156.651 66.9109 156.651 69.4409V69.5509C156.651 71.8609 154.671 73.8959 151.096 73.8959Z" fill="#34AA96"/>
<path d="M170.834 81.2109H181.669V70.4859H170.834V81.2109Z" fill="#34AA96"/>
<path d="M186.38 81.2109H198.15L215.145 50.7409V42.7109H185.5V51.6759H203.32L186.38 81.2109Z" fill="#34AA96"/>
<path d="M57.4736 145.211H67.9236V123.156L77.7136 138.171H77.9336L87.7786 123.101V145.211H98.3936V106.711H87.1186L77.9336 121.616L68.7486 106.711H57.4736V145.211Z" fill="#34AA96"/>
<path d="M104.673 112.761H115.508V105.061H104.673V112.761ZM104.893 145.211H115.288V115.456H104.893V145.211Z" fill="#34AA96"/>
<path d="M121.436 145.211H131.831V105.061H121.436V145.211Z" fill="#34AA96"/>
<path d="M137.979 145.211H148.374V105.061H137.979V145.211Z" fill="#34AA96"/>
<path d="M154.302 112.761H165.137V105.061H154.302V112.761ZM154.522 145.211H164.917V115.456H154.522V145.211Z" fill="#34AA96"/>
<path d="M185.97 145.926C195.54 145.926 202.47 138.831 202.47 130.361V130.251C202.47 121.781 195.595 114.796 186.08 114.796C176.565 114.796 169.635 121.891 169.635 130.361V130.471C169.635 138.941 176.51 145.926 185.97 145.926ZM186.08 137.071C182.395 137.071 179.755 133.991 179.755 130.361V130.251C179.755 126.621 182.175 123.596 185.97 123.596C189.655 123.596 192.35 126.676 192.35 130.361V130.471C192.35 134.046 189.875 137.071 186.08 137.071Z" fill="#34AA96"/>
<path d="M206.883 145.211H217.333V129.096C217.333 125.796 219.203 124.036 221.733 124.036C224.263 124.036 225.968 125.796 225.968 129.096V145.211H236.363V125.741C236.363 118.976 232.568 114.796 226.243 114.796C222.008 114.796 219.258 117.161 217.333 119.636V115.456H206.883V145.211Z" fill="#34AA96"/>
<path d="M33.8791 191.211H36.6071V178.319H41.4911V175.811H28.9951V178.319H33.8791V191.211Z" fill="black"/>
<path d="M47.0611 191.475C50.6471 191.475 53.2871 188.725 53.2871 185.425V185.381C53.2871 182.059 50.6691 179.353 47.1051 179.353C43.5411 179.353 40.9011 182.103 40.9011 185.425V185.469C40.9011 188.769 43.5191 191.475 47.0611 191.475ZM47.1051 189.143C45.0371 189.143 43.5631 187.449 43.5631 185.425V185.381C43.5631 183.357 44.9271 181.685 47.0611 181.685C49.1511 181.685 50.6251 183.379 50.6251 185.425V185.469C50.6251 187.471 49.2611 189.143 47.1051 189.143Z" fill="black"/>
<path d="M59.8921 191.409C60.9041 191.409 61.6301 191.189 62.2901 190.815V188.637C61.7621 188.901 61.2341 189.033 60.6401 189.033C59.7381 189.033 59.2101 188.615 59.2101 187.581V181.883H62.3341V179.595H59.2101V176.405H56.5481V179.595H55.0741V181.883H56.5481V187.999C56.5481 190.551 57.9341 191.409 59.8921 191.409Z" fill="black"/>
<path d="M68.387 191.453C70.169 191.453 71.379 190.705 72.171 189.759V191.211H74.767V184.325C74.767 182.807 74.371 181.575 73.513 180.739C72.699 179.903 71.401 179.441 69.663 179.441C67.815 179.441 66.561 179.815 65.285 180.387L65.989 182.477C67.045 182.037 68.013 181.751 69.311 181.751C71.181 181.751 72.193 182.631 72.193 184.281V184.567C71.291 184.281 70.367 184.083 69.069 184.083C66.231 184.083 64.273 185.315 64.273 187.823V187.867C64.273 190.199 66.209 191.453 68.387 191.453ZM69.135 189.517C67.859 189.517 66.869 188.879 66.869 187.757V187.713C66.869 186.503 67.881 185.777 69.597 185.777C70.653 185.777 71.555 185.975 72.237 186.239V187.031C72.237 188.505 70.895 189.517 69.135 189.517Z" fill="black"/>
<path d="M78.1091 191.211H80.7711V175.151H78.1091V191.211Z" fill="black"/>
<path d="M91.1537 191.211H93.8157V180.211L98.6337 187.427H98.7217L103.584 180.167V191.211H106.29V175.811H103.408L98.7217 183.093L94.0357 175.811H91.1537V191.211Z" fill="black"/>
<path d="M115.269 191.475C117.403 191.475 118.921 190.617 120.021 189.297L118.459 187.911C117.535 188.813 116.611 189.297 115.313 189.297C113.597 189.297 112.255 188.241 111.969 186.349H120.505C120.527 186.085 120.549 185.843 120.549 185.601C120.549 182.257 118.679 179.353 114.983 179.353C111.661 179.353 109.307 182.081 109.307 185.403V185.447C109.307 189.033 111.903 191.475 115.269 191.475ZM111.947 184.589C112.189 182.785 113.333 181.531 114.961 181.531C116.721 181.531 117.733 182.873 117.909 184.589H111.947Z" fill="black"/>
<path d="M126.567 191.453C128.349 191.453 129.559 190.705 130.351 189.759V191.211H132.947V184.325C132.947 182.807 132.551 181.575 131.693 180.739C130.879 179.903 129.581 179.441 127.843 179.441C125.995 179.441 124.741 179.815 123.465 180.387L124.169 182.477C125.225 182.037 126.193 181.751 127.491 181.751C129.361 181.751 130.373 182.631 130.373 184.281V184.567C129.471 184.281 128.547 184.083 127.249 184.083C124.411 184.083 122.453 185.315 122.453 187.823V187.867C122.453 190.199 124.389 191.453 126.567 191.453ZM127.315 189.517C126.039 189.517 125.049 188.879 125.049 187.757V187.713C125.049 186.503 126.061 185.777 127.777 185.777C128.833 185.777 129.735 185.975 130.417 186.239V187.031C130.417 188.505 129.075 189.517 127.315 189.517Z" fill="black"/>
<path d="M136.289 191.211H138.951V175.151H136.289V191.211Z" fill="black"/>
<path d="M146.412 191.431C148.832 191.431 150.724 190.221 150.724 187.779V187.735C150.724 185.645 148.81 184.875 147.116 184.347C145.752 183.907 144.498 183.555 144.498 182.697V182.653C144.498 181.993 145.092 181.509 146.126 181.509C147.094 181.509 148.282 181.927 149.404 182.609L150.46 180.717C149.228 179.903 147.644 179.397 146.192 179.397C143.882 179.397 142.056 180.739 142.056 182.939V182.983C142.056 185.205 143.97 185.909 145.686 186.393C147.05 186.811 148.282 187.119 148.282 188.021V188.065C148.282 188.835 147.622 189.319 146.478 189.319C145.29 189.319 143.948 188.835 142.672 187.889L141.484 189.693C142.936 190.837 144.762 191.431 146.412 191.431Z" fill="black"/>
<path d="M160.355 191.211H166.097C170.937 191.211 174.281 187.845 174.281 183.511V183.467C174.281 179.133 170.937 175.811 166.097 175.811H160.355V191.211ZM166.097 178.275C169.331 178.275 171.443 180.497 171.443 183.511V183.555C171.443 186.569 169.331 188.747 166.097 188.747H163.061V178.275H166.097Z" fill="black"/>
<path d="M182.58 191.475C184.714 191.475 186.232 190.617 187.332 189.297L185.77 187.911C184.846 188.813 183.922 189.297 182.624 189.297C180.908 189.297 179.566 188.241 179.28 186.349H187.816C187.838 186.085 187.86 185.843 187.86 185.601C187.86 182.257 185.99 179.353 182.294 179.353C178.972 179.353 176.618 182.081 176.618 185.403V185.447C176.618 189.033 179.214 191.475 182.58 191.475ZM179.258 184.589C179.5 182.785 180.644 181.531 182.272 181.531C184.032 181.531 185.044 182.873 185.22 184.589H179.258Z" fill="black"/>
<path d="M190.687 191.211H193.349V175.151H190.687V191.211Z" fill="black"/>
<path d="M196.872 177.813H199.732V175.283H196.872V177.813ZM196.982 191.211H199.644V179.595H196.982V191.211Z" fill="black"/>
<path d="M206.797 191.299H209.195L213.947 179.595H211.153L208.007 188.131L204.883 179.595H202.023L206.797 191.299Z" fill="black"/>
<path d="M220.865 191.475C222.999 191.475 224.517 190.617 225.617 189.297L224.055 187.911C223.131 188.813 222.207 189.297 220.909 189.297C219.193 189.297 217.851 188.241 217.565 186.349H226.101C226.123 186.085 226.145 185.843 226.145 185.601C226.145 182.257 224.275 179.353 220.579 179.353C217.257 179.353 214.903 182.081 214.903 185.403V185.447C214.903 189.033 217.499 191.475 220.865 191.475ZM217.543 184.589C217.785 182.785 218.929 181.531 220.557 181.531C222.317 181.531 223.329 182.873 223.505 184.589H217.543Z" fill="black"/>
<path d="M228.818 191.211H231.48V186.789C231.48 183.709 233.108 182.191 235.44 182.191H235.594V179.375C233.548 179.287 232.206 180.475 231.48 182.213V179.595H228.818V191.211Z" fill="black"/>
<path d="M242.844 191.475C244.978 191.475 246.496 190.617 247.596 189.297L246.034 187.911C245.11 188.813 244.186 189.297 242.888 189.297C241.172 189.297 239.83 188.241 239.544 186.349H248.08C248.102 186.085 248.124 185.843 248.124 185.601C248.124 182.257 246.254 179.353 242.558 179.353C239.236 179.353 236.882 182.081 236.882 185.403V185.447C236.882 189.033 239.478 191.475 242.844 191.475ZM239.522 184.589C239.764 182.785 240.908 181.531 242.536 181.531C244.296 181.531 245.308 182.873 245.484 184.589H239.522Z" fill="black"/>
<path d="M255.593 191.453C257.485 191.453 258.695 190.485 259.553 189.275V191.211H262.215V175.151H259.553V181.399C258.717 180.299 257.507 179.353 255.593 179.353C252.821 179.353 250.203 181.531 250.203 185.381V185.425C250.203 189.275 252.865 191.453 255.593 191.453ZM256.231 189.143C254.427 189.143 252.887 187.669 252.887 185.425V185.381C252.887 183.071 254.405 181.663 256.231 181.663C258.013 181.663 259.597 183.137 259.597 185.381V185.425C259.597 187.647 258.013 189.143 256.231 189.143Z" fill="black"/>
<g clip-path="url(#clip0_184_182)">
<path d="M389.08 154.039C388.536 154.038 388.001 153.9 387.525 153.636C387.05 153.372 386.649 152.991 386.36 152.529L370.312 126.837C370.035 126.393 369.871 125.889 369.833 125.368C369.795 124.846 369.885 124.324 370.095 123.845C370.305 123.367 370.629 122.946 371.038 122.621C371.447 122.296 371.929 122.076 372.442 121.979L475.152 102.71C475.786 102.592 476.44 102.667 477.031 102.926C477.621 103.185 478.12 103.616 478.462 104.163L494.51 129.856C494.787 130.299 494.951 130.803 494.989 131.325C495.027 131.846 494.937 132.369 494.727 132.847C494.517 133.326 494.194 133.746 493.785 134.071C493.376 134.396 492.893 134.617 492.38 134.713L389.67 153.982C389.476 154.021 389.278 154.04 389.08 154.039ZM378.248 127.423L390.641 147.266L486.574 129.27L474.181 109.426L378.248 127.423Z" fill="#D56418"/>
<path d="M350.564 150.827C350.121 150.826 349.683 150.735 349.276 150.558L297.922 128.077C297.442 127.868 297.021 127.545 296.694 127.135C296.368 126.726 296.147 126.243 296.05 125.728C295.953 125.214 295.984 124.683 296.138 124.183C296.293 123.683 296.568 123.228 296.939 122.858L319.406 100.378C319.863 99.9205 320.447 99.612 321.082 99.4923C321.717 99.3727 322.373 99.4476 322.965 99.7073L374.32 122.188C374.8 122.397 375.221 122.721 375.547 123.13C375.873 123.54 376.094 124.023 376.191 124.537C376.288 125.052 376.258 125.582 376.103 126.082C375.948 126.583 375.674 127.037 375.303 127.407L352.835 149.888C352.537 150.186 352.183 150.422 351.793 150.583C351.404 150.744 350.986 150.827 350.564 150.827ZM304.802 124.079L349.842 143.794L367.439 126.19L322.399 106.476L304.802 124.079Z" fill="#D56418"/>
<path d="M373.032 199C372.589 198.999 372.151 198.908 371.744 198.731L320.39 176.25C319.818 176 319.332 175.588 318.991 175.065C318.649 174.543 318.468 173.932 318.468 173.308V147.615C318.468 146.764 318.806 145.947 319.408 145.344C320.01 144.742 320.826 144.404 321.677 144.404C322.529 144.404 323.345 144.742 323.947 145.344C324.549 145.947 324.887 146.764 324.887 147.615V171.208L373.434 192.448L472.532 173.854V147.615C472.532 146.764 472.87 145.947 473.472 145.344C474.074 144.742 474.891 144.404 475.742 144.404C476.593 144.404 477.41 144.742 478.012 145.344C478.613 145.947 478.952 146.764 478.952 147.615V176.519C478.951 177.268 478.689 177.994 478.211 178.57C477.732 179.146 477.068 179.537 476.332 179.675L373.622 198.944C373.428 198.981 373.23 198.999 373.032 199V199Z" fill="#D56418"/>
<path d="M373.032 199C372.181 199 371.364 198.662 370.762 198.059C370.16 197.457 369.822 196.64 369.822 195.788V144.404C369.822 143.552 370.16 142.735 370.762 142.133C371.364 141.531 372.181 141.192 373.032 141.192C373.883 141.192 374.7 141.531 375.302 142.133C375.903 142.735 376.242 143.552 376.242 144.404V195.788C376.242 196.64 375.903 197.457 375.302 198.059C374.7 198.662 373.883 199 373.032 199Z" fill="#D56418"/>
<path d="M437.226 54.4808H417.968C417.117 54.4808 416.3 54.1424 415.698 53.5401C415.096 52.9379 414.758 52.121 414.758 51.2692V35.2115C414.758 34.3598 415.096 33.5429 415.698 32.9406C416.3 32.3384 417.117 32 417.968 32H437.226C438.077 32 438.894 32.3384 439.496 32.9406C440.098 33.5429 440.436 34.3598 440.436 35.2115V51.2692C440.436 52.121 440.098 52.9379 439.496 53.5401C438.894 54.1424 438.077 54.4808 437.226 54.4808ZM421.178 48.0577H434.016V38.4231H421.178V48.0577Z" fill="#D56418"/>
<path d="M456.484 86.5961H437.226C436.375 86.5961 435.558 86.2578 434.956 85.6555C434.354 85.0532 434.016 84.2364 434.016 83.3846V70.5384C434.016 69.6867 434.354 68.8698 434.956 68.2675C435.558 67.6653 436.375 67.3269 437.226 67.3269H456.484C457.335 67.3269 458.152 67.6653 458.753 68.2675C459.355 68.8698 459.694 69.6867 459.694 70.5384V83.3846C459.694 84.2364 459.355 85.0532 458.753 85.6555C458.152 86.2578 457.335 86.5961 456.484 86.5961ZM440.435 80.1731H453.274V73.75H440.435V80.1731Z" fill="#D56418"/>
<path d="M462.903 99.4423C462.052 99.4423 461.235 99.1039 460.633 98.5017C460.032 97.8994 459.693 97.0825 459.693 96.2308V93.778C459.699 92.2154 459.266 90.6826 458.445 89.3536C457.624 88.0245 456.447 86.9524 455.047 86.2589C454.285 85.8778 453.706 85.2094 453.437 84.4008C453.167 83.5923 453.23 82.7098 453.611 81.9474C453.992 81.1851 454.66 80.6055 455.468 80.3359C456.276 80.0664 457.158 80.1291 457.92 80.5103C460.385 81.734 462.458 83.6232 463.906 85.9642C465.354 88.3053 466.118 91.0049 466.113 93.7579V96.2308C466.113 97.0825 465.775 97.8994 465.173 98.5017C464.571 99.1039 463.754 99.4423 462.903 99.4423Z" fill="#D56418"/>
<path d="M430.806 105.865C429.955 105.865 429.139 105.527 428.537 104.925C427.935 104.322 427.597 103.506 427.597 102.654V93.7779C427.591 91.0249 428.356 88.3253 429.804 85.9842C431.251 83.6432 433.325 81.754 435.789 80.5303C436.551 80.1492 437.433 80.0864 438.241 80.356C439.049 80.6255 439.717 81.2051 440.098 81.9675C440.479 82.7298 440.542 83.6123 440.273 84.4209C440.003 85.2294 439.424 85.8978 438.662 86.279C437.266 86.9709 436.091 88.0399 435.27 89.3651C434.449 90.6902 434.014 92.2188 434.016 93.7779V102.654C434.016 103.506 433.678 104.322 433.076 104.925C432.474 105.527 431.658 105.865 430.806 105.865Z" fill="#D56418"/>
<path d="M443.645 60.9039C442.794 60.9039 441.978 60.5655 441.376 59.9632C440.774 59.361 440.436 58.5441 440.436 57.6923C440.437 57.3238 440.335 56.9623 440.141 56.6487C439.947 56.3351 439.67 56.082 439.34 55.918L435.79 54.1436C435.412 53.9548 435.076 53.6936 434.8 53.3748C434.523 53.056 434.312 52.6858 434.179 52.2855C434.046 51.8851 433.992 51.4624 434.022 51.0414C434.052 50.6205 434.165 50.2096 434.353 49.8321C434.542 49.4546 434.803 49.118 435.122 48.8415C435.44 48.565 435.81 48.354 436.21 48.2206C436.61 48.0871 437.033 48.0338 437.454 48.0637C437.874 48.0937 438.285 48.2062 438.662 48.3949L442.209 50.1733C443.608 50.8672 444.785 51.9393 445.606 53.2683C446.427 54.5973 446.86 56.1299 446.855 57.6923C446.855 58.5441 446.517 59.361 445.915 59.9632C445.313 60.5655 444.496 60.9039 443.645 60.9039Z" fill="#D56418"/>
<path d="M411.549 60.9039C410.697 60.9039 409.881 60.5655 409.279 59.9632C408.677 59.3609 408.339 58.5441 408.339 57.6923C408.334 56.1299 408.767 54.5973 409.588 53.2683C410.409 51.9393 411.586 50.8672 412.985 50.1733L416.532 48.3949C417.293 48.0138 418.175 47.9511 418.984 48.2206C419.792 48.4901 420.46 49.0698 420.841 49.8321C421.222 50.5944 421.284 51.4769 421.015 52.2855C420.745 53.094 420.166 53.7624 419.404 54.1436L415.854 55.918C415.524 56.082 415.246 56.3351 415.053 56.6487C414.859 56.9623 414.757 57.3238 414.758 57.6923C414.758 58.5441 414.42 59.3609 413.818 59.9632C413.216 60.5655 412.4 60.9039 411.549 60.9039Z" fill="#D56418"/>
<path d="M398.71 112.288C397.858 112.288 397.042 111.95 396.44 111.348C395.838 110.745 395.5 109.929 395.5 109.077V76.9615C395.5 76.2194 395.758 75.5004 396.228 74.9266C396.698 74.3529 397.353 73.9598 398.08 73.8141L414.128 70.6026C414.594 70.5094 415.074 70.5207 415.535 70.6356C415.995 70.7506 416.425 70.9663 416.792 71.2674C417.159 71.5684 417.455 71.9472 417.659 72.3765C417.862 72.8058 417.967 73.2749 417.968 73.7499V105.865C417.968 106.717 417.63 107.534 417.028 108.136C416.426 108.738 415.609 109.077 414.758 109.077C413.907 109.077 413.09 108.738 412.488 108.136C411.887 107.534 411.548 106.717 411.548 105.865V77.668L401.919 79.5949V109.077C401.919 109.929 401.581 110.745 400.979 111.348C400.377 111.95 399.561 112.288 398.71 112.288Z" fill="#D56418"/>
<path d="M414.758 76.9615C414.081 76.961 413.421 76.746 412.873 76.3473L378.706 51.4819L366.617 53.8906V60.9038C366.617 61.7555 366.279 62.5724 365.677 63.1747C365.075 63.777 364.259 64.1153 363.407 64.1153C362.556 64.1153 361.74 63.777 361.138 63.1747C360.536 62.5724 360.198 61.7555 360.198 60.9038V51.2692C360.198 50.5271 360.455 49.8081 360.926 49.2343C361.396 48.6606 362.05 48.2675 362.778 48.1218L378.826 44.9103C379.261 44.8227 379.71 44.8263 380.143 44.921C380.577 45.0156 380.986 45.1993 381.345 45.4603L416.652 71.1526C417.2 71.5517 417.609 72.1144 417.818 72.76C418.027 73.4055 418.026 74.1007 417.816 74.7459C417.605 75.391 417.196 75.9529 416.647 76.351C416.098 76.749 415.436 76.9627 414.758 76.9615Z" fill="#D56418"/>
<path d="M398.71 80.173C398.032 80.1726 397.372 79.9576 396.824 79.5588L361.517 53.8665C361.177 53.6182 360.888 53.3052 360.668 52.9452C360.448 52.5853 360.301 52.1855 360.235 51.7688C360.17 51.352 360.187 50.9264 360.286 50.5163C360.385 50.1061 360.563 49.7195 360.811 49.3784C361.059 49.0373 361.372 48.7485 361.732 48.5284C362.092 48.3083 362.491 48.1612 362.908 48.0956C363.324 48.03 363.75 48.0471 364.16 48.146C364.569 48.2449 364.956 48.4236 365.297 48.6719L400.603 74.3642C401.152 74.7633 401.56 75.326 401.769 75.9715C401.978 76.6171 401.977 77.3123 401.767 77.9574C401.557 78.6026 401.147 79.1645 400.598 79.5625C400.049 79.9606 399.388 80.1743 398.71 80.173Z" fill="#D56418"/>
<path d="M373.032 89.8077H334.516C333.665 89.8077 332.849 89.4693 332.247 88.8671C331.645 88.2648 331.307 87.4479 331.307 86.5961V73.75C331.307 72.8982 331.645 72.0814 332.247 71.4791C332.849 70.8768 333.665 70.5385 334.516 70.5385H373.032C373.884 70.5385 374.7 70.8768 375.302 71.4791C375.904 72.0814 376.242 72.8982 376.242 73.75V86.5961C376.242 87.4479 375.904 88.2648 375.302 88.8671C374.7 89.4693 373.884 89.8077 373.032 89.8077ZM337.726 83.3846H369.823V76.9615H337.726V83.3846Z" fill="#D56418"/>
<path d="M376.242 115.5C375.391 115.5 374.574 115.162 373.972 114.559C373.37 113.957 373.032 113.14 373.032 112.288V106.624C373.038 105.062 372.605 103.529 371.784 102.2C370.963 100.871 369.786 99.7986 368.386 99.1051C367.853 98.8381 367.405 98.4278 367.091 97.9201C366.778 97.4124 366.612 96.8274 366.613 96.2308V86.5962C366.613 85.7444 366.951 84.9276 367.553 84.3253C368.155 83.723 368.971 83.3846 369.822 83.3846C370.674 83.3846 371.49 83.723 372.092 84.3253C372.694 84.9276 373.032 85.7444 373.032 86.5962V94.4042C375.018 95.7619 376.641 97.5854 377.76 99.7155C378.879 101.846 379.46 104.218 379.452 106.624V112.288C379.452 113.14 379.113 113.957 378.511 114.559C377.909 115.162 377.093 115.5 376.242 115.5Z" fill="#D56418"/>
<path d="M335.294 101.076C334.643 101.074 334.008 100.875 333.473 100.503C332.938 100.131 332.528 99.6059 332.299 98.9961C332.07 98.3863 332.031 97.7211 332.188 97.0888C332.346 96.4565 332.692 95.887 333.18 95.456C333.605 95.085 334.051 94.7392 334.516 94.4203V86.5962C334.516 85.7444 334.854 84.9276 335.456 84.3253C336.058 83.723 336.874 83.3846 337.726 83.3846C338.577 83.3846 339.393 83.723 339.995 84.3253C340.597 84.9276 340.935 85.7444 340.935 86.5962V96.2308C340.936 96.8274 340.77 97.4124 340.457 97.9201C340.144 98.4278 339.695 98.8381 339.162 99.1051C338.528 99.4202 337.938 99.8155 337.405 100.281C336.82 100.793 336.071 101.075 335.294 101.076V101.076Z" fill="#D56418"/>
</g>
<defs>
<clipPath id="clip0_184_182">
<rect width="199" height="167" fill="white" transform="translate(296 32)"/>
</clipPath>
</defs>
</svg>
